SplineFontDB: 3.2
FontName: Vimala
FullName: Vimala
FamilyName: Vimala
Weight: Book
Copyright: Copyright 2020 Aditya Bayu Perdana. All Rights Reserved.
Version: 2.04 February 24, 2020
ItalicAngle: 0
UnderlinePosition: -125
UnderlineWidth: 50
Ascent: 800
Descent: 200
InvalidEm: 0
sfntRevision: 0x00020a3d
LayerCount: 2
Layer: 0 1 "Back" 1
Layer: 1 1 "Fore" 0
XUID: [1021 231 -599577464 3733284]
StyleMap: 0x0040
FSType: 0
OS2Version: 1
OS2_WeightWidthSlopeOnly: 0
OS2_UseTypoMetrics: 0
CreationTime: 1583521676
ModificationTime: 1583521676
PfmFamily: 17
TTFWeight: 400
TTFWidth: 5
LineGap: 0
VLineGap: 0
Panose: 2 2 5 2 6 5 5 2 2 4
OS2TypoAscent: 1100
OS2TypoAOffset: 0
OS2TypoDescent: -800
OS2TypoDOffset: 0
OS2TypoLinegap: 0
OS2WinAscent: 1140
OS2WinAOffset: 0
OS2WinDescent: 900
OS2WinDOffset: 0
HheadAscent: 1100
HheadAOffset: 0
HheadDescent: -800
HheadDOffset: 0
OS2SubXSize: 650
OS2SubYSize: 600
OS2SubXOff: 0
OS2SubYOff: 75
OS2SupXSize: 650
OS2SupYSize: 600
OS2SupXOff: 0
OS2SupYOff: 350
OS2StrikeYSize: 50
OS2StrikeYPos: 322
OS2Vendor: 'BAYU'
OS2CodePages: 00000001.00000000
OS2UnicodeRanges: 08000000.00000000.00000000.00000000
Lookup: 4 0 0 "'ccmp' Glyph Composition/Decomposition in Balinese lookup 0" { "'ccmp' Glyph Composition/Decomposition in Balinese lookup 0 subtable"  } ['ccmp' ('DFLT' <'dflt' > 'bali' <'dflt' > ) ]
Lookup: 2 0 0 "'ccmp' Glyph Composition/Decomposition in Balinese lookup 1" { "'ccmp' Glyph Composition/Decomposition in Balinese lookup 1 subtable"  } ['ccmp' ('DFLT' <'dflt' > 'bali' <'dflt' > ) ]
Lookup: 6 0 0 "'rphf' Reph Form in Balinese lookup 2" { "'rphf' Reph Form in Balinese lookup 2 subtable"  } ['rphf' ('bali' <'KAW ' > ) ]
Lookup: 4 0 0 "Ligature Substitution lookup 3" { "Ligature Substitution lookup 3 subtable"  } []
Lookup: 4 0 0 "'blwf' Below Base Forms in Balinese lookup 4" { "'blwf' Below Base Forms in Balinese lookup 4 subtable"  } ['blwf' ('DFLT' <'dflt' > 'bali' <'dflt' > ) ]

StartChar: .notdef
Encoding: 65536 -1 0
Width: 600
GlyphClass: 2
Flags: W
LayerCount: 2
Fore
SplineSet
94 0 m 1,0,-1
 94 714 l 1,1,-1
 505 714 l 1,2,-1
 505 0 l 1,3,-1
 94 0 l 1,0,-1
145 663 m 1,4,-1
 145 51 l 1,5,-1
 454 51 l 1,6,-1
 454 663 l 1,7,-1
 145 663 l 1,4,-1
EndSplineSet
EndChar

StartChar: uni1B00
Encoding: 6912 6912 5
Width: 0
GlyphClass: 4
Flags: W
AnchorPoint: "Anchor-0" -315 534 mark 0
LayerCount: 2
Fore
SplineSet
-183 545 m 1,0,1
 -144 601 -144 601 -144 684 c 0,2,3
 -144 860 -144 860 -318 860 c 0,4,5
 -402 860 -402 860 -448 814 c 0,6,7
 -496 768 -496 768 -496 680 c 0,8,9
 -496 601 -496 601 -454 545 c 1,10,-1
 -467 533 l 1,11,12
 -545 604 -545 604 -545 747 c 2,13,-1
 -545 754 l 1,14,15
 -534 859 -534 859 -474 908 c 0,16,17
 -413 957 -413 957 -318 957 c 0,18,19
 -111 957 -111 957 -91 754 c 1,20,-1
 -91 750 l 2,21,22
 -91 605 -91 605 -170 533 c 1,23,-1
 -183 545 l 1,0,1
-270 563 m 1,24,25
 -233 601 -233 601 -233 651 c 2,26,-1
 -233 654 l 1,27,28
 -240 718 -240 718 -319 719 c 0,29,30
 -398 718 -398 718 -405 654 c 1,31,-1
 -405 651 l 2,32,33
 -405 601 -405 601 -368 563 c 1,34,-1
 -379 552 l 1,35,36
 -441 605 -441 605 -445 664 c 1,37,38
 -445 785 -445 785 -325 785 c 2,39,-1
 -313 785 l 2,40,41
 -193 785 -193 785 -193 664 c 1,42,43
 -197 605 -197 605 -259 552 c 1,44,-1
 -270 563 l 1,24,25
EndSplineSet
Ligature2: "'liga' Standard Ligatures in Balinese lookup 357 subtable" _reorder uni1B00
MultipleSubs2: "Multiple Substitution lookup 303 subtable" uni1B00 _reorder
Ligature2: "'liga' Standard Ligatures in Balinese lookup 301 subtable" _reorder uni1B00
MultipleSubs2: "Multiple Substitution lookup 247 subtable" uni1B00 _reorder
Ligature2: "'liga' Standard Ligatures in Balinese lookup 245 subtable" _reorder uni1B00
MultipleSubs2: "Multiple Substitution lookup 191 subtable" uni1B00 _reorder
Ligature2: "'liga' Standard Ligatures in Balinese lookup 183 subtable" _reorder uni1B00
MultipleSubs2: "Multiple Substitution lookup 129 subtable" uni1B00 _reorder
Ligature2: "'liga' Standard Ligatures in Balinese lookup 127 subtable" _reorder uni1B00
MultipleSubs2: "Multiple Substitution lookup 73 subtable" uni1B00 _reorder
Ligature2: "'liga' Standard Ligatures in Balinese lookup 71 subtable" _reorder uni1B00
MultipleSubs2: "Multiple Substitution lookup 17 subtable" uni1B00 _reorder
EndChar

StartChar: uni1B01
Encoding: 6913 6913 6
Width: 0
GlyphClass: 4
Flags: W
AnchorPoint: "Anchor-0" -342 493 mark 0
LayerCount: 2
Fore
SplineSet
-427 594 m 1,0,1
 -395 580 -395 580 -341 578 c 0,2,3
 -291 579 -291 579 -255 593 c 1,4,5
 -275 684 -275 684 -341 684 c 256,6,7
 -407 684 -407 684 -427 594 c 1,0,1
-332 980 m 1,8,-1
 -320 740 l 1,9,-1
 -364 740 l 1,10,-1
 -353 980 l 1,11,-1
 -332 980 l 1,8,-1
-234 601 m 1,12,13
 -145 638 -145 638 -137 749 c 1,14,-1
 -120 749 l 1,15,-1
 -120 741 l 2,16,17
 -120 497 -120 497 -341 494 c 1,18,19
 -562 497 -562 497 -562 741 c 2,20,-1
 -562 749 l 1,21,-1
 -545 749 l 1,22,23
 -537 637 -537 637 -447 602 c 1,24,25
 -447 747 -447 747 -341 747 c 0,26,27
 -234 747 -234 747 -234 601 c 1,12,13
EndSplineSet
Ligature2: "'liga' Standard Ligatures in Balinese lookup 357 subtable" _reorder uni1B01
MultipleSubs2: "Multiple Substitution lookup 304 subtable" uni1B01 _reorder
Ligature2: "'liga' Standard Ligatures in Balinese lookup 301 subtable" _reorder uni1B01
MultipleSubs2: "Multiple Substitution lookup 248 subtable" uni1B01 _reorder
Ligature2: "'liga' Standard Ligatures in Balinese lookup 245 subtable" _reorder uni1B01
MultipleSubs2: "Multiple Substitution lookup 192 subtable" uni1B01 _reorder
Ligature2: "'liga' Standard Ligatures in Balinese lookup 183 subtable" _reorder uni1B01
MultipleSubs2: "Multiple Substitution lookup 130 subtable" uni1B01 _reorder
Ligature2: "'liga' Standard Ligatures in Balinese lookup 127 subtable" _reorder uni1B01
MultipleSubs2: "Multiple Substitution lookup 74 subtable" uni1B01 _reorder
Ligature2: "'liga' Standard Ligatures in Balinese lookup 71 subtable" _reorder uni1B01
MultipleSubs2: "Multiple Substitution lookup 18 subtable" uni1B01 _reorder
EndChar

StartChar: uni1B02
Encoding: 6914 6914 7
Width: 0
GlyphClass: 4
Flags: W
AnchorPoint: "Anchor-0" -211 517 mark 0
LayerCount: 2
Fore
SplineSet
-125 542 m 1,0,1
 -172 690 -172 690 -279 795 c 1,2,-1
 -241 854 l 1,3,4
 -182 818 -182 818 -149 728.5 c 128,-1,5
 -116 639 -116 639 -107 546 c 1,6,-1
 -125 542 l 1,0,1
EndSplineSet
Ligature2: "'liga' Standard Ligatures in Balinese lookup 357 subtable" _reorder uni1B02
MultipleSubs2: "Multiple Substitution lookup 305 subtable" uni1B02 _reorder
Ligature2: "'liga' Standard Ligatures in Balinese lookup 301 subtable" _reorder uni1B02
MultipleSubs2: "Multiple Substitution lookup 249 subtable" uni1B02 _reorder
Ligature2: "'liga' Standard Ligatures in Balinese lookup 245 subtable" _reorder uni1B02
MultipleSubs2: "Multiple Substitution lookup 193 subtable" uni1B02 _reorder
Ligature2: "'liga' Standard Ligatures in Balinese lookup 183 subtable" _reorder uni1B02
MultipleSubs2: "Multiple Substitution lookup 131 subtable" uni1B02 _reorder
Ligature2: "'liga' Standard Ligatures in Balinese lookup 127 subtable" _reorder uni1B02
MultipleSubs2: "Multiple Substitution lookup 75 subtable" uni1B02 _reorder
Ligature2: "'liga' Standard Ligatures in Balinese lookup 71 subtable" _reorder uni1B02
MultipleSubs2: "Multiple Substitution lookup 19 subtable" uni1B02 _reorder
EndChar

StartChar: uni1B03
Encoding: 6915 6915 8
Width: 0
GlyphClass: 4
Flags: W
LayerCount: 2
Fore
SplineSet
-118 533 m 1,0,1
 -350 533 -350 533 -475 671 c 1,2,3
 -582 798 -582 798 -605 973 c 1,4,-1
 -525 952 l 1,5,6
 -488 803 -488 803 -413 696 c 0,7,8
 -316 563 -316 563 -112 551 c 1,9,-1
 -118 533 l 1,0,1
EndSplineSet
Ligature2: "'liga' Standard Ligatures in Balinese lookup 357 subtable" _reorder uni1B03
MultipleSubs2: "Multiple Substitution lookup 306 subtable" uni1B03 _reorder
Ligature2: "'liga' Standard Ligatures in Balinese lookup 301 subtable" _reorder uni1B03
MultipleSubs2: "Multiple Substitution lookup 250 subtable" uni1B03 _reorder
Ligature2: "'liga' Standard Ligatures in Balinese lookup 245 subtable" _reorder uni1B03
MultipleSubs2: "Multiple Substitution lookup 194 subtable" uni1B03 _reorder
Ligature2: "'liga' Standard Ligatures in Balinese lookup 183 subtable" _reorder uni1B03
MultipleSubs2: "Multiple Substitution lookup 132 subtable" uni1B03 _reorder
Ligature2: "'liga' Standard Ligatures in Balinese lookup 127 subtable" _reorder uni1B03
MultipleSubs2: "Multiple Substitution lookup 76 subtable" uni1B03 _reorder
Ligature2: "'liga' Standard Ligatures in Balinese lookup 71 subtable" _reorder uni1B03
MultipleSubs2: "Multiple Substitution lookup 20 subtable" uni1B03 _reorder
Ligature2: "Ligature Substitution lookup 3 subtable" uni1B2D uni1B44
Position2: "Single Positioning lookup 309 subtable" dx=-250 dy=0 dh=0 dv=0
Position2: "Single Positioning lookup 308 subtable" dx=-450 dy=50 dh=0 dv=0
Position2: "Single Positioning lookup 307 subtable" dx=-350 dy=0 dh=0 dv=0
Position2: "Single Positioning lookup 306 subtable" dx=-300 dy=0 dh=0 dv=0
Position2: "Single Positioning lookup 305 subtable" dx=-450 dy=0 dh=0 dv=0
Position2: "Single Positioning lookup 304 subtable" dx=-400 dy=30 dh=0 dv=0
Position2: "Single Positioning lookup 303 subtable" dx=0 dy=70 dh=0 dv=0
Position2: "Single Positioning lookup 302 subtable" dx=0 dy=50 dh=0 dv=0
EndChar

StartChar: uni1B04
Encoding: 6916 6916 9
Width: 273
GlyphClass: 2
Flags: W
LayerCount: 2
Fore
SplineSet
186 -799 m 1,0,1
 82 -622 82 -622 82 -451 c 0,2,3
 82 -343 82 -343 124 -232 c 0,4,5
 200 -35 200 -35 200 57 c 0,6,7
 200 98 200 98 185 118 c 0,8,9
 137 183 137 183 43 198 c 1,10,-1
 43 231 l 1,11,-1
 56 231 l 2,12,13
 190 231 190 231 198 292 c 2,14,-1
 199 305 l 2,15,16
 199 355 199 355 141 355 c 0,17,18
 75 354 75 354 55 288 c 1,19,-1
 40 291 l 1,20,-1
 40 303 l 2,21,22
 40 427 40 427 122 438 c 1,23,-1
 150 440 l 1,24,25
 249 440 249 440 249 328 c 0,26,27
 249 237 249 237 160 212 c 1,28,29
 244 178 244 178 244 47 c 0,30,31
 244 -57 244 -57 182 -263 c 0,32,33
 150 -372 150 -372 150 -483 c 0,34,35
 150 -626 150 -626 205 -786 c 1,36,-1
 186 -799 l 1,0,1
EndSplineSet
EndChar

StartChar: uni1B09
Encoding: 6921 6921 14
Width: 578
GlyphClass: 2
Flags: W
AnchorPoint: "Anchor-0" 331 525 basechar 0
LayerCount: 2
Fore
SplineSet
223 -803 m 1,0,1
 -48 -711 -48 -711 -48 -460 c 0,2,3
 -48 -344 -48 -344 27 -241 c 128,-1,4
 102 -138 102 -138 238 -85 c 0,5,6
 368 -34 368 -34 430.5 27.5 c 128,-1,7
 493 89 493 89 493 171 c 0,8,9
 493 335 493 335 333 342 c 0,10,11
 259 342 259 342 223 299 c 128,-1,12
 187 256 187 256 187 190 c 0,13,14
 187 141 187 141 216 96 c 1,15,-1
 194 83 l 1,16,17
 45 166 45 166 45 289 c 1,18,-1
 47 320 l 1,19,-1
 64 325 l 1,20,21
 101 198 101 198 158 161 c 1,22,23
 143 201 143 201 143 240 c 0,24,25
 143 297 143 297 175 351 c 0,26,27
 228 440 228 440 332 440 c 0,28,29
 528 437 528 437 528 177 c 0,30,31
 528 43 528 43 468.5 -48.5 c 128,-1,32
 409 -140 409 -140 291 -179 c 0,33,34
 -7 -279 -7 -279 -7 -472 c 0,35,36
 -7 -650 -7 -650 175 -740 c 1,37,38
 147 -691 147 -691 147 -638 c 0,39,40
 147 -435 147 -435 385 -429 c 1,41,-1
 397 -429 l 1,42,-1
 391 -528 l 1,43,44
 183 -531 183 -531 183 -664 c 0,45,46
 183 -722 183 -722 229 -794 c 1,47,-1
 223 -803 l 1,0,1
698 -799 m 1,48,49
 624 -531 624 -531 391 -528 c 1,50,-1
 385 -429 l 1,51,-1
 397 -429 l 1,52,53
 541 -434 541 -434 609 -525.5 c 128,-1,54
 677 -617 677 -617 717 -791 c 1,55,-1
 698 -799 l 1,48,49
EndSplineSet
Position2: "Single Positioning lookup 90 subtable" dx=163 dy=0 dh=163 dv=0
Position2: "Single Positioning lookup 81 subtable" dx=173 dy=0 dh=173 dv=0
Position2: "Single Positioning lookup 72 subtable" dx=193 dy=0 dh=193 dv=0
Position2: "Single Positioning lookup 63 subtable" dx=295 dy=0 dh=295 dv=0
Position2: "Single Positioning lookup 54 subtable" dx=256 dy=0 dh=256 dv=0
EndChar

StartChar: uni1B0F
Encoding: 6927 6927 20
Width: 554
GlyphClass: 2
Flags: W
AnchorPoint: "Anchor-0" 311 535 basechar 0
LayerCount: 2
Fore
SplineSet
476 -3 m 1,0,-1
 468 2 l 1,1,2
 486 43 486 43 486 77 c 0,3,4
 486 172 486 172 354 176 c 1,5,6
 193 175 193 175 193 66 c 0,7,8
 193 37 193 37 209 7 c 1,9,-1
 202 -1 l 1,10,11
 54 25 54 25 31 161 c 1,12,-1
 30 184 l 1,13,14
 30 399 30 399 298 458 c 1,15,-1
 304 447 l 1,16,17
 61 321 61 321 61 163 c 1,18,19
 67 90 67 90 167 74 c 1,20,-1
 166 96 l 2,21,22
 166 170 166 170 213.5 219.5 c 128,-1,23
 261 269 261 269 354 269 c 0,24,25
 443 269 443 269 485 225 c 128,-1,26
 527 181 527 181 527 113 c 0,27,28
 527 49 527 49 476 -3 c 1,0,-1
EndSplineSet
EndChar

StartChar: uni1B10
Encoding: 6928 6928 21
Width: 1108
GlyphClass: 2
Flags: W
AnchorPoint: "Anchor-0" 477 525 basechar 0
LayerCount: 2
Fore
SplineSet
732 -805 m 1,0,1
 716 -746 716 -746 661 -663 c 128,-1,2
 606 -580 606 -580 538 -580 c 0,3,4
 463 -580 463 -580 405.5 -691.5 c 128,-1,5
 348 -803 348 -803 230 -805 c 0,6,7
 15 -803 15 -803 15 -498 c 0,8,9
 15 -372 15 -372 73 -277 c 0,10,11
 151 -146 151 -146 437.5 -105.5 c 128,-1,12
 724 -65 724 -65 742 159 c 1,13,14
 742 333 742 333 633 342 c 1,15,-1
 608 342 l 1,16,17
 528 333 528 333 480 270 c 1,18,-1
 478 270 l 1,19,20
 430 333 430 333 350 342 c 1,21,-1
 326 342 l 1,22,23
 241 335 241 335 222 246 c 1,24,-1
 220 202 l 1,25,26
 220 77 220 77 305 9 c 1,27,-1
 295 -5 l 1,28,29
 219 11 219 11 152 41 c 0,30,31
 70 76 70 76 70 163 c 0,32,33
 70 212 70 212 100 268 c 0,34,35
 125 308 125 308 125 328 c 0,36,37
 125 346 125 346 103 346 c 0,38,39
 68 346 68 346 68 297 c 0,40,41
 68 280 68 280 73 256 c 1,42,-1
 59 254 l 1,43,44
 45 291 45 291 45 328 c 0,45,46
 45 440 45 440 119 440 c 1,47,48
 180 436 180 436 180 378 c 0,49,50
 180 342 180 342 144 287 c 128,-1,51
 108 232 108 232 108 195 c 0,52,53
 108 135 108 135 204 100 c 1,54,55
 189 135 189 135 185 194 c 1,56,57
 188 434 188 434 323 439 c 0,58,59
 378 439 378 439 415 410 c 128,-1,60
 452 381 452 381 479 323 c 1,61,62
 505 379 505 379 539.5 409 c 128,-1,63
 574 439 574 439 636 439 c 0,64,65
 772 433 772 433 772 168 c 2,66,-1
 772 151 l 2,67,68
 772 -155 772 -155 494 -191 c 0,69,70
 246 -224 246 -224 151 -296.5 c 128,-1,71
 56 -369 56 -369 56 -496 c 0,72,73
 56 -707 56 -707 230 -707 c 0,74,75
 368 -707 368 -707 412.5 -601 c 128,-1,76
 457 -495 457 -495 558 -492 c 0,77,78
 655 -493 655 -493 717.5 -565 c 128,-1,79
 780 -637 780 -637 802 -707 c 1,80,81
 1002 -707 1002 -707 1004 -384 c 2,82,-1
 1004 190 l 1,83,-1
 1035 193 l 1,84,-1
 1035 -437 l 2,85,86
 1035 -803 1035 -803 732 -805 c 1,0,1
920 383 m 0,87,88
 942 383 942 383 964 390 c 1,89,90
 921 481 921 481 864 481 c 0,91,92
 824 479 824 479 824 445 c 0,93,94
 824 419 824 419 851 401 c 128,-1,95
 878 383 878 383 920 383 c 0,87,88
1035 -115 m 1,96,-1
 1004 -84 l 1,97,-1
 1004 190 l 2,98,99
 1004 265 1004 265 994 297 c 1,100,-1
 958 293 l 1,101,102
 876 295 876 295 832 332.5 c 128,-1,103
 788 370 788 370 785 419 c 2,104,-1
 785 431 l 2,105,106
 785 512 785 512 864 512 c 0,107,108
 941 512 941 512 994 400 c 1,109,110
 1074 443 1074 443 1104 529 c 1,111,-1
 1116 529 l 1,112,-1
 1118 492 l 1,113,114
 1118 373 1118 373 1026 316 c 1,115,116
 1035 271 1035 271 1035 193 c 2,117,-1
 1035 -115 l 1,96,-1
EndSplineSet
Position2: "Single Positioning lookup 92 subtable" dx=100 dy=0 dh=100 dv=0
Position2: "Single Positioning lookup 83 subtable" dx=110 dy=0 dh=110 dv=0
Position2: "Single Positioning lookup 74 subtable" dx=130 dy=0 dh=130 dv=0
Position2: "Single Positioning lookup 65 subtable" dx=232 dy=0 dh=232 dv=0
Position2: "Single Positioning lookup 56 subtable" dx=193 dy=0 dh=193 dv=0
EndChar

StartChar: uni1B11
Encoding: 6929 6929 22
Width: 822
GlyphClass: 2
Flags: W
AnchorPoint: "Anchor-0" 462 525 basechar 0
LayerCount: 2
Fore
SplineSet
766 -799 m 1,0,1
 692 -531 692 -531 459 -528 c 1,2,3
 252 -531 252 -531 252 -665 c 0,4,5
 252 -722 252 -722 297 -794 c 1,6,-1
 292 -803 l 1,7,8
 21 -711 21 -711 21 -460 c 0,9,10
 21 -363 21 -363 73 -277 c 0,11,12
 151 -146 151 -146 442.5 -105.5 c 128,-1,13
 734 -65 734 -65 742 159 c 1,14,15
 742 333 742 333 633 342 c 1,16,-1
 608 342 l 1,17,18
 528 333 528 333 480 270 c 1,19,-1
 478 270 l 1,20,21
 430 333 430 333 350 342 c 1,22,-1
 326 342 l 1,23,24
 241 335 241 335 222 246 c 1,25,-1
 220 202 l 1,26,27
 220 77 220 77 305 9 c 1,28,-1
 295 -5 l 1,29,30
 219 11 219 11 152 41 c 0,31,32
 70 76 70 76 70 163 c 0,33,34
 70 212 70 212 100 268 c 0,35,36
 125 308 125 308 125 328 c 0,37,38
 125 346 125 346 103 346 c 0,39,40
 68 346 68 346 68 297 c 0,41,42
 68 280 68 280 73 256 c 1,43,-1
 59 254 l 1,44,45
 45 291 45 291 45 328 c 0,46,47
 45 440 45 440 119 440 c 1,48,49
 180 436 180 436 180 378 c 0,50,51
 180 342 180 342 144 287 c 128,-1,52
 108 232 108 232 108 195 c 0,53,54
 108 135 108 135 204 100 c 1,55,56
 189 135 189 135 185 194 c 1,57,58
 188 434 188 434 323 439 c 0,59,60
 378 439 378 439 415 410 c 128,-1,61
 452 381 452 381 479 323 c 1,62,63
 505 379 505 379 539.5 409 c 128,-1,64
 574 439 574 439 636 439 c 0,65,66
 772 433 772 433 772 168 c 2,67,-1
 772 151 l 2,68,69
 772 -155 772 -155 494 -191 c 0,70,71
 260 -222 260 -222 160.5 -289.5 c 128,-1,72
 61 -357 61 -357 61 -470 c 0,73,74
 61 -650 61 -650 244 -740 c 1,75,76
 216 -691 216 -691 216 -638 c 0,77,78
 216 -589 216 -589 239 -538 c 0,79,80
 285 -433 285 -433 453 -429 c 1,81,-1
 465 -429 l 1,82,83
 609 -434 609 -434 677 -525.5 c 128,-1,84
 745 -617 745 -617 785 -791 c 1,85,-1
 766 -799 l 1,0,1
EndSplineSet
Position2: "Single Positioning lookup 93 subtable" dx=94 dy=0 dh=94 dv=0
Position2: "Single Positioning lookup 84 subtable" dx=104 dy=0 dh=104 dv=0
Position2: "Single Positioning lookup 75 subtable" dx=124 dy=0 dh=124 dv=0
Position2: "Single Positioning lookup 66 subtable" dx=226 dy=0 dh=226 dv=0
Position2: "Single Positioning lookup 57 subtable" dx=187 dy=0 dh=187 dv=0
EndChar

StartChar: uni1B13
Encoding: 6931 6931 24
Width: 962
GlyphClass: 2
Flags: W
AnchorPoint: "Anchor-3" 528 0 basechar 0
AnchorPoint: "Anchor-0" 491 525 basechar 0
LayerCount: 2
Fore
SplineSet
441 20 m 1,0,1
 523 20 523 20 523 71 c 0,2,3
 521 104 521 104 452.5 128 c 128,-1,4
 384 152 384 152 306 155 c 1,5,-1
 306 150 l 2,6,7
 306 106 306 106 332 69.5 c 128,-1,8
 358 33 358 33 413 22 c 1,9,-1
 441 20 l 1,0,1
127 29 m 2,10,-1
 138 30 l 1,11,12
 181 40 181 40 187 149 c 1,13,14
 104 136 104 136 96 69 c 1,15,16
 96 29 96 29 127 29 c 2,10,-1
449 -9 m 0,17,18
 369 -9 369 -9 325 30 c 0,19,20
 272 76 272 76 270 158 c 1,21,22
 245 158 245 158 216 155 c 1,23,24
 213 -2 213 -2 129 -2 c 0,25,26
 62 -2 62 -2 56 70 c 1,27,28
 56 134 56 134 97.5 173.5 c 128,-1,29
 139 213 139 213 188 221 c 1,30,-1
 188 252 l 1,31,32
 182 348 182 348 131 348 c 0,33,34
 85 348 85 348 85 287 c 0,35,36
 86 249 86 249 100 219 c 1,37,-1
 83 213 l 1,38,39
 45 269 45 269 45 346 c 0,40,41
 45 438 45 438 122 438 c 0,42,43
 214 436 214 436 214 285 c 2,44,-1
 214 228 l 1,45,46
 236 232 236 232 271 234 c 1,47,-1
 271 244 l 2,48,49
 273 438 273 438 493 440 c 0,50,51
 712 438 712 438 717 198 c 1,52,-1
 717 131 l 2,53,54
 717 63 717 63 740 60 c 1,55,56
 763 63 763 63 764 131 c 2,57,-1
 764 442 l 1,58,59
 907 431 907 431 912 273 c 1,60,-1
 912 0 l 1,61,-1
 882 0 l 1,62,-1
 882 198 l 2,63,64
 879 333 879 333 795 342 c 1,65,-1
 795 158 l 2,66,67
 795 1 795 1 741 0 c 0,68,69
 687 1 687 1 686 158 c 2,70,-1
 686 188 l 2,71,72
 684 342 684 342 494 342 c 0,73,74
 309 342 309 342 309 236 c 1,75,76
 430 234 430 234 502.5 193.5 c 128,-1,77
 575 153 575 153 575 92 c 0,78,79
 572 46 572 46 538.5 18.5 c 128,-1,80
 505 -9 505 -9 449 -9 c 0,17,18
EndSplineSet
MultipleSubs2: "Multiple Substitution lookup 311 subtable" uni1B13 _reorder
MultipleSubs2: "Multiple Substitution lookup 255 subtable" uni1B13 _reorder
MultipleSubs2: "Multiple Substitution lookup 199 subtable" uni1B13 _reorder
MultipleSubs2: "Multiple Substitution lookup 137 subtable" uni1B13 _reorder
MultipleSubs2: "Multiple Substitution lookup 81 subtable" uni1B13 _reorder
MultipleSubs2: "Multiple Substitution lookup 25 subtable" uni1B13 _reorder
Position2: "Single Positioning lookup 299 subtable" dx=115 dy=0 dh=115 dv=0
Position2: "Single Positioning lookup 298 subtable" dx=115 dy=0 dh=115 dv=0
Position2: "Single Positioning lookup 291 subtable" dx=115 dy=0 dh=115 dv=0
Position2: "Single Positioning lookup 287 subtable" dx=115 dy=0 dh=115 dv=0
Position2: "Single Positioning lookup 286 subtable" dx=115 dy=0 dh=115 dv=0
Position2: "Single Positioning lookup 277 subtable" dx=115 dy=0 dh=115 dv=0
Position2: "Single Positioning lookup 272 subtable" dx=115 dy=0 dh=115 dv=0
Position2: "Single Positioning lookup 269 subtable" dx=115 dy=0 dh=115 dv=0
Position2: "Single Positioning lookup 266 subtable" dx=115 dy=0 dh=115 dv=0
Position2: "Single Positioning lookup 263 subtable" dx=115 dy=0 dh=115 dv=0
Position2: "Single Positioning lookup 260 subtable" dx=125 dy=0 dh=125 dv=0
Position2: "Single Positioning lookup 259 subtable" dx=125 dy=0 dh=125 dv=0
Position2: "Single Positioning lookup 257 subtable" dx=125 dy=0 dh=125 dv=0
Position2: "Single Positioning lookup 254 subtable" dx=125 dy=0 dh=125 dv=0
Position2: "Single Positioning lookup 251 subtable" dx=125 dy=0 dh=125 dv=0
Position2: "Single Positioning lookup 247 subtable" dx=125 dy=0 dh=125 dv=0
Position2: "Single Positioning lookup 246 subtable" dx=125 dy=0 dh=125 dv=0
Position2: "Single Positioning lookup 237 subtable" dx=125 dy=0 dh=125 dv=0
Position2: "Single Positioning lookup 232 subtable" dx=125 dy=0 dh=125 dv=0
Position2: "Single Positioning lookup 229 subtable" dx=125 dy=0 dh=125 dv=0
Position2: "Single Positioning lookup 226 subtable" dx=125 dy=0 dh=125 dv=0
Position2: "Single Positioning lookup 223 subtable" dx=125 dy=0 dh=125 dv=0
Position2: "Single Positioning lookup 220 subtable" dx=145 dy=0 dh=145 dv=0
Position2: "Single Positioning lookup 219 subtable" dx=145 dy=0 dh=145 dv=0
Position2: "Single Positioning lookup 217 subtable" dx=145 dy=0 dh=145 dv=0
Position2: "Single Positioning lookup 214 subtable" dx=145 dy=0 dh=145 dv=0
Position2: "Single Positioning lookup 211 subtable" dx=145 dy=0 dh=145 dv=0
Position2: "Single Positioning lookup 207 subtable" dx=145 dy=0 dh=145 dv=0
Position2: "Single Positioning lookup 206 subtable" dx=145 dy=0 dh=145 dv=0
Position2: "Single Positioning lookup 197 subtable" dx=145 dy=0 dh=145 dv=0
Position2: "Single Positioning lookup 192 subtable" dx=145 dy=0 dh=145 dv=0
Position2: "Single Positioning lookup 189 subtable" dx=145 dy=0 dh=145 dv=0
Position2: "Single Positioning lookup 186 subtable" dx=145 dy=0 dh=145 dv=0
Position2: "Single Positioning lookup 183 subtable" dx=145 dy=0 dh=145 dv=0
Position2: "Single Positioning lookup 180 subtable" dx=247 dy=0 dh=247 dv=0
Position2: "Single Positioning lookup 179 subtable" dx=247 dy=0 dh=247 dv=0
Position2: "Single Positioning lookup 178 subtable" dx=247 dy=0 dh=247 dv=0
Position2: "Single Positioning lookup 177 subtable" dx=247 dy=0 dh=247 dv=0
Position2: "Single Positioning lookup 173 subtable" dx=247 dy=0 dh=247 dv=0
Position2: "Single Positioning lookup 172 subtable" dx=247 dy=0 dh=247 dv=0
Position2: "Single Positioning lookup 171 subtable" dx=247 dy=0 dh=247 dv=0
Position2: "Single Positioning lookup 170 subtable" dx=247 dy=0 dh=247 dv=0
Position2: "Single Positioning lookup 167 subtable" dx=247 dy=0 dh=247 dv=0
Position2: "Single Positioning lookup 166 subtable" dx=247 dy=0 dh=247 dv=0
Position2: "Single Positioning lookup 165 subtable" dx=247 dy=0 dh=247 dv=0
Position2: "Single Positioning lookup 159 subtable" dx=247 dy=0 dh=247 dv=0
Position2: "Single Positioning lookup 156 subtable" dx=247 dy=0 dh=247 dv=0
Position2: "Single Positioning lookup 155 subtable" dx=247 dy=0 dh=247 dv=0
Position2: "Single Positioning lookup 152 subtable" dx=247 dy=0 dh=247 dv=0
Position2: "Single Positioning lookup 151 subtable" dx=247 dy=0 dh=247 dv=0
Position2: "Single Positioning lookup 148 subtable" dx=247 dy=0 dh=247 dv=0
Position2: "Single Positioning lookup 147 subtable" dx=247 dy=0 dh=247 dv=0
Position2: "Single Positioning lookup 146 subtable" dx=247 dy=0 dh=247 dv=0
Position2: "Single Positioning lookup 145 subtable" dx=247 dy=0 dh=247 dv=0
Position2: "Single Positioning lookup 144 subtable" dx=247 dy=0 dh=247 dv=0
Position2: "Single Positioning lookup 142 subtable" dx=247 dy=0 dh=247 dv=0
Position2: "Single Positioning lookup 141 subtable" dx=247 dy=0 dh=247 dv=0
Position2: "Single Positioning lookup 140 subtable" dx=247 dy=0 dh=247 dv=0
Position2: "Single Positioning lookup 139 subtable" dx=208 dy=0 dh=208 dv=0
Position2: "Single Positioning lookup 138 subtable" dx=208 dy=0 dh=208 dv=0
Position2: "Single Positioning lookup 136 subtable" dx=208 dy=0 dh=208 dv=0
Position2: "Single Positioning lookup 132 subtable" dx=208 dy=0 dh=208 dv=0
Position2: "Single Positioning lookup 131 subtable" dx=208 dy=0 dh=208 dv=0
Position2: "Single Positioning lookup 130 subtable" dx=208 dy=0 dh=208 dv=0
Position2: "Single Positioning lookup 129 subtable" dx=208 dy=0 dh=208 dv=0
Position2: "Single Positioning lookup 126 subtable" dx=208 dy=0 dh=208 dv=0
Position2: "Single Positioning lookup 125 subtable" dx=208 dy=0 dh=208 dv=0
Position2: "Single Positioning lookup 124 subtable" dx=208 dy=0 dh=208 dv=0
Position2: "Single Positioning lookup 115 subtable" dx=208 dy=0 dh=208 dv=0
Position2: "Single Positioning lookup 110 subtable" dx=208 dy=0 dh=208 dv=0
Position2: "Single Positioning lookup 107 subtable" dx=208 dy=0 dh=208 dv=0
Position2: "Single Positioning lookup 106 subtable" dx=208 dy=0 dh=208 dv=0
Position2: "Single Positioning lookup 105 subtable" dx=208 dy=0 dh=208 dv=0
Position2: "Single Positioning lookup 104 subtable" dx=208 dy=0 dh=208 dv=0
Position2: "Single Positioning lookup 103 subtable" dx=208 dy=0 dh=208 dv=0
Position2: "Single Positioning lookup 101 subtable" dx=208 dy=0 dh=208 dv=0
Position2: "Single Positioning lookup 99 subtable" dx=208 dy=0 dh=208 dv=0
Position2: "Single Positioning lookup 48 subtable" dx=56 dy=0 dh=56 dv=0
Position2: "Single Positioning lookup 44 subtable" dx=0 dy=0 dh=220 dv=0
Position2: "Single Positioning lookup 43 subtable" dx=126 dy=0 dh=126 dv=0
Position2: "Single Positioning lookup 42 subtable" dx=0 dy=0 dh=270 dv=0
Position2: "Single Positioning lookup 41 subtable" dx=177 dy=0 dh=177 dv=0
Position2: "Single Positioning lookup 29 subtable" dx=14 dy=0 dh=14 dv=0
Position2: "Single Positioning lookup 14 subtable" dx=0 dy=0 dh=149 dv=0
Position2: "Single Positioning lookup 13 subtable" dx=55 dy=0 dh=55 dv=0
Position2: "Single Positioning lookup 4 subtable" dx=93 dy=0 dh=93 dv=0
EndChar

StartChar: uni1B14
Encoding: 6932 6932 25
Width: 1157
GlyphClass: 2
Flags: W
AnchorPoint: "Anchor-3" 595 0 basechar 0
AnchorPoint: "Anchor-0" 410 525 basechar 0
LayerCount: 2
Fore
SplineSet
442 20 m 1,0,1
 523 20 523 20 523 69 c 2,2,-1
 523 72 l 2,3,4
 521 104 521 104 453 128 c 128,-1,5
 385 152 385 152 306 155 c 1,6,7
 306 109 306 109 332 71 c 128,-1,8
 358 33 358 33 414 22 c 1,9,-1
 442 20 l 1,0,1
1138 160 m 1,10,11
 993 4 993 4 854 -3 c 1,12,13
 689 -3 689 -3 687 158 c 2,14,-1
 687 188 l 2,15,16
 684 342 684 342 494 342 c 0,17,18
 310 342 310 342 310 237 c 2,19,-1
 310 235 l 1,20,21
 431 234 431 234 503.5 193 c 128,-1,22
 576 152 576 152 576 92 c 0,23,24
 573 45 573 45 538.5 18 c 128,-1,25
 504 -9 504 -9 450 -9 c 0,26,27
 362 -9 362 -9 317.5 37 c 128,-1,28
 273 83 273 83 271 158 c 1,29,30
 246 158 246 158 215 155 c 1,31,-1
 214 228 l 1,32,33
 236 232 236 232 272 234 c 1,34,-1
 272 244 l 2,35,36
 274 438 274 438 494 440 c 0,37,38
 713 438 713 438 717 198 c 1,39,-1
 717 178 l 2,40,41
 719 93 719 93 849 93 c 0,42,43
 883 93 883 93 956.5 109 c 128,-1,44
 1030 125 1030 125 1128 172 c 1,45,-1
 1138 160 l 1,10,11
127 29 m 2,46,-1
 138 30 l 1,47,48
 181 40 181 40 187 149 c 1,49,50
 104 136 104 136 96 69 c 1,51,52
 96 29 96 29 127 29 c 2,46,-1
216 155 m 1,53,54
 213 -2 213 -2 129 -2 c 0,55,56
 62 -2 62 -2 56 70 c 1,57,58
 56 134 56 134 97.5 173.5 c 128,-1,59
 139 213 139 213 188 221 c 1,60,-1
 188 252 l 1,61,62
 182 348 182 348 131 348 c 0,63,64
 85 348 85 348 85 287 c 0,65,66
 86 249 86 249 100 219 c 1,67,-1
 83 213 l 1,68,69
 45 269 45 269 45 346 c 0,70,71
 45 438 45 438 122 438 c 0,72,73
 214 436 214 436 214 285 c 2,74,-1
 214 228 l 1,75,-1
 216 155 l 1,53,54
EndSplineSet
MultipleSubs2: "Multiple Substitution lookup 312 subtable" uni1B14 _reorder
MultipleSubs2: "Multiple Substitution lookup 256 subtable" uni1B14 _reorder
MultipleSubs2: "Multiple Substitution lookup 200 subtable" uni1B14 _reorder
MultipleSubs2: "Multiple Substitution lookup 138 subtable" uni1B14 _reorder
MultipleSubs2: "Multiple Substitution lookup 82 subtable" uni1B14 _reorder
MultipleSubs2: "Multiple Substitution lookup 26 subtable" uni1B14 _reorder
Position2: "Single Positioning lookup 299 subtable" dx=115 dy=0 dh=115 dv=0
Position2: "Single Positioning lookup 298 subtable" dx=115 dy=0 dh=115 dv=0
Position2: "Single Positioning lookup 272 subtable" dx=115 dy=0 dh=115 dv=0
Position2: "Single Positioning lookup 263 subtable" dx=115 dy=0 dh=115 dv=0
Position2: "Single Positioning lookup 260 subtable" dx=125 dy=0 dh=125 dv=0
Position2: "Single Positioning lookup 259 subtable" dx=125 dy=0 dh=125 dv=0
Position2: "Single Positioning lookup 232 subtable" dx=125 dy=0 dh=125 dv=0
Position2: "Single Positioning lookup 223 subtable" dx=125 dy=0 dh=125 dv=0
Position2: "Single Positioning lookup 220 subtable" dx=145 dy=0 dh=145 dv=0
Position2: "Single Positioning lookup 219 subtable" dx=145 dy=0 dh=145 dv=0
Position2: "Single Positioning lookup 192 subtable" dx=145 dy=0 dh=145 dv=0
Position2: "Single Positioning lookup 183 subtable" dx=145 dy=0 dh=145 dv=0
Position2: "Single Positioning lookup 180 subtable" dx=247 dy=0 dh=247 dv=0
Position2: "Single Positioning lookup 179 subtable" dx=247 dy=0 dh=247 dv=0
Position2: "Single Positioning lookup 170 subtable" dx=247 dy=0 dh=247 dv=0
Position2: "Single Positioning lookup 166 subtable" dx=247 dy=0 dh=247 dv=0
Position2: "Single Positioning lookup 151 subtable" dx=247 dy=0 dh=247 dv=0
Position2: "Single Positioning lookup 142 subtable" dx=247 dy=0 dh=247 dv=0
Position2: "Single Positioning lookup 139 subtable" dx=208 dy=0 dh=208 dv=0
Position2: "Single Positioning lookup 138 subtable" dx=208 dy=0 dh=208 dv=0
Position2: "Single Positioning lookup 125 subtable" dx=208 dy=0 dh=208 dv=0
Position2: "Single Positioning lookup 110 subtable" dx=208 dy=0 dh=208 dv=0
Position2: "Single Positioning lookup 101 subtable" dx=208 dy=0 dh=208 dv=0
Position2: "Single Positioning lookup 44 subtable" dx=0 dy=0 dh=92 dv=0
Position2: "Single Positioning lookup 43 subtable" dx=59 dy=0 dh=59 dv=0
Position2: "Single Positioning lookup 42 subtable" dx=0 dy=0 dh=142 dv=0
Position2: "Single Positioning lookup 41 subtable" dx=110 dy=0 dh=110 dv=0
Position2: "Single Positioning lookup 14 subtable" dx=0 dy=0 dh=21 dv=0
EndChar

StartChar: uni1B15
Encoding: 6933 6933 26
Width: 872
GlyphClass: 2
Flags: W
AnchorPoint: "Anchor-3" 453 0 basechar 0
AnchorPoint: "Anchor-0" 426 525 basechar 0
LayerCount: 2
Fore
SplineSet
526 -11 m 1,0,-1
 522 2 l 1,1,2
 587 50 587 50 594 184 c 1,3,4
 594 333 594 333 411 342 c 1,5,-1
 399 342 l 1,6,7
 241 335 241 335 222 197 c 1,8,-1
 220 166 l 1,9,10
 220 77 220 77 305 9 c 1,11,-1
 295 -5 l 1,12,13
 219 11 219 11 152 41 c 0,14,15
 70 76 70 76 70 163 c 0,16,17
 70 212 70 212 100 268 c 0,18,19
 125 308 125 308 125 328 c 0,20,21
 125 346 125 346 103 346 c 0,22,23
 68 346 68 346 68 297 c 0,24,25
 68 280 68 280 73 256 c 1,26,-1
 59 254 l 1,27,28
 45 291 45 291 45 328 c 0,29,30
 45 440 45 440 119 440 c 1,31,32
 180 436 180 436 180 378 c 0,33,34
 180 342 180 342 143.5 287 c 128,-1,35
 107 232 107 232 107 194 c 0,36,37
 107 135 107 135 204 100 c 1,38,39
 189 135 189 135 185 194 c 1,40,41
 188 434 188 434 396 439 c 1,42,-1
 414 439 l 1,43,44
 624 433 624 433 624 186 c 1,45,46
 618 102 618 102 596 51 c 1,47,48
 666 86 666 86 674 234 c 1,49,-1
 674 442 l 1,50,51
 817 431 817 431 822 273 c 1,52,-1
 822 0 l 1,53,-1
 792 0 l 1,54,-1
 792 198 l 2,55,56
 789 333 789 333 705 342 c 1,57,-1
 705 226 l 1,58,59
 695 13 695 13 526 -11 c 1,0,-1
EndSplineSet
MultipleSubs2: "Multiple Substitution lookup 313 subtable" uni1B15 _reorder
MultipleSubs2: "Multiple Substitution lookup 257 subtable" uni1B15 _reorder
MultipleSubs2: "Multiple Substitution lookup 201 subtable" uni1B15 _reorder
MultipleSubs2: "Multiple Substitution lookup 139 subtable" uni1B15 _reorder
MultipleSubs2: "Multiple Substitution lookup 83 subtable" uni1B15 _reorder
MultipleSubs2: "Multiple Substitution lookup 27 subtable" uni1B15 _reorder
Position2: "Single Positioning lookup 299 subtable" dx=115 dy=0 dh=115 dv=0
Position2: "Single Positioning lookup 298 subtable" dx=115 dy=0 dh=115 dv=0
Position2: "Single Positioning lookup 296 subtable" dx=115 dy=0 dh=115 dv=0
Position2: "Single Positioning lookup 294 subtable" dx=115 dy=0 dh=115 dv=0
Position2: "Single Positioning lookup 293 subtable" dx=115 dy=0 dh=115 dv=0
Position2: "Single Positioning lookup 292 subtable" dx=115 dy=0 dh=115 dv=0
Position2: "Single Positioning lookup 291 subtable" dx=115 dy=0 dh=115 dv=0
Position2: "Single Positioning lookup 288 subtable" dx=115 dy=0 dh=115 dv=0
Position2: "Single Positioning lookup 287 subtable" dx=115 dy=0 dh=115 dv=0
Position2: "Single Positioning lookup 286 subtable" dx=115 dy=0 dh=115 dv=0
Position2: "Single Positioning lookup 277 subtable" dx=115 dy=0 dh=115 dv=0
Position2: "Single Positioning lookup 272 subtable" dx=115 dy=0 dh=115 dv=0
Position2: "Single Positioning lookup 269 subtable" dx=115 dy=0 dh=115 dv=0
Position2: "Single Positioning lookup 268 subtable" dx=115 dy=0 dh=115 dv=0
Position2: "Single Positioning lookup 267 subtable" dx=115 dy=0 dh=115 dv=0
Position2: "Single Positioning lookup 266 subtable" dx=115 dy=0 dh=115 dv=0
Position2: "Single Positioning lookup 265 subtable" dx=115 dy=0 dh=115 dv=0
Position2: "Single Positioning lookup 263 subtable" dx=115 dy=0 dh=115 dv=0
Position2: "Single Positioning lookup 261 subtable" dx=115 dy=0 dh=115 dv=0
Position2: "Single Positioning lookup 260 subtable" dx=125 dy=0 dh=125 dv=0
Position2: "Single Positioning lookup 259 subtable" dx=125 dy=0 dh=125 dv=0
Position2: "Single Positioning lookup 257 subtable" dx=125 dy=0 dh=125 dv=0
Position2: "Single Positioning lookup 254 subtable" dx=125 dy=0 dh=125 dv=0
Position2: "Single Positioning lookup 253 subtable" dx=125 dy=0 dh=125 dv=0
Position2: "Single Positioning lookup 252 subtable" dx=125 dy=0 dh=125 dv=0
Position2: "Single Positioning lookup 251 subtable" dx=125 dy=0 dh=125 dv=0
Position2: "Single Positioning lookup 248 subtable" dx=125 dy=0 dh=125 dv=0
Position2: "Single Positioning lookup 247 subtable" dx=125 dy=0 dh=125 dv=0
Position2: "Single Positioning lookup 246 subtable" dx=125 dy=0 dh=125 dv=0
Position2: "Single Positioning lookup 237 subtable" dx=125 dy=0 dh=125 dv=0
Position2: "Single Positioning lookup 236 subtable" dx=125 dy=0 dh=125 dv=0
Position2: "Single Positioning lookup 232 subtable" dx=125 dy=0 dh=125 dv=0
Position2: "Single Positioning lookup 229 subtable" dx=125 dy=0 dh=125 dv=0
Position2: "Single Positioning lookup 228 subtable" dx=125 dy=0 dh=125 dv=0
Position2: "Single Positioning lookup 227 subtable" dx=125 dy=0 dh=125 dv=0
Position2: "Single Positioning lookup 226 subtable" dx=125 dy=0 dh=125 dv=0
Position2: "Single Positioning lookup 225 subtable" dx=125 dy=0 dh=125 dv=0
Position2: "Single Positioning lookup 223 subtable" dx=125 dy=0 dh=125 dv=0
Position2: "Single Positioning lookup 221 subtable" dx=125 dy=0 dh=125 dv=0
Position2: "Single Positioning lookup 220 subtable" dx=145 dy=0 dh=145 dv=0
Position2: "Single Positioning lookup 219 subtable" dx=145 dy=0 dh=145 dv=0
Position2: "Single Positioning lookup 218 subtable" dx=145 dy=0 dh=145 dv=0
Position2: "Single Positioning lookup 217 subtable" dx=145 dy=0 dh=145 dv=0
Position2: "Single Positioning lookup 214 subtable" dx=145 dy=0 dh=145 dv=0
Position2: "Single Positioning lookup 213 subtable" dx=145 dy=0 dh=145 dv=0
Position2: "Single Positioning lookup 212 subtable" dx=145 dy=0 dh=145 dv=0
Position2: "Single Positioning lookup 211 subtable" dx=145 dy=0 dh=145 dv=0
Position2: "Single Positioning lookup 208 subtable" dx=145 dy=0 dh=145 dv=0
Position2: "Single Positioning lookup 207 subtable" dx=145 dy=0 dh=145 dv=0
Position2: "Single Positioning lookup 206 subtable" dx=145 dy=0 dh=145 dv=0
Position2: "Single Positioning lookup 200 subtable" dx=145 dy=0 dh=145 dv=0
Position2: "Single Positioning lookup 197 subtable" dx=145 dy=0 dh=145 dv=0
Position2: "Single Positioning lookup 196 subtable" dx=145 dy=0 dh=145 dv=0
Position2: "Single Positioning lookup 193 subtable" dx=145 dy=0 dh=145 dv=0
Position2: "Single Positioning lookup 192 subtable" dx=145 dy=0 dh=145 dv=0
Position2: "Single Positioning lookup 189 subtable" dx=145 dy=0 dh=145 dv=0
Position2: "Single Positioning lookup 188 subtable" dx=145 dy=0 dh=145 dv=0
Position2: "Single Positioning lookup 187 subtable" dx=145 dy=0 dh=145 dv=0
Position2: "Single Positioning lookup 186 subtable" dx=145 dy=0 dh=145 dv=0
Position2: "Single Positioning lookup 185 subtable" dx=145 dy=0 dh=145 dv=0
Position2: "Single Positioning lookup 183 subtable" dx=145 dy=0 dh=145 dv=0
Position2: "Single Positioning lookup 181 subtable" dx=145 dy=0 dh=145 dv=0
Position2: "Single Positioning lookup 180 subtable" dx=247 dy=0 dh=247 dv=0
Position2: "Single Positioning lookup 179 subtable" dx=247 dy=0 dh=247 dv=0
Position2: "Single Positioning lookup 178 subtable" dx=247 dy=0 dh=247 dv=0
Position2: "Single Positioning lookup 177 subtable" dx=247 dy=0 dh=247 dv=0
Position2: "Single Positioning lookup 173 subtable" dx=247 dy=0 dh=247 dv=0
Position2: "Single Positioning lookup 172 subtable" dx=247 dy=0 dh=247 dv=0
Position2: "Single Positioning lookup 171 subtable" dx=247 dy=0 dh=247 dv=0
Position2: "Single Positioning lookup 170 subtable" dx=247 dy=0 dh=247 dv=0
Position2: "Single Positioning lookup 167 subtable" dx=247 dy=0 dh=247 dv=0
Position2: "Single Positioning lookup 166 subtable" dx=247 dy=0 dh=247 dv=0
Position2: "Single Positioning lookup 165 subtable" dx=247 dy=0 dh=247 dv=0
Position2: "Single Positioning lookup 163 subtable" dx=247 dy=0 dh=247 dv=0
Position2: "Single Positioning lookup 162 subtable" dx=247 dy=0 dh=247 dv=0
Position2: "Single Positioning lookup 159 subtable" dx=247 dy=0 dh=247 dv=0
Position2: "Single Positioning lookup 158 subtable" dx=247 dy=0 dh=247 dv=0
Position2: "Single Positioning lookup 156 subtable" dx=247 dy=0 dh=247 dv=0
Position2: "Single Positioning lookup 155 subtable" dx=247 dy=0 dh=247 dv=0
Position2: "Single Positioning lookup 152 subtable" dx=247 dy=0 dh=247 dv=0
Position2: "Single Positioning lookup 151 subtable" dx=247 dy=0 dh=247 dv=0
Position2: "Single Positioning lookup 150 subtable" dx=247 dy=0 dh=247 dv=0
Position2: "Single Positioning lookup 149 subtable" dx=247 dy=0 dh=247 dv=0
Position2: "Single Positioning lookup 148 subtable" dx=247 dy=0 dh=247 dv=0
Position2: "Single Positioning lookup 147 subtable" dx=247 dy=0 dh=247 dv=0
Position2: "Single Positioning lookup 146 subtable" dx=247 dy=0 dh=247 dv=0
Position2: "Single Positioning lookup 145 subtable" dx=247 dy=0 dh=247 dv=0
Position2: "Single Positioning lookup 144 subtable" dx=247 dy=0 dh=247 dv=0
Position2: "Single Positioning lookup 143 subtable" dx=247 dy=0 dh=247 dv=0
Position2: "Single Positioning lookup 142 subtable" dx=247 dy=0 dh=247 dv=0
Position2: "Single Positioning lookup 141 subtable" dx=247 dy=0 dh=247 dv=0
Position2: "Single Positioning lookup 140 subtable" dx=247 dy=0 dh=247 dv=0
Position2: "Single Positioning lookup 139 subtable" dx=208 dy=0 dh=208 dv=0
Position2: "Single Positioning lookup 138 subtable" dx=208 dy=0 dh=208 dv=0
Position2: "Single Positioning lookup 137 subtable" dx=208 dy=0 dh=208 dv=0
Position2: "Single Positioning lookup 136 subtable" dx=208 dy=0 dh=208 dv=0
Position2: "Single Positioning lookup 132 subtable" dx=208 dy=0 dh=208 dv=0
Position2: "Single Positioning lookup 131 subtable" dx=208 dy=0 dh=208 dv=0
Position2: "Single Positioning lookup 130 subtable" dx=208 dy=0 dh=208 dv=0
Position2: "Single Positioning lookup 129 subtable" dx=208 dy=0 dh=208 dv=0
Position2: "Single Positioning lookup 126 subtable" dx=208 dy=0 dh=208 dv=0
Position2: "Single Positioning lookup 125 subtable" dx=208 dy=0 dh=208 dv=0
Position2: "Single Positioning lookup 124 subtable" dx=208 dy=0 dh=208 dv=0
Position2: "Single Positioning lookup 121 subtable" dx=208 dy=0 dh=208 dv=0
Position2: "Single Positioning lookup 118 subtable" dx=208 dy=0 dh=208 dv=0
Position2: "Single Positioning lookup 115 subtable" dx=208 dy=0 dh=208 dv=0
Position2: "Single Positioning lookup 114 subtable" dx=208 dy=0 dh=208 dv=0
Position2: "Single Positioning lookup 111 subtable" dx=208 dy=0 dh=208 dv=0
Position2: "Single Positioning lookup 110 subtable" dx=208 dy=0 dh=208 dv=0
Position2: "Single Positioning lookup 108 subtable" dx=208 dy=0 dh=208 dv=0
Position2: "Single Positioning lookup 107 subtable" dx=208 dy=0 dh=208 dv=0
Position2: "Single Positioning lookup 106 subtable" dx=208 dy=0 dh=208 dv=0
Position2: "Single Positioning lookup 105 subtable" dx=208 dy=0 dh=208 dv=0
Position2: "Single Positioning lookup 104 subtable" dx=208 dy=0 dh=208 dv=0
Position2: "Single Positioning lookup 103 subtable" dx=208 dy=0 dh=208 dv=0
Position2: "Single Positioning lookup 101 subtable" dx=208 dy=0 dh=208 dv=0
Position2: "Single Positioning lookup 100 subtable" dx=208 dy=0 dh=208 dv=0
Position2: "Single Positioning lookup 99 subtable" dx=208 dy=0 dh=208 dv=0
Position2: "Single Positioning lookup 49 subtable" dx=21 dy=0 dh=21 dv=0
Position2: "Single Positioning lookup 48 subtable" dx=146 dy=0 dh=146 dv=0
Position2: "Single Positioning lookup 47 subtable" dx=10 dy=0 dh=10 dv=0
Position2: "Single Positioning lookup 44 subtable" dx=0 dy=0 dh=235 dv=0
Position2: "Single Positioning lookup 43 subtable" dx=201 dy=0 dh=201 dv=0
Position2: "Single Positioning lookup 42 subtable" dx=0 dy=0 dh=285 dv=0
Position2: "Single Positioning lookup 41 subtable" dx=252 dy=0 dh=252 dv=0
Position2: "Single Positioning lookup 33 subtable" dx=65 dy=0 dh=65 dv=0
Position2: "Single Positioning lookup 29 subtable" dx=104 dy=0 dh=104 dv=0
Position2: "Single Positioning lookup 14 subtable" dx=0 dy=0 dh=164 dv=0
Position2: "Single Positioning lookup 13 subtable" dx=130 dy=0 dh=130 dv=0
Position2: "Single Positioning lookup 10 subtable" dx=19 dy=0 dh=19 dv=0
Position2: "Single Positioning lookup 7 subtable" dx=22 dy=0 dh=22 dv=0
Position2: "Single Positioning lookup 4 subtable" dx=183 dy=0 dh=183 dv=0
EndChar

StartChar: uni1B16
Encoding: 6934 6934 27
Width: 939
GlyphClass: 2
Flags: W
AnchorPoint: "Anchor-3" 487 0 basechar 0
AnchorPoint: "Anchor-0" 489 525 basechar 0
LayerCount: 2
Fore
SplineSet
510 151 m 1,0,1
 461 147 461 147 441 75 c 0,2,3
 419 -1 419 -1 351 -4 c 2,4,-1
 345 -4 l 2,5,6
 294 -3 294 -3 267.5 36 c 128,-1,7
 241 75 241 75 241 139 c 0,8,9
 241 298 241 298 325 389 c 1,10,11
 219 372 219 372 218 244 c 2,12,-1
 218 187 l 1,13,14
 211 66 211 66 191 32 c 128,-1,15
 171 -2 171 -2 133 -2 c 0,16,17
 97 -2 97 -2 75 24.5 c 128,-1,18
 53 51 53 51 53 104 c 0,19,20
 53 143 53 143 65 185 c 128,-1,21
 77 227 77 227 101.5 267.5 c 128,-1,22
 126 308 126 308 126 327 c 256,23,24
 126 346 126 346 103 346 c 0,25,26
 68 346 68 346 68 297 c 0,27,28
 68 280 68 280 73 256 c 1,29,-1
 60 254 l 1,30,31
 45 292 45 292 45 330 c 0,32,33
 45 440 45 440 119 440 c 1,34,35
 181 436 181 436 181 377 c 0,36,37
 181 341 181 341 144 286 c 0,38,39
 85 198 85 198 85 138 c 0,40,41
 85 89 85 89 127 89 c 0,42,43
 157 89 157 89 174.5 118 c 128,-1,44
 192 147 192 147 192 198 c 2,45,-1
 192 285 l 2,46,47
 192 441 192 441 343 442 c 2,48,-1
 398 442 l 1,49,-1
 401 430 l 1,50,51
 280 320 280 320 280 205 c 0,52,53
 280 156 280 156 302 125.5 c 128,-1,54
 324 95 324 95 372 94 c 0,55,56
 424 95 424 95 445.5 154 c 128,-1,57
 467 213 467 213 516 213 c 0,58,59
 615 213 615 213 658 84 c 1,60,61
 688 94 688 94 710 130.5 c 128,-1,62
 732 167 732 167 732 234 c 0,63,64
 731 313 731 313 673 348 c 1,65,66
 645 358 645 358 619 358 c 0,67,68
 598 358 598 358 577 351 c 1,69,70
 604 441 604 441 698 441 c 0,71,72
 889 441 889 441 889 148 c 2,73,-1
 889 0 l 1,74,-1
 859 0 l 1,75,-1
 859 154 l 2,76,77
 856 373 856 373 691 375 c 1,78,79
 762 336 762 336 762 232 c 2,80,-1
 762 221 l 2,81,82
 762 -2 762 -2 638 -4 c 2,83,-1
 632 -4 l 1,84,85
 571 145 571 145 510 151 c 1,0,1
EndSplineSet
MultipleSubs2: "Multiple Substitution lookup 314 subtable" uni1B16 _reorder
MultipleSubs2: "Multiple Substitution lookup 258 subtable" uni1B16 _reorder
MultipleSubs2: "Multiple Substitution lookup 202 subtable" uni1B16 _reorder
MultipleSubs2: "Multiple Substitution lookup 140 subtable" uni1B16 _reorder
MultipleSubs2: "Multiple Substitution lookup 84 subtable" uni1B16 _reorder
MultipleSubs2: "Multiple Substitution lookup 28 subtable" uni1B16 _reorder
Position2: "Single Positioning lookup 299 subtable" dx=115 dy=0 dh=115 dv=0
Position2: "Single Positioning lookup 298 subtable" dx=115 dy=0 dh=115 dv=0
Position2: "Single Positioning lookup 296 subtable" dx=115 dy=0 dh=115 dv=0
Position2: "Single Positioning lookup 294 subtable" dx=115 dy=0 dh=115 dv=0
Position2: "Single Positioning lookup 291 subtable" dx=115 dy=0 dh=115 dv=0
Position2: "Single Positioning lookup 287 subtable" dx=115 dy=0 dh=115 dv=0
Position2: "Single Positioning lookup 286 subtable" dx=115 dy=0 dh=115 dv=0
Position2: "Single Positioning lookup 277 subtable" dx=115 dy=0 dh=115 dv=0
Position2: "Single Positioning lookup 272 subtable" dx=115 dy=0 dh=115 dv=0
Position2: "Single Positioning lookup 269 subtable" dx=115 dy=0 dh=115 dv=0
Position2: "Single Positioning lookup 266 subtable" dx=115 dy=0 dh=115 dv=0
Position2: "Single Positioning lookup 263 subtable" dx=115 dy=0 dh=115 dv=0
Position2: "Single Positioning lookup 260 subtable" dx=125 dy=0 dh=125 dv=0
Position2: "Single Positioning lookup 259 subtable" dx=125 dy=0 dh=125 dv=0
Position2: "Single Positioning lookup 257 subtable" dx=125 dy=0 dh=125 dv=0
Position2: "Single Positioning lookup 254 subtable" dx=125 dy=0 dh=125 dv=0
Position2: "Single Positioning lookup 251 subtable" dx=125 dy=0 dh=125 dv=0
Position2: "Single Positioning lookup 247 subtable" dx=125 dy=0 dh=125 dv=0
Position2: "Single Positioning lookup 246 subtable" dx=125 dy=0 dh=125 dv=0
Position2: "Single Positioning lookup 237 subtable" dx=125 dy=0 dh=125 dv=0
Position2: "Single Positioning lookup 232 subtable" dx=125 dy=0 dh=125 dv=0
Position2: "Single Positioning lookup 229 subtable" dx=125 dy=0 dh=125 dv=0
Position2: "Single Positioning lookup 226 subtable" dx=125 dy=0 dh=125 dv=0
Position2: "Single Positioning lookup 223 subtable" dx=125 dy=0 dh=125 dv=0
Position2: "Single Positioning lookup 220 subtable" dx=145 dy=0 dh=145 dv=0
Position2: "Single Positioning lookup 219 subtable" dx=145 dy=0 dh=145 dv=0
Position2: "Single Positioning lookup 217 subtable" dx=145 dy=0 dh=145 dv=0
Position2: "Single Positioning lookup 214 subtable" dx=145 dy=0 dh=145 dv=0
Position2: "Single Positioning lookup 212 subtable" dx=145 dy=0 dh=145 dv=0
Position2: "Single Positioning lookup 211 subtable" dx=145 dy=0 dh=145 dv=0
Position2: "Single Positioning lookup 207 subtable" dx=145 dy=0 dh=145 dv=0
Position2: "Single Positioning lookup 206 subtable" dx=145 dy=0 dh=145 dv=0
Position2: "Single Positioning lookup 197 subtable" dx=145 dy=0 dh=145 dv=0
Position2: "Single Positioning lookup 192 subtable" dx=145 dy=0 dh=145 dv=0
Position2: "Single Positioning lookup 189 subtable" dx=145 dy=0 dh=145 dv=0
Position2: "Single Positioning lookup 186 subtable" dx=145 dy=0 dh=145 dv=0
Position2: "Single Positioning lookup 185 subtable" dx=145 dy=0 dh=145 dv=0
Position2: "Single Positioning lookup 183 subtable" dx=145 dy=0 dh=145 dv=0
Position2: "Single Positioning lookup 180 subtable" dx=247 dy=0 dh=247 dv=0
Position2: "Single Positioning lookup 179 subtable" dx=247 dy=0 dh=247 dv=0
Position2: "Single Positioning lookup 178 subtable" dx=247 dy=0 dh=247 dv=0
Position2: "Single Positioning lookup 177 subtable" dx=247 dy=0 dh=247 dv=0
Position2: "Single Positioning lookup 173 subtable" dx=247 dy=0 dh=247 dv=0
Position2: "Single Positioning lookup 172 subtable" dx=247 dy=0 dh=247 dv=0
Position2: "Single Positioning lookup 171 subtable" dx=247 dy=0 dh=247 dv=0
Position2: "Single Positioning lookup 170 subtable" dx=247 dy=0 dh=247 dv=0
Position2: "Single Positioning lookup 167 subtable" dx=247 dy=0 dh=247 dv=0
Position2: "Single Positioning lookup 166 subtable" dx=247 dy=0 dh=247 dv=0
Position2: "Single Positioning lookup 165 subtable" dx=247 dy=0 dh=247 dv=0
Position2: "Single Positioning lookup 162 subtable" dx=247 dy=0 dh=247 dv=0
Position2: "Single Positioning lookup 159 subtable" dx=247 dy=0 dh=247 dv=0
Position2: "Single Positioning lookup 156 subtable" dx=247 dy=0 dh=247 dv=0
Position2: "Single Positioning lookup 155 subtable" dx=247 dy=0 dh=247 dv=0
Position2: "Single Positioning lookup 152 subtable" dx=247 dy=0 dh=247 dv=0
Position2: "Single Positioning lookup 151 subtable" dx=247 dy=0 dh=247 dv=0
Position2: "Single Positioning lookup 148 subtable" dx=247 dy=0 dh=247 dv=0
Position2: "Single Positioning lookup 147 subtable" dx=247 dy=0 dh=247 dv=0
Position2: "Single Positioning lookup 146 subtable" dx=247 dy=0 dh=247 dv=0
Position2: "Single Positioning lookup 145 subtable" dx=247 dy=0 dh=247 dv=0
Position2: "Single Positioning lookup 144 subtable" dx=247 dy=0 dh=247 dv=0
Position2: "Single Positioning lookup 142 subtable" dx=247 dy=0 dh=247 dv=0
Position2: "Single Positioning lookup 141 subtable" dx=247 dy=0 dh=247 dv=0
Position2: "Single Positioning lookup 140 subtable" dx=247 dy=0 dh=247 dv=0
Position2: "Single Positioning lookup 139 subtable" dx=208 dy=0 dh=208 dv=0
Position2: "Single Positioning lookup 138 subtable" dx=208 dy=0 dh=208 dv=0
Position2: "Single Positioning lookup 137 subtable" dx=208 dy=0 dh=208 dv=0
Position2: "Single Positioning lookup 136 subtable" dx=208 dy=0 dh=208 dv=0
Position2: "Single Positioning lookup 132 subtable" dx=208 dy=0 dh=208 dv=0
Position2: "Single Positioning lookup 131 subtable" dx=208 dy=0 dh=208 dv=0
Position2: "Single Positioning lookup 130 subtable" dx=208 dy=0 dh=208 dv=0
Position2: "Single Positioning lookup 129 subtable" dx=208 dy=0 dh=208 dv=0
Position2: "Single Positioning lookup 126 subtable" dx=208 dy=0 dh=208 dv=0
Position2: "Single Positioning lookup 125 subtable" dx=208 dy=0 dh=208 dv=0
Position2: "Single Positioning lookup 124 subtable" dx=208 dy=0 dh=208 dv=0
Position2: "Single Positioning lookup 118 subtable" dx=208 dy=0 dh=208 dv=0
Position2: "Single Positioning lookup 115 subtable" dx=208 dy=0 dh=208 dv=0
Position2: "Single Positioning lookup 114 subtable" dx=208 dy=0 dh=208 dv=0
Position2: "Single Positioning lookup 111 subtable" dx=208 dy=0 dh=208 dv=0
Position2: "Single Positioning lookup 110 subtable" dx=208 dy=0 dh=208 dv=0
Position2: "Single Positioning lookup 107 subtable" dx=208 dy=0 dh=208 dv=0
Position2: "Single Positioning lookup 106 subtable" dx=208 dy=0 dh=208 dv=0
Position2: "Single Positioning lookup 105 subtable" dx=208 dy=0 dh=208 dv=0
Position2: "Single Positioning lookup 104 subtable" dx=208 dy=0 dh=208 dv=0
Position2: "Single Positioning lookup 103 subtable" dx=208 dy=0 dh=208 dv=0
Position2: "Single Positioning lookup 101 subtable" dx=208 dy=0 dh=208 dv=0
Position2: "Single Positioning lookup 99 subtable" dx=208 dy=0 dh=208 dv=0
Position2: "Single Positioning lookup 48 subtable" dx=79 dy=0 dh=79 dv=0
Position2: "Single Positioning lookup 44 subtable" dx=0 dy=0 dh=202 dv=0
Position2: "Single Positioning lookup 43 subtable" dx=167 dy=0 dh=167 dv=0
Position2: "Single Positioning lookup 42 subtable" dx=0 dy=0 dh=252 dv=0
Position2: "Single Positioning lookup 41 subtable" dx=218 dy=0 dh=218 dv=0
Position2: "Single Positioning lookup 29 subtable" dx=37 dy=0 dh=37 dv=0
Position2: "Single Positioning lookup 14 subtable" dx=0 dy=0 dh=131 dv=0
Position2: "Single Positioning lookup 13 subtable" dx=96 dy=0 dh=96 dv=0
Position2: "Single Positioning lookup 4 subtable" dx=116 dy=0 dh=116 dv=0
EndChar

StartChar: uni1B17
Encoding: 6935 6935 28
Width: 823
GlyphClass: 2
Flags: W
AnchorPoint: "Anchor-3" 449 0 basechar 0
AnchorPoint: "Anchor-0" 453 525 basechar 0
LayerCount: 2
Fore
SplineSet
295 -5 m 1,0,-1
 204 100 l 1,1,2
 189 135 189 135 185 194 c 1,3,4
 188 434 188 434 323 439 c 0,5,6
 378 439 378 439 415 410 c 128,-1,7
 452 381 452 381 479 323 c 1,8,9
 506 381 506 381 541 410 c 128,-1,10
 576 439 576 439 636 439 c 0,11,12
 773 433 773 433 773 192 c 2,13,-1
 773 0 l 1,14,-1
 743 0 l 1,15,-1
 743 184 l 2,16,17
 742 333 742 333 633 342 c 1,18,-1
 608 342 l 1,19,20
 528 333 528 333 480 270 c 1,21,-1
 478 270 l 1,22,23
 430 333 430 333 350 342 c 1,24,-1
 325 342 l 1,25,26
 241 335 241 335 222 246 c 1,27,-1
 220 202 l 1,28,29
 220 77 220 77 305 9 c 1,30,-1
 295 -5 l 1,0,-1
305 9 m 1,31,-1
 295 -5 l 1,32,33
 219 11 219 11 152 41 c 0,34,35
 70 76 70 76 70 163 c 0,36,37
 70 212 70 212 100 268 c 0,38,39
 125 308 125 308 125 328 c 0,40,41
 125 346 125 346 103 346 c 0,42,43
 68 346 68 346 68 297 c 0,44,45
 68 280 68 280 73 256 c 1,46,-1
 59 254 l 1,47,48
 45 291 45 291 45 328 c 0,49,50
 45 440 45 440 119 440 c 1,51,52
 180 436 180 436 180 378 c 0,53,54
 180 342 180 342 144 287 c 128,-1,55
 108 232 108 232 108 195 c 0,56,57
 108 135 108 135 204 100 c 1,58,-1
 305 9 l 1,31,-1
EndSplineSet
MultipleSubs2: "Multiple Substitution lookup 315 subtable" uni1B17 _reorder
MultipleSubs2: "Multiple Substitution lookup 259 subtable" uni1B17 _reorder
MultipleSubs2: "Multiple Substitution lookup 203 subtable" uni1B17 _reorder
MultipleSubs2: "Multiple Substitution lookup 141 subtable" uni1B17 _reorder
MultipleSubs2: "Multiple Substitution lookup 85 subtable" uni1B17 _reorder
MultipleSubs2: "Multiple Substitution lookup 29 subtable" uni1B17 _reorder
Position2: "Single Positioning lookup 299 subtable" dx=115 dy=0 dh=115 dv=0
Position2: "Single Positioning lookup 298 subtable" dx=115 dy=0 dh=115 dv=0
Position2: "Single Positioning lookup 297 subtable" dx=115 dy=0 dh=115 dv=0
Position2: "Single Positioning lookup 296 subtable" dx=115 dy=0 dh=115 dv=0
Position2: "Single Positioning lookup 294 subtable" dx=115 dy=0 dh=115 dv=0
Position2: "Single Positioning lookup 293 subtable" dx=115 dy=0 dh=115 dv=0
Position2: "Single Positioning lookup 292 subtable" dx=115 dy=0 dh=115 dv=0
Position2: "Single Positioning lookup 291 subtable" dx=115 dy=0 dh=115 dv=0
Position2: "Single Positioning lookup 288 subtable" dx=115 dy=0 dh=115 dv=0
Position2: "Single Positioning lookup 287 subtable" dx=115 dy=0 dh=115 dv=0
Position2: "Single Positioning lookup 286 subtable" dx=115 dy=0 dh=115 dv=0
Position2: "Single Positioning lookup 280 subtable" dx=115 dy=0 dh=115 dv=0
Position2: "Single Positioning lookup 277 subtable" dx=115 dy=0 dh=115 dv=0
Position2: "Single Positioning lookup 276 subtable" dx=115 dy=0 dh=115 dv=0
Position2: "Single Positioning lookup 273 subtable" dx=115 dy=0 dh=115 dv=0
Position2: "Single Positioning lookup 272 subtable" dx=115 dy=0 dh=115 dv=0
Position2: "Single Positioning lookup 269 subtable" dx=115 dy=0 dh=115 dv=0
Position2: "Single Positioning lookup 268 subtable" dx=115 dy=0 dh=115 dv=0
Position2: "Single Positioning lookup 267 subtable" dx=115 dy=0 dh=115 dv=0
Position2: "Single Positioning lookup 266 subtable" dx=115 dy=0 dh=115 dv=0
Position2: "Single Positioning lookup 265 subtable" dx=115 dy=0 dh=115 dv=0
Position2: "Single Positioning lookup 263 subtable" dx=115 dy=0 dh=115 dv=0
Position2: "Single Positioning lookup 262 subtable" dx=115 dy=0 dh=115 dv=0
Position2: "Single Positioning lookup 261 subtable" dx=115 dy=0 dh=115 dv=0
Position2: "Single Positioning lookup 260 subtable" dx=125 dy=0 dh=125 dv=0
Position2: "Single Positioning lookup 259 subtable" dx=125 dy=0 dh=125 dv=0
Position2: "Single Positioning lookup 258 subtable" dx=125 dy=0 dh=125 dv=0
Position2: "Single Positioning lookup 257 subtable" dx=125 dy=0 dh=125 dv=0
Position2: "Single Positioning lookup 254 subtable" dx=125 dy=0 dh=125 dv=0
Position2: "Single Positioning lookup 253 subtable" dx=125 dy=0 dh=125 dv=0
Position2: "Single Positioning lookup 252 subtable" dx=125 dy=0 dh=125 dv=0
Position2: "Single Positioning lookup 251 subtable" dx=125 dy=0 dh=125 dv=0
Position2: "Single Positioning lookup 248 subtable" dx=125 dy=0 dh=125 dv=0
Position2: "Single Positioning lookup 247 subtable" dx=125 dy=0 dh=125 dv=0
Position2: "Single Positioning lookup 246 subtable" dx=125 dy=0 dh=125 dv=0
Position2: "Single Positioning lookup 240 subtable" dx=125 dy=0 dh=125 dv=0
Position2: "Single Positioning lookup 237 subtable" dx=125 dy=0 dh=125 dv=0
Position2: "Single Positioning lookup 236 subtable" dx=125 dy=0 dh=125 dv=0
Position2: "Single Positioning lookup 233 subtable" dx=125 dy=0 dh=125 dv=0
Position2: "Single Positioning lookup 232 subtable" dx=125 dy=0 dh=125 dv=0
Position2: "Single Positioning lookup 229 subtable" dx=125 dy=0 dh=125 dv=0
Position2: "Single Positioning lookup 228 subtable" dx=125 dy=0 dh=125 dv=0
Position2: "Single Positioning lookup 227 subtable" dx=125 dy=0 dh=125 dv=0
Position2: "Single Positioning lookup 226 subtable" dx=125 dy=0 dh=125 dv=0
Position2: "Single Positioning lookup 225 subtable" dx=125 dy=0 dh=125 dv=0
Position2: "Single Positioning lookup 223 subtable" dx=125 dy=0 dh=125 dv=0
Position2: "Single Positioning lookup 222 subtable" dx=125 dy=0 dh=125 dv=0
Position2: "Single Positioning lookup 221 subtable" dx=125 dy=0 dh=125 dv=0
Position2: "Single Positioning lookup 220 subtable" dx=145 dy=0 dh=145 dv=0
Position2: "Single Positioning lookup 219 subtable" dx=145 dy=0 dh=145 dv=0
Position2: "Single Positioning lookup 218 subtable" dx=145 dy=0 dh=145 dv=0
Position2: "Single Positioning lookup 217 subtable" dx=145 dy=0 dh=145 dv=0
Position2: "Single Positioning lookup 214 subtable" dx=145 dy=0 dh=145 dv=0
Position2: "Single Positioning lookup 213 subtable" dx=145 dy=0 dh=145 dv=0
Position2: "Single Positioning lookup 212 subtable" dx=145 dy=0 dh=145 dv=0
Position2: "Single Positioning lookup 211 subtable" dx=145 dy=0 dh=145 dv=0
Position2: "Single Positioning lookup 208 subtable" dx=145 dy=0 dh=145 dv=0
Position2: "Single Positioning lookup 207 subtable" dx=145 dy=0 dh=145 dv=0
Position2: "Single Positioning lookup 206 subtable" dx=145 dy=0 dh=145 dv=0
Position2: "Single Positioning lookup 203 subtable" dx=145 dy=0 dh=145 dv=0
Position2: "Single Positioning lookup 200 subtable" dx=145 dy=0 dh=145 dv=0
Position2: "Single Positioning lookup 197 subtable" dx=145 dy=0 dh=145 dv=0
Position2: "Single Positioning lookup 196 subtable" dx=145 dy=0 dh=145 dv=0
Position2: "Single Positioning lookup 193 subtable" dx=145 dy=0 dh=145 dv=0
Position2: "Single Positioning lookup 192 subtable" dx=145 dy=0 dh=145 dv=0
Position2: "Single Positioning lookup 189 subtable" dx=145 dy=0 dh=145 dv=0
Position2: "Single Positioning lookup 188 subtable" dx=145 dy=0 dh=145 dv=0
Position2: "Single Positioning lookup 187 subtable" dx=145 dy=0 dh=145 dv=0
Position2: "Single Positioning lookup 186 subtable" dx=145 dy=0 dh=145 dv=0
Position2: "Single Positioning lookup 185 subtable" dx=145 dy=0 dh=145 dv=0
Position2: "Single Positioning lookup 183 subtable" dx=145 dy=0 dh=145 dv=0
Position2: "Single Positioning lookup 182 subtable" dx=145 dy=0 dh=145 dv=0
Position2: "Single Positioning lookup 181 subtable" dx=145 dy=0 dh=145 dv=0
Position2: "Single Positioning lookup 180 subtable" dx=247 dy=0 dh=247 dv=0
Position2: "Single Positioning lookup 179 subtable" dx=247 dy=0 dh=247 dv=0
Position2: "Single Positioning lookup 178 subtable" dx=247 dy=0 dh=247 dv=0
Position2: "Single Positioning lookup 177 subtable" dx=247 dy=0 dh=247 dv=0
Position2: "Single Positioning lookup 174 subtable" dx=247 dy=0 dh=247 dv=0
Position2: "Single Positioning lookup 173 subtable" dx=247 dy=0 dh=247 dv=0
Position2: "Single Positioning lookup 172 subtable" dx=247 dy=0 dh=247 dv=0
Position2: "Single Positioning lookup 171 subtable" dx=247 dy=0 dh=247 dv=0
Position2: "Single Positioning lookup 170 subtable" dx=247 dy=0 dh=247 dv=0
Position2: "Single Positioning lookup 168 subtable" dx=247 dy=0 dh=247 dv=0
Position2: "Single Positioning lookup 167 subtable" dx=247 dy=0 dh=247 dv=0
Position2: "Single Positioning lookup 166 subtable" dx=247 dy=0 dh=247 dv=0
Position2: "Single Positioning lookup 165 subtable" dx=247 dy=0 dh=247 dv=0
Position2: "Single Positioning lookup 163 subtable" dx=247 dy=0 dh=247 dv=0
Position2: "Single Positioning lookup 162 subtable" dx=247 dy=0 dh=247 dv=0
Position2: "Single Positioning lookup 159 subtable" dx=247 dy=0 dh=247 dv=0
Position2: "Single Positioning lookup 158 subtable" dx=247 dy=0 dh=247 dv=0
Position2: "Single Positioning lookup 156 subtable" dx=247 dy=0 dh=247 dv=0
Position2: "Single Positioning lookup 155 subtable" dx=247 dy=0 dh=247 dv=0
Position2: "Single Positioning lookup 154 subtable" dx=247 dy=0 dh=247 dv=0
Position2: "Single Positioning lookup 153 subtable" dx=247 dy=0 dh=247 dv=0
Position2: "Single Positioning lookup 152 subtable" dx=247 dy=0 dh=247 dv=0
Position2: "Single Positioning lookup 151 subtable" dx=247 dy=0 dh=247 dv=0
Position2: "Single Positioning lookup 150 subtable" dx=247 dy=0 dh=247 dv=0
Position2: "Single Positioning lookup 149 subtable" dx=247 dy=0 dh=247 dv=0
Position2: "Single Positioning lookup 148 subtable" dx=247 dy=0 dh=247 dv=0
Position2: "Single Positioning lookup 147 subtable" dx=247 dy=0 dh=247 dv=0
Position2: "Single Positioning lookup 146 subtable" dx=247 dy=0 dh=247 dv=0
Position2: "Single Positioning lookup 145 subtable" dx=247 dy=0 dh=247 dv=0
Position2: "Single Positioning lookup 144 subtable" dx=247 dy=0 dh=247 dv=0
Position2: "Single Positioning lookup 143 subtable" dx=247 dy=0 dh=247 dv=0
Position2: "Single Positioning lookup 142 subtable" dx=247 dy=0 dh=247 dv=0
Position2: "Single Positioning lookup 141 subtable" dx=247 dy=0 dh=247 dv=0
Position2: "Single Positioning lookup 140 subtable" dx=247 dy=0 dh=247 dv=0
Position2: "Single Positioning lookup 139 subtable" dx=208 dy=0 dh=208 dv=0
Position2: "Single Positioning lookup 138 subtable" dx=208 dy=0 dh=208 dv=0
Position2: "Single Positioning lookup 137 subtable" dx=208 dy=0 dh=208 dv=0
Position2: "Single Positioning lookup 136 subtable" dx=208 dy=0 dh=208 dv=0
Position2: "Single Positioning lookup 132 subtable" dx=208 dy=0 dh=208 dv=0
Position2: "Single Positioning lookup 131 subtable" dx=208 dy=0 dh=208 dv=0
Position2: "Single Positioning lookup 130 subtable" dx=208 dy=0 dh=208 dv=0
Position2: "Single Positioning lookup 129 subtable" dx=208 dy=0 dh=208 dv=0
Position2: "Single Positioning lookup 126 subtable" dx=208 dy=0 dh=208 dv=0
Position2: "Single Positioning lookup 125 subtable" dx=208 dy=0 dh=208 dv=0
Position2: "Single Positioning lookup 124 subtable" dx=208 dy=0 dh=208 dv=0
Position2: "Single Positioning lookup 122 subtable" dx=208 dy=0 dh=208 dv=0
Position2: "Single Positioning lookup 121 subtable" dx=208 dy=0 dh=208 dv=0
Position2: "Single Positioning lookup 118 subtable" dx=208 dy=0 dh=208 dv=0
Position2: "Single Positioning lookup 117 subtable" dx=208 dy=0 dh=208 dv=0
Position2: "Single Positioning lookup 115 subtable" dx=208 dy=0 dh=208 dv=0
Position2: "Single Positioning lookup 114 subtable" dx=208 dy=0 dh=208 dv=0
Position2: "Single Positioning lookup 111 subtable" dx=208 dy=0 dh=208 dv=0
Position2: "Single Positioning lookup 110 subtable" dx=208 dy=0 dh=208 dv=0
Position2: "Single Positioning lookup 109 subtable" dx=208 dy=0 dh=208 dv=0
Position2: "Single Positioning lookup 108 subtable" dx=208 dy=0 dh=208 dv=0
Position2: "Single Positioning lookup 107 subtable" dx=208 dy=0 dh=208 dv=0
Position2: "Single Positioning lookup 106 subtable" dx=208 dy=0 dh=208 dv=0
Position2: "Single Positioning lookup 105 subtable" dx=208 dy=0 dh=208 dv=0
Position2: "Single Positioning lookup 104 subtable" dx=208 dy=0 dh=208 dv=0
Position2: "Single Positioning lookup 103 subtable" dx=208 dy=0 dh=208 dv=0
Position2: "Single Positioning lookup 102 subtable" dx=208 dy=0 dh=208 dv=0
Position2: "Single Positioning lookup 101 subtable" dx=208 dy=0 dh=208 dv=0
Position2: "Single Positioning lookup 100 subtable" dx=208 dy=0 dh=208 dv=0
Position2: "Single Positioning lookup 99 subtable" dx=208 dy=0 dh=208 dv=0
Position2: "Single Positioning lookup 49 subtable" dx=70 dy=0 dh=70 dv=0
Position2: "Single Positioning lookup 48 subtable" dx=195 dy=0 dh=195 dv=0
Position2: "Single Positioning lookup 47 subtable" dx=59 dy=0 dh=59 dv=0
Position2: "Single Positioning lookup 44 subtable" dx=0 dy=0 dh=280 dv=0
Position2: "Single Positioning lookup 43 subtable" dx=205 dy=0 dh=205 dv=0
Position2: "Single Positioning lookup 42 subtable" dx=0 dy=0 dh=330 dv=0
Position2: "Single Positioning lookup 41 subtable" dx=256 dy=0 dh=256 dv=0
Position2: "Single Positioning lookup 39 subtable" dx=17 dy=0 dh=17 dv=0
Position2: "Single Positioning lookup 36 subtable" dx=24 dy=0 dh=24 dv=0
Position2: "Single Positioning lookup 33 subtable" dx=114 dy=0 dh=114 dv=0
Position2: "Single Positioning lookup 29 subtable" dx=153 dy=0 dh=153 dv=0
Position2: "Single Positioning lookup 28 subtable" dx=34 dy=0 dh=34 dv=0
Position2: "Single Positioning lookup 19 subtable" dx=48 dy=0 dh=48 dv=0
Position2: "Single Positioning lookup 14 subtable" dx=0 dy=0 dh=209 dv=0
Position2: "Single Positioning lookup 13 subtable" dx=134 dy=0 dh=134 dv=0
Position2: "Single Positioning lookup 10 subtable" dx=68 dy=0 dh=68 dv=0
Position2: "Single Positioning lookup 7 subtable" dx=71 dy=0 dh=71 dv=0
Position2: "Single Positioning lookup 4 subtable" dx=232 dy=0 dh=232 dv=0
EndChar

StartChar: uni1B18
Encoding: 6936 6936 29
Width: 684
GlyphClass: 2
Flags: W
AnchorPoint: "Anchor-3" 377 0 basechar 0
AnchorPoint: "Anchor-0" 342 525 basechar 0
LayerCount: 2
Fore
SplineSet
102 28 m 2,0,-1
 116 30 l 2,1,2
 160 40 160 40 183 129 c 1,3,4
 167 133 167 133 153 133 c 0,5,6
 122 133 122 133 98 113.5 c 128,-1,7
 74 94 74 94 74 64 c 2,8,-1
 74 56 l 2,9,10
 77 28 77 28 102 28 c 2,0,-1
447 -4 m 1,11,-1
 439 -4 l 2,12,13
 403 -4 403 -4 339 47 c 128,-1,14
 275 98 275 98 212 122 c 1,15,16
 200 69 200 69 170.5 33 c 128,-1,17
 141 -3 141 -3 102 -3 c 0,18,19
 39 -3 39 -3 39 68 c 1,20,-1
 41 94 l 1,21,22
 59 208 59 208 200 208 c 1,23,24
 209 267 209 267 209 299 c 0,25,26
 209 365 209 365 154 365 c 0,27,28
 105 365 105 365 100 314 c 1,29,-1
 100 308 l 2,30,31
 100 280 100 280 123 242 c 1,32,-1
 115 232 l 1,33,34
 63 277 63 277 63 344 c 2,35,-1
 63 356 l 1,36,37
 67 431 67 431 128 443 c 1,38,-1
 152 445 l 1,39,40
 241 445 241 445 241 330 c 0,41,42
 241 279 241 279 227 202 c 1,43,44
 292 190 292 190 353 139 c 0,45,46
 426 76 426 76 453 76 c 0,47,48
 499 76 499 76 506 142 c 2,49,-1
 507 156 l 2,50,51
 507 196 507 196 492 245 c 0,52,53
 459 358 459 358 365 358 c 0,54,55
 343 358 343 358 323 351 c 1,56,57
 349 441 349 441 444 441 c 0,58,59
 635 441 635 441 635 148 c 2,60,-1
 635 0 l 1,61,-1
 605 0 l 1,62,-1
 605 154 l 2,63,64
 603 373 603 373 437 375 c 1,65,66
 540 314 540 314 540 141 c 1,67,-1
 539 123 l 1,68,69
 527 5 527 5 447 -4 c 1,11,-1
EndSplineSet
MultipleSubs2: "Multiple Substitution lookup 316 subtable" uni1B18 _reorder
MultipleSubs2: "Multiple Substitution lookup 260 subtable" uni1B18 _reorder
MultipleSubs2: "Multiple Substitution lookup 204 subtable" uni1B18 _reorder
MultipleSubs2: "Multiple Substitution lookup 142 subtable" uni1B18 _reorder
MultipleSubs2: "Multiple Substitution lookup 86 subtable" uni1B18 _reorder
MultipleSubs2: "Multiple Substitution lookup 30 subtable" uni1B18 _reorder
Position2: "Single Positioning lookup 299 subtable" dx=115 dy=0 dh=115 dv=0
Position2: "Single Positioning lookup 298 subtable" dx=115 dy=0 dh=115 dv=0
Position2: "Single Positioning lookup 297 subtable" dx=115 dy=0 dh=115 dv=0
Position2: "Single Positioning lookup 296 subtable" dx=115 dy=0 dh=115 dv=0
Position2: "Single Positioning lookup 295 subtable" dx=115 dy=0 dh=115 dv=0
Position2: "Single Positioning lookup 294 subtable" dx=115 dy=0 dh=115 dv=0
Position2: "Single Positioning lookup 293 subtable" dx=115 dy=0 dh=115 dv=0
Position2: "Single Positioning lookup 292 subtable" dx=115 dy=0 dh=115 dv=0
Position2: "Single Positioning lookup 291 subtable" dx=115 dy=0 dh=115 dv=0
Position2: "Single Positioning lookup 289 subtable" dx=115 dy=0 dh=115 dv=0
Position2: "Single Positioning lookup 288 subtable" dx=115 dy=0 dh=115 dv=0
Position2: "Single Positioning lookup 287 subtable" dx=115 dy=0 dh=115 dv=0
Position2: "Single Positioning lookup 286 subtable" dx=115 dy=0 dh=115 dv=0
Position2: "Single Positioning lookup 284 subtable" dx=115 dy=0 dh=115 dv=0
Position2: "Single Positioning lookup 283 subtable" dx=115 dy=0 dh=115 dv=0
Position2: "Single Positioning lookup 280 subtable" dx=115 dy=0 dh=115 dv=0
Position2: "Single Positioning lookup 279 subtable" dx=115 dy=0 dh=115 dv=0
Position2: "Single Positioning lookup 277 subtable" dx=115 dy=0 dh=115 dv=0
Position2: "Single Positioning lookup 276 subtable" dx=115 dy=0 dh=115 dv=0
Position2: "Single Positioning lookup 275 subtable" dx=115 dy=0 dh=115 dv=0
Position2: "Single Positioning lookup 274 subtable" dx=115 dy=0 dh=115 dv=0
Position2: "Single Positioning lookup 273 subtable" dx=115 dy=0 dh=115 dv=0
Position2: "Single Positioning lookup 272 subtable" dx=115 dy=0 dh=115 dv=0
Position2: "Single Positioning lookup 271 subtable" dx=115 dy=0 dh=115 dv=0
Position2: "Single Positioning lookup 270 subtable" dx=115 dy=0 dh=115 dv=0
Position2: "Single Positioning lookup 269 subtable" dx=115 dy=0 dh=115 dv=0
Position2: "Single Positioning lookup 268 subtable" dx=115 dy=0 dh=115 dv=0
Position2: "Single Positioning lookup 267 subtable" dx=115 dy=0 dh=115 dv=0
Position2: "Single Positioning lookup 266 subtable" dx=115 dy=0 dh=115 dv=0
Position2: "Single Positioning lookup 265 subtable" dx=115 dy=0 dh=115 dv=0
Position2: "Single Positioning lookup 264 subtable" dx=115 dy=0 dh=115 dv=0
Position2: "Single Positioning lookup 263 subtable" dx=115 dy=0 dh=115 dv=0
Position2: "Single Positioning lookup 262 subtable" dx=115 dy=0 dh=115 dv=0
Position2: "Single Positioning lookup 261 subtable" dx=115 dy=0 dh=115 dv=0
Position2: "Single Positioning lookup 260 subtable" dx=125 dy=0 dh=125 dv=0
Position2: "Single Positioning lookup 259 subtable" dx=125 dy=0 dh=125 dv=0
Position2: "Single Positioning lookup 258 subtable" dx=125 dy=0 dh=125 dv=0
Position2: "Single Positioning lookup 257 subtable" dx=125 dy=0 dh=125 dv=0
Position2: "Single Positioning lookup 255 subtable" dx=125 dy=0 dh=125 dv=0
Position2: "Single Positioning lookup 254 subtable" dx=125 dy=0 dh=125 dv=0
Position2: "Single Positioning lookup 253 subtable" dx=125 dy=0 dh=125 dv=0
Position2: "Single Positioning lookup 252 subtable" dx=125 dy=0 dh=125 dv=0
Position2: "Single Positioning lookup 251 subtable" dx=125 dy=0 dh=125 dv=0
Position2: "Single Positioning lookup 249 subtable" dx=125 dy=0 dh=125 dv=0
Position2: "Single Positioning lookup 248 subtable" dx=125 dy=0 dh=125 dv=0
Position2: "Single Positioning lookup 247 subtable" dx=125 dy=0 dh=125 dv=0
Position2: "Single Positioning lookup 246 subtable" dx=125 dy=0 dh=125 dv=0
Position2: "Single Positioning lookup 244 subtable" dx=125 dy=0 dh=125 dv=0
Position2: "Single Positioning lookup 243 subtable" dx=125 dy=0 dh=125 dv=0
Position2: "Single Positioning lookup 240 subtable" dx=125 dy=0 dh=125 dv=0
Position2: "Single Positioning lookup 239 subtable" dx=125 dy=0 dh=125 dv=0
Position2: "Single Positioning lookup 237 subtable" dx=125 dy=0 dh=125 dv=0
Position2: "Single Positioning lookup 236 subtable" dx=125 dy=0 dh=125 dv=0
Position2: "Single Positioning lookup 235 subtable" dx=125 dy=0 dh=125 dv=0
Position2: "Single Positioning lookup 234 subtable" dx=125 dy=0 dh=125 dv=0
Position2: "Single Positioning lookup 233 subtable" dx=125 dy=0 dh=125 dv=0
Position2: "Single Positioning lookup 232 subtable" dx=125 dy=0 dh=125 dv=0
Position2: "Single Positioning lookup 231 subtable" dx=125 dy=0 dh=125 dv=0
Position2: "Single Positioning lookup 230 subtable" dx=125 dy=0 dh=125 dv=0
Position2: "Single Positioning lookup 229 subtable" dx=125 dy=0 dh=125 dv=0
Position2: "Single Positioning lookup 228 subtable" dx=125 dy=0 dh=125 dv=0
Position2: "Single Positioning lookup 227 subtable" dx=125 dy=0 dh=125 dv=0
Position2: "Single Positioning lookup 226 subtable" dx=125 dy=0 dh=125 dv=0
Position2: "Single Positioning lookup 225 subtable" dx=125 dy=0 dh=125 dv=0
Position2: "Single Positioning lookup 224 subtable" dx=125 dy=0 dh=125 dv=0
Position2: "Single Positioning lookup 223 subtable" dx=125 dy=0 dh=125 dv=0
Position2: "Single Positioning lookup 222 subtable" dx=125 dy=0 dh=125 dv=0
Position2: "Single Positioning lookup 221 subtable" dx=125 dy=0 dh=125 dv=0
Position2: "Single Positioning lookup 220 subtable" dx=145 dy=0 dh=145 dv=0
Position2: "Single Positioning lookup 219 subtable" dx=145 dy=0 dh=145 dv=0
Position2: "Single Positioning lookup 218 subtable" dx=145 dy=0 dh=145 dv=0
Position2: "Single Positioning lookup 217 subtable" dx=145 dy=0 dh=145 dv=0
Position2: "Single Positioning lookup 215 subtable" dx=145 dy=0 dh=145 dv=0
Position2: "Single Positioning lookup 214 subtable" dx=145 dy=0 dh=145 dv=0
Position2: "Single Positioning lookup 213 subtable" dx=145 dy=0 dh=145 dv=0
Position2: "Single Positioning lookup 212 subtable" dx=145 dy=0 dh=145 dv=0
Position2: "Single Positioning lookup 211 subtable" dx=145 dy=0 dh=145 dv=0
Position2: "Single Positioning lookup 209 subtable" dx=145 dy=0 dh=145 dv=0
Position2: "Single Positioning lookup 208 subtable" dx=145 dy=0 dh=145 dv=0
Position2: "Single Positioning lookup 207 subtable" dx=145 dy=0 dh=145 dv=0
Position2: "Single Positioning lookup 206 subtable" dx=145 dy=0 dh=145 dv=0
Position2: "Single Positioning lookup 204 subtable" dx=145 dy=0 dh=145 dv=0
Position2: "Single Positioning lookup 203 subtable" dx=145 dy=0 dh=145 dv=0
Position2: "Single Positioning lookup 202 subtable" dx=145 dy=0 dh=145 dv=0
Position2: "Single Positioning lookup 200 subtable" dx=145 dy=0 dh=145 dv=0
Position2: "Single Positioning lookup 199 subtable" dx=145 dy=0 dh=145 dv=0
Position2: "Single Positioning lookup 198 subtable" dx=145 dy=0 dh=145 dv=0
Position2: "Single Positioning lookup 197 subtable" dx=145 dy=0 dh=145 dv=0
Position2: "Single Positioning lookup 196 subtable" dx=145 dy=0 dh=145 dv=0
Position2: "Single Positioning lookup 195 subtable" dx=145 dy=0 dh=145 dv=0
Position2: "Single Positioning lookup 194 subtable" dx=145 dy=0 dh=145 dv=0
Position2: "Single Positioning lookup 193 subtable" dx=145 dy=0 dh=145 dv=0
Position2: "Single Positioning lookup 192 subtable" dx=145 dy=0 dh=145 dv=0
Position2: "Single Positioning lookup 191 subtable" dx=145 dy=0 dh=145 dv=0
Position2: "Single Positioning lookup 190 subtable" dx=145 dy=0 dh=145 dv=0
Position2: "Single Positioning lookup 189 subtable" dx=145 dy=0 dh=145 dv=0
Position2: "Single Positioning lookup 188 subtable" dx=145 dy=0 dh=145 dv=0
Position2: "Single Positioning lookup 187 subtable" dx=145 dy=0 dh=145 dv=0
Position2: "Single Positioning lookup 186 subtable" dx=145 dy=0 dh=145 dv=0
Position2: "Single Positioning lookup 185 subtable" dx=145 dy=0 dh=145 dv=0
Position2: "Single Positioning lookup 184 subtable" dx=145 dy=0 dh=145 dv=0
Position2: "Single Positioning lookup 183 subtable" dx=145 dy=0 dh=145 dv=0
Position2: "Single Positioning lookup 182 subtable" dx=145 dy=0 dh=145 dv=0
Position2: "Single Positioning lookup 181 subtable" dx=145 dy=0 dh=145 dv=0
Position2: "Single Positioning lookup 180 subtable" dx=247 dy=0 dh=247 dv=0
Position2: "Single Positioning lookup 179 subtable" dx=247 dy=0 dh=247 dv=0
Position2: "Single Positioning lookup 178 subtable" dx=247 dy=0 dh=247 dv=0
Position2: "Single Positioning lookup 177 subtable" dx=247 dy=0 dh=247 dv=0
Position2: "Single Positioning lookup 176 subtable" dx=247 dy=0 dh=247 dv=0
Position2: "Single Positioning lookup 174 subtable" dx=247 dy=0 dh=247 dv=0
Position2: "Single Positioning lookup 173 subtable" dx=247 dy=0 dh=247 dv=0
Position2: "Single Positioning lookup 172 subtable" dx=247 dy=0 dh=247 dv=0
Position2: "Single Positioning lookup 171 subtable" dx=247 dy=0 dh=247 dv=0
Position2: "Single Positioning lookup 170 subtable" dx=247 dy=0 dh=247 dv=0
Position2: "Single Positioning lookup 169 subtable" dx=247 dy=0 dh=247 dv=0
Position2: "Single Positioning lookup 168 subtable" dx=247 dy=0 dh=247 dv=0
Position2: "Single Positioning lookup 167 subtable" dx=247 dy=0 dh=247 dv=0
Position2: "Single Positioning lookup 166 subtable" dx=247 dy=0 dh=247 dv=0
Position2: "Single Positioning lookup 165 subtable" dx=247 dy=0 dh=247 dv=0
Position2: "Single Positioning lookup 164 subtable" dx=247 dy=0 dh=247 dv=0
Position2: "Single Positioning lookup 163 subtable" dx=247 dy=0 dh=247 dv=0
Position2: "Single Positioning lookup 162 subtable" dx=247 dy=0 dh=247 dv=0
Position2: "Single Positioning lookup 161 subtable" dx=247 dy=0 dh=247 dv=0
Position2: "Single Positioning lookup 160 subtable" dx=247 dy=0 dh=247 dv=0
Position2: "Single Positioning lookup 159 subtable" dx=247 dy=0 dh=247 dv=0
Position2: "Single Positioning lookup 158 subtable" dx=247 dy=0 dh=247 dv=0
Position2: "Single Positioning lookup 157 subtable" dx=247 dy=0 dh=247 dv=0
Position2: "Single Positioning lookup 156 subtable" dx=247 dy=0 dh=247 dv=0
Position2: "Single Positioning lookup 155 subtable" dx=247 dy=0 dh=247 dv=0
Position2: "Single Positioning lookup 154 subtable" dx=247 dy=0 dh=247 dv=0
Position2: "Single Positioning lookup 153 subtable" dx=247 dy=0 dh=247 dv=0
Position2: "Single Positioning lookup 152 subtable" dx=247 dy=0 dh=247 dv=0
Position2: "Single Positioning lookup 151 subtable" dx=247 dy=0 dh=247 dv=0
Position2: "Single Positioning lookup 150 subtable" dx=247 dy=0 dh=247 dv=0
Position2: "Single Positioning lookup 149 subtable" dx=247 dy=0 dh=247 dv=0
Position2: "Single Positioning lookup 148 subtable" dx=247 dy=0 dh=247 dv=0
Position2: "Single Positioning lookup 147 subtable" dx=247 dy=0 dh=247 dv=0
Position2: "Single Positioning lookup 146 subtable" dx=247 dy=0 dh=247 dv=0
Position2: "Single Positioning lookup 145 subtable" dx=247 dy=0 dh=247 dv=0
Position2: "Single Positioning lookup 144 subtable" dx=247 dy=0 dh=247 dv=0
Position2: "Single Positioning lookup 143 subtable" dx=247 dy=0 dh=247 dv=0
Position2: "Single Positioning lookup 142 subtable" dx=247 dy=0 dh=247 dv=0
Position2: "Single Positioning lookup 141 subtable" dx=247 dy=0 dh=247 dv=0
Position2: "Single Positioning lookup 140 subtable" dx=247 dy=0 dh=247 dv=0
Position2: "Single Positioning lookup 139 subtable" dx=208 dy=0 dh=208 dv=0
Position2: "Single Positioning lookup 138 subtable" dx=208 dy=0 dh=208 dv=0
Position2: "Single Positioning lookup 137 subtable" dx=208 dy=0 dh=208 dv=0
Position2: "Single Positioning lookup 136 subtable" dx=208 dy=0 dh=208 dv=0
Position2: "Single Positioning lookup 133 subtable" dx=208 dy=0 dh=208 dv=0
Position2: "Single Positioning lookup 132 subtable" dx=208 dy=0 dh=208 dv=0
Position2: "Single Positioning lookup 131 subtable" dx=208 dy=0 dh=208 dv=0
Position2: "Single Positioning lookup 130 subtable" dx=208 dy=0 dh=208 dv=0
Position2: "Single Positioning lookup 129 subtable" dx=208 dy=0 dh=208 dv=0
Position2: "Single Positioning lookup 128 subtable" dx=208 dy=0 dh=208 dv=0
Position2: "Single Positioning lookup 127 subtable" dx=208 dy=0 dh=208 dv=0
Position2: "Single Positioning lookup 126 subtable" dx=208 dy=0 dh=208 dv=0
Position2: "Single Positioning lookup 125 subtable" dx=208 dy=0 dh=208 dv=0
Position2: "Single Positioning lookup 124 subtable" dx=208 dy=0 dh=208 dv=0
Position2: "Single Positioning lookup 123 subtable" dx=208 dy=0 dh=208 dv=0
Position2: "Single Positioning lookup 122 subtable" dx=208 dy=0 dh=208 dv=0
Position2: "Single Positioning lookup 121 subtable" dx=208 dy=0 dh=208 dv=0
Position2: "Single Positioning lookup 120 subtable" dx=208 dy=0 dh=208 dv=0
Position2: "Single Positioning lookup 119 subtable" dx=208 dy=0 dh=208 dv=0
Position2: "Single Positioning lookup 118 subtable" dx=208 dy=0 dh=208 dv=0
Position2: "Single Positioning lookup 117 subtable" dx=208 dy=0 dh=208 dv=0
Position2: "Single Positioning lookup 116 subtable" dx=208 dy=0 dh=208 dv=0
Position2: "Single Positioning lookup 115 subtable" dx=208 dy=0 dh=208 dv=0
Position2: "Single Positioning lookup 114 subtable" dx=208 dy=0 dh=208 dv=0
Position2: "Single Positioning lookup 113 subtable" dx=208 dy=0 dh=208 dv=0
Position2: "Single Positioning lookup 112 subtable" dx=208 dy=0 dh=208 dv=0
Position2: "Single Positioning lookup 111 subtable" dx=208 dy=0 dh=208 dv=0
Position2: "Single Positioning lookup 110 subtable" dx=208 dy=0 dh=208 dv=0
Position2: "Single Positioning lookup 109 subtable" dx=208 dy=0 dh=208 dv=0
Position2: "Single Positioning lookup 108 subtable" dx=208 dy=0 dh=208 dv=0
Position2: "Single Positioning lookup 107 subtable" dx=208 dy=0 dh=208 dv=0
Position2: "Single Positioning lookup 106 subtable" dx=208 dy=0 dh=208 dv=0
Position2: "Single Positioning lookup 105 subtable" dx=208 dy=0 dh=208 dv=0
Position2: "Single Positioning lookup 104 subtable" dx=208 dy=0 dh=208 dv=0
Position2: "Single Positioning lookup 103 subtable" dx=208 dy=0 dh=208 dv=0
Position2: "Single Positioning lookup 102 subtable" dx=208 dy=0 dh=208 dv=0
Position2: "Single Positioning lookup 101 subtable" dx=208 dy=0 dh=208 dv=0
Position2: "Single Positioning lookup 100 subtable" dx=208 dy=0 dh=208 dv=0
Position2: "Single Positioning lookup 99 subtable" dx=208 dy=0 dh=208 dv=0
Position2: "Single Positioning lookup 51 subtable" dx=56 dy=0 dh=56 dv=0
Position2: "Single Positioning lookup 50 subtable" dx=98 dy=0 dh=98 dv=0
Position2: "Single Positioning lookup 49 subtable" dx=209 dy=0 dh=209 dv=0
Position2: "Single Positioning lookup 48 subtable" dx=334 dy=0 dh=334 dv=0
Position2: "Single Positioning lookup 47 subtable" dx=198 dy=0 dh=198 dv=0
Position2: "Single Positioning lookup 44 subtable" dx=0 dy=0 dh=347 dv=0
Position2: "Single Positioning lookup 43 subtable" dx=277 dy=0 dh=277 dv=0
Position2: "Single Positioning lookup 42 subtable" dx=0 dy=0 dh=397 dv=0
Position2: "Single Positioning lookup 41 subtable" dx=328 dy=0 dh=328 dv=0
Position2: "Single Positioning lookup 40 subtable" dx=56 dy=0 dh=56 dv=0
Position2: "Single Positioning lookup 36 subtable" dx=163 dy=0 dh=163 dv=0
Position2: "Single Positioning lookup 35 subtable" dx=86 dy=0 dh=86 dv=0
Position2: "Single Positioning lookup 34 subtable" dx=128 dy=0 dh=128 dv=0
Position2: "Single Positioning lookup 33 subtable" dx=253 dy=0 dh=253 dv=0
Position2: "Single Positioning lookup 30 subtable" dx=81 dy=0 dh=81 dv=0
Position2: "Single Positioning lookup 29 subtable" dx=292 dy=0 dh=292 dv=0
Position2: "Single Positioning lookup 28 subtable" dx=173 dy=0 dh=173 dv=0
Position2: "Single Positioning lookup 25 subtable" dx=12 dy=0 dh=12 dv=0
Position2: "Single Positioning lookup 22 subtable" dx=58 dy=0 dh=58 dv=0
Position2: "Single Positioning lookup 19 subtable" dx=187 dy=0 dh=187 dv=0
Position2: "Single Positioning lookup 18 subtable" dx=69 dy=0 dh=69 dv=0
Position2: "Single Positioning lookup 15 subtable" dx=55 dy=0 dh=55 dv=0
Position2: "Single Positioning lookup 14 subtable" dx=0 dy=0 dh=276 dv=0
Position2: "Single Positioning lookup 13 subtable" dx=206 dy=0 dh=206 dv=0
Position2: "Single Positioning lookup 10 subtable" dx=207 dy=0 dh=207 dv=0
Position2: "Single Positioning lookup 9 subtable" dx=89 dy=0 dh=89 dv=0
Position2: "Single Positioning lookup 8 subtable" dx=101 dy=0 dh=101 dv=0
Position2: "Single Positioning lookup 7 subtable" dx=210 dy=0 dh=210 dv=0
Position2: "Single Positioning lookup 6 subtable" dx=113 dy=0 dh=113 dv=0
Position2: "Single Positioning lookup 4 subtable" dx=371 dy=0 dh=371 dv=0
Position2: "Single Positioning lookup 3 subtable" dx=37 dy=0 dh=37 dv=0
Position2: "Single Positioning lookup 2 subtable" dx=94 dy=0 dh=94 dv=0
EndChar

StartChar: uni1B19
Encoding: 6937 6937 30
Width: 927
GlyphClass: 2
Flags: W
AnchorPoint: "Anchor-3" 488 0 basechar 0
AnchorPoint: "Anchor-0" 488 525 basechar 0
LayerCount: 2
Fore
SplineSet
598 -4 m 1,0,-1
 583 -4 l 1,1,-1
 583 -3 l 1,2,3
 450 7 450 7 401 169 c 0,4,5
 350 342 350 342 225 342 c 0,6,7
 146 342 146 342 110 289 c 128,-1,8
 74 236 74 236 74 160 c 0,9,10
 77 63 77 63 148 53 c 1,11,12
 228 53 228 53 228 160 c 0,13,14
 228 187 228 187 223 222 c 1,15,-1
 240 226 l 1,16,17
 258 158 258 158 258 111 c 0,18,19
 258 -3 258 -3 156 -3 c 0,20,21
 38 1 38 1 38 172 c 0,22,23
 38 439 38 439 227 439 c 0,24,25
 360 436 360 436 407 264 c 0,26,27
 452 97 452 97 592 94 c 0,28,29
 664 95 664 95 697.5 136 c 128,-1,30
 731 177 731 177 731 234 c 2,31,-1
 731 442 l 1,32,33
 874 431 874 431 879 273 c 1,34,-1
 879 0 l 1,35,-1
 849 0 l 1,36,-1
 849 198 l 2,37,38
 846 333 846 333 762 342 c 1,39,-1
 762 197 l 2,40,41
 762 111 762 111 718.5 55.5 c 128,-1,42
 675 0 675 0 598 -4 c 1,0,-1
EndSplineSet
MultipleSubs2: "Multiple Substitution lookup 317 subtable" uni1B19 _reorder
MultipleSubs2: "Multiple Substitution lookup 261 subtable" uni1B19 _reorder
MultipleSubs2: "Multiple Substitution lookup 205 subtable" uni1B19 _reorder
MultipleSubs2: "Multiple Substitution lookup 143 subtable" uni1B19 _reorder
MultipleSubs2: "Multiple Substitution lookup 87 subtable" uni1B19 _reorder
MultipleSubs2: "Multiple Substitution lookup 31 subtable" uni1B19 _reorder
Position2: "Single Positioning lookup 299 subtable" dx=115 dy=0 dh=115 dv=0
Position2: "Single Positioning lookup 298 subtable" dx=115 dy=0 dh=115 dv=0
Position2: "Single Positioning lookup 296 subtable" dx=115 dy=0 dh=115 dv=0
Position2: "Single Positioning lookup 294 subtable" dx=115 dy=0 dh=115 dv=0
Position2: "Single Positioning lookup 291 subtable" dx=115 dy=0 dh=115 dv=0
Position2: "Single Positioning lookup 287 subtable" dx=115 dy=0 dh=115 dv=0
Position2: "Single Positioning lookup 286 subtable" dx=115 dy=0 dh=115 dv=0
Position2: "Single Positioning lookup 277 subtable" dx=115 dy=0 dh=115 dv=0
Position2: "Single Positioning lookup 272 subtable" dx=115 dy=0 dh=115 dv=0
Position2: "Single Positioning lookup 269 subtable" dx=115 dy=0 dh=115 dv=0
Position2: "Single Positioning lookup 266 subtable" dx=115 dy=0 dh=115 dv=0
Position2: "Single Positioning lookup 263 subtable" dx=115 dy=0 dh=115 dv=0
Position2: "Single Positioning lookup 260 subtable" dx=125 dy=0 dh=125 dv=0
Position2: "Single Positioning lookup 259 subtable" dx=125 dy=0 dh=125 dv=0
Position2: "Single Positioning lookup 257 subtable" dx=125 dy=0 dh=125 dv=0
Position2: "Single Positioning lookup 254 subtable" dx=125 dy=0 dh=125 dv=0
Position2: "Single Positioning lookup 252 subtable" dx=125 dy=0 dh=125 dv=0
Position2: "Single Positioning lookup 251 subtable" dx=125 dy=0 dh=125 dv=0
Position2: "Single Positioning lookup 247 subtable" dx=125 dy=0 dh=125 dv=0
Position2: "Single Positioning lookup 246 subtable" dx=125 dy=0 dh=125 dv=0
Position2: "Single Positioning lookup 237 subtable" dx=125 dy=0 dh=125 dv=0
Position2: "Single Positioning lookup 232 subtable" dx=125 dy=0 dh=125 dv=0
Position2: "Single Positioning lookup 229 subtable" dx=125 dy=0 dh=125 dv=0
Position2: "Single Positioning lookup 226 subtable" dx=125 dy=0 dh=125 dv=0
Position2: "Single Positioning lookup 223 subtable" dx=125 dy=0 dh=125 dv=0
Position2: "Single Positioning lookup 220 subtable" dx=145 dy=0 dh=145 dv=0
Position2: "Single Positioning lookup 219 subtable" dx=145 dy=0 dh=145 dv=0
Position2: "Single Positioning lookup 217 subtable" dx=145 dy=0 dh=145 dv=0
Position2: "Single Positioning lookup 214 subtable" dx=145 dy=0 dh=145 dv=0
Position2: "Single Positioning lookup 212 subtable" dx=145 dy=0 dh=145 dv=0
Position2: "Single Positioning lookup 211 subtable" dx=145 dy=0 dh=145 dv=0
Position2: "Single Positioning lookup 207 subtable" dx=145 dy=0 dh=145 dv=0
Position2: "Single Positioning lookup 206 subtable" dx=145 dy=0 dh=145 dv=0
Position2: "Single Positioning lookup 197 subtable" dx=145 dy=0 dh=145 dv=0
Position2: "Single Positioning lookup 192 subtable" dx=145 dy=0 dh=145 dv=0
Position2: "Single Positioning lookup 189 subtable" dx=145 dy=0 dh=145 dv=0
Position2: "Single Positioning lookup 187 subtable" dx=145 dy=0 dh=145 dv=0
Position2: "Single Positioning lookup 186 subtable" dx=145 dy=0 dh=145 dv=0
Position2: "Single Positioning lookup 185 subtable" dx=145 dy=0 dh=145 dv=0
Position2: "Single Positioning lookup 183 subtable" dx=145 dy=0 dh=145 dv=0
Position2: "Single Positioning lookup 180 subtable" dx=247 dy=0 dh=247 dv=0
Position2: "Single Positioning lookup 179 subtable" dx=247 dy=0 dh=247 dv=0
Position2: "Single Positioning lookup 178 subtable" dx=247 dy=0 dh=247 dv=0
Position2: "Single Positioning lookup 177 subtable" dx=247 dy=0 dh=247 dv=0
Position2: "Single Positioning lookup 173 subtable" dx=247 dy=0 dh=247 dv=0
Position2: "Single Positioning lookup 172 subtable" dx=247 dy=0 dh=247 dv=0
Position2: "Single Positioning lookup 171 subtable" dx=247 dy=0 dh=247 dv=0
Position2: "Single Positioning lookup 170 subtable" dx=247 dy=0 dh=247 dv=0
Position2: "Single Positioning lookup 167 subtable" dx=247 dy=0 dh=247 dv=0
Position2: "Single Positioning lookup 166 subtable" dx=247 dy=0 dh=247 dv=0
Position2: "Single Positioning lookup 165 subtable" dx=247 dy=0 dh=247 dv=0
Position2: "Single Positioning lookup 162 subtable" dx=247 dy=0 dh=247 dv=0
Position2: "Single Positioning lookup 159 subtable" dx=247 dy=0 dh=247 dv=0
Position2: "Single Positioning lookup 156 subtable" dx=247 dy=0 dh=247 dv=0
Position2: "Single Positioning lookup 155 subtable" dx=247 dy=0 dh=247 dv=0
Position2: "Single Positioning lookup 152 subtable" dx=247 dy=0 dh=247 dv=0
Position2: "Single Positioning lookup 151 subtable" dx=247 dy=0 dh=247 dv=0
Position2: "Single Positioning lookup 148 subtable" dx=247 dy=0 dh=247 dv=0
Position2: "Single Positioning lookup 147 subtable" dx=247 dy=0 dh=247 dv=0
Position2: "Single Positioning lookup 146 subtable" dx=247 dy=0 dh=247 dv=0
Position2: "Single Positioning lookup 145 subtable" dx=247 dy=0 dh=247 dv=0
Position2: "Single Positioning lookup 144 subtable" dx=247 dy=0 dh=247 dv=0
Position2: "Single Positioning lookup 142 subtable" dx=247 dy=0 dh=247 dv=0
Position2: "Single Positioning lookup 141 subtable" dx=247 dy=0 dh=247 dv=0
Position2: "Single Positioning lookup 140 subtable" dx=247 dy=0 dh=247 dv=0
Position2: "Single Positioning lookup 139 subtable" dx=208 dy=0 dh=208 dv=0
Position2: "Single Positioning lookup 138 subtable" dx=208 dy=0 dh=208 dv=0
Position2: "Single Positioning lookup 137 subtable" dx=208 dy=0 dh=208 dv=0
Position2: "Single Positioning lookup 136 subtable" dx=208 dy=0 dh=208 dv=0
Position2: "Single Positioning lookup 132 subtable" dx=208 dy=0 dh=208 dv=0
Position2: "Single Positioning lookup 131 subtable" dx=208 dy=0 dh=208 dv=0
Position2: "Single Positioning lookup 130 subtable" dx=208 dy=0 dh=208 dv=0
Position2: "Single Positioning lookup 129 subtable" dx=208 dy=0 dh=208 dv=0
Position2: "Single Positioning lookup 126 subtable" dx=208 dy=0 dh=208 dv=0
Position2: "Single Positioning lookup 125 subtable" dx=208 dy=0 dh=208 dv=0
Position2: "Single Positioning lookup 124 subtable" dx=208 dy=0 dh=208 dv=0
Position2: "Single Positioning lookup 118 subtable" dx=208 dy=0 dh=208 dv=0
Position2: "Single Positioning lookup 115 subtable" dx=208 dy=0 dh=208 dv=0
Position2: "Single Positioning lookup 114 subtable" dx=208 dy=0 dh=208 dv=0
Position2: "Single Positioning lookup 111 subtable" dx=208 dy=0 dh=208 dv=0
Position2: "Single Positioning lookup 110 subtable" dx=208 dy=0 dh=208 dv=0
Position2: "Single Positioning lookup 107 subtable" dx=208 dy=0 dh=208 dv=0
Position2: "Single Positioning lookup 106 subtable" dx=208 dy=0 dh=208 dv=0
Position2: "Single Positioning lookup 105 subtable" dx=208 dy=0 dh=208 dv=0
Position2: "Single Positioning lookup 104 subtable" dx=208 dy=0 dh=208 dv=0
Position2: "Single Positioning lookup 103 subtable" dx=208 dy=0 dh=208 dv=0
Position2: "Single Positioning lookup 101 subtable" dx=208 dy=0 dh=208 dv=0
Position2: "Single Positioning lookup 100 subtable" dx=208 dy=0 dh=208 dv=0
Position2: "Single Positioning lookup 99 subtable" dx=208 dy=0 dh=208 dv=0
Position2: "Single Positioning lookup 48 subtable" dx=91 dy=0 dh=91 dv=0
Position2: "Single Positioning lookup 44 subtable" dx=0 dy=0 dh=215 dv=0
Position2: "Single Positioning lookup 43 subtable" dx=166 dy=0 dh=166 dv=0
Position2: "Single Positioning lookup 42 subtable" dx=0 dy=0 dh=265 dv=0
Position2: "Single Positioning lookup 41 subtable" dx=217 dy=0 dh=217 dv=0
Position2: "Single Positioning lookup 33 subtable" dx=10 dy=0 dh=10 dv=0
Position2: "Single Positioning lookup 29 subtable" dx=49 dy=0 dh=49 dv=0
Position2: "Single Positioning lookup 14 subtable" dx=0 dy=0 dh=144 dv=0
Position2: "Single Positioning lookup 13 subtable" dx=95 dy=0 dh=95 dv=0
Position2: "Single Positioning lookup 4 subtable" dx=128 dy=0 dh=128 dv=0
EndChar

StartChar: uni1B1A
Encoding: 6938 6938 31
Width: 657
GlyphClass: 2
Flags: W
AnchorPoint: "Anchor-3" 407 0 basechar 0
AnchorPoint: "Anchor-0" 334 525 basechar 0
LayerCount: 2
Fore
SplineSet
295 -5 m 1,0,1
 219 11 219 11 152 41 c 0,2,3
 70 76 70 76 70 163 c 0,4,5
 70 212 70 212 100 268 c 0,6,7
 125 308 125 308 125 328 c 0,8,9
 125 346 125 346 103 346 c 0,10,11
 68 346 68 346 68 297 c 0,12,13
 68 280 68 280 73 256 c 1,14,-1
 59 254 l 1,15,16
 45 291 45 291 45 328 c 0,17,18
 45 440 45 440 119 440 c 1,19,20
 180 436 180 436 180 378 c 0,21,22
 180 342 180 342 143.5 287 c 128,-1,23
 107 232 107 232 107 194 c 0,24,25
 107 135 107 135 204 100 c 1,26,27
 189 135 189 135 185 194 c 1,28,29
 188 434 188 434 371 439 c 1,30,-1
 422 439 l 2,31,32
 591 439 591 439 600 313 c 1,33,-1
 600 303 l 2,34,35
 600 218 600 218 514 173 c 1,36,37
 607 140 607 140 607 21 c 2,38,-1
 607 0 l 1,39,-1
 577 0 l 1,40,-1
 577 12 l 2,41,42
 577 152 577 152 423 156 c 1,43,-1
 338 156 l 1,44,-1
 338 189 l 1,45,-1
 423 190 l 2,46,47
 481 193 481 193 517.5 212 c 128,-1,48
 554 231 554 231 554 261 c 0,49,50
 554 333 554 333 399 342 c 1,51,-1
 374 342 l 1,52,53
 241 335 241 335 222 246 c 1,54,-1
 220 202 l 1,55,56
 220 77 220 77 305 9 c 1,57,-1
 295 -5 l 1,0,1
EndSplineSet
MultipleSubs2: "Multiple Substitution lookup 318 subtable" uni1B1A _reorder
MultipleSubs2: "Multiple Substitution lookup 262 subtable" uni1B1A _reorder
MultipleSubs2: "Multiple Substitution lookup 206 subtable" uni1B1A _reorder
MultipleSubs2: "Multiple Substitution lookup 144 subtable" uni1B1A _reorder
MultipleSubs2: "Multiple Substitution lookup 88 subtable" uni1B1A _reorder
MultipleSubs2: "Multiple Substitution lookup 32 subtable" uni1B1A _reorder
Position2: "Single Positioning lookup 299 subtable" dx=115 dy=0 dh=115 dv=0
Position2: "Single Positioning lookup 298 subtable" dx=115 dy=0 dh=115 dv=0
Position2: "Single Positioning lookup 297 subtable" dx=115 dy=0 dh=115 dv=0
Position2: "Single Positioning lookup 296 subtable" dx=115 dy=0 dh=115 dv=0
Position2: "Single Positioning lookup 295 subtable" dx=115 dy=0 dh=115 dv=0
Position2: "Single Positioning lookup 294 subtable" dx=115 dy=0 dh=115 dv=0
Position2: "Single Positioning lookup 293 subtable" dx=115 dy=0 dh=115 dv=0
Position2: "Single Positioning lookup 292 subtable" dx=115 dy=0 dh=115 dv=0
Position2: "Single Positioning lookup 291 subtable" dx=115 dy=0 dh=115 dv=0
Position2: "Single Positioning lookup 289 subtable" dx=115 dy=0 dh=115 dv=0
Position2: "Single Positioning lookup 288 subtable" dx=115 dy=0 dh=115 dv=0
Position2: "Single Positioning lookup 287 subtable" dx=115 dy=0 dh=115 dv=0
Position2: "Single Positioning lookup 286 subtable" dx=115 dy=0 dh=115 dv=0
Position2: "Single Positioning lookup 284 subtable" dx=115 dy=0 dh=115 dv=0
Position2: "Single Positioning lookup 283 subtable" dx=115 dy=0 dh=115 dv=0
Position2: "Single Positioning lookup 282 subtable" dx=115 dy=0 dh=115 dv=0
Position2: "Single Positioning lookup 280 subtable" dx=115 dy=0 dh=115 dv=0
Position2: "Single Positioning lookup 279 subtable" dx=115 dy=0 dh=115 dv=0
Position2: "Single Positioning lookup 278 subtable" dx=115 dy=0 dh=115 dv=0
Position2: "Single Positioning lookup 277 subtable" dx=115 dy=0 dh=115 dv=0
Position2: "Single Positioning lookup 276 subtable" dx=115 dy=0 dh=115 dv=0
Position2: "Single Positioning lookup 275 subtable" dx=115 dy=0 dh=115 dv=0
Position2: "Single Positioning lookup 274 subtable" dx=115 dy=0 dh=115 dv=0
Position2: "Single Positioning lookup 273 subtable" dx=115 dy=0 dh=115 dv=0
Position2: "Single Positioning lookup 272 subtable" dx=115 dy=0 dh=115 dv=0
Position2: "Single Positioning lookup 271 subtable" dx=115 dy=0 dh=115 dv=0
Position2: "Single Positioning lookup 270 subtable" dx=115 dy=0 dh=115 dv=0
Position2: "Single Positioning lookup 269 subtable" dx=115 dy=0 dh=115 dv=0
Position2: "Single Positioning lookup 268 subtable" dx=115 dy=0 dh=115 dv=0
Position2: "Single Positioning lookup 267 subtable" dx=115 dy=0 dh=115 dv=0
Position2: "Single Positioning lookup 266 subtable" dx=115 dy=0 dh=115 dv=0
Position2: "Single Positioning lookup 265 subtable" dx=115 dy=0 dh=115 dv=0
Position2: "Single Positioning lookup 264 subtable" dx=115 dy=0 dh=115 dv=0
Position2: "Single Positioning lookup 263 subtable" dx=115 dy=0 dh=115 dv=0
Position2: "Single Positioning lookup 262 subtable" dx=115 dy=0 dh=115 dv=0
Position2: "Single Positioning lookup 261 subtable" dx=115 dy=0 dh=115 dv=0
Position2: "Single Positioning lookup 260 subtable" dx=125 dy=0 dh=125 dv=0
Position2: "Single Positioning lookup 259 subtable" dx=125 dy=0 dh=125 dv=0
Position2: "Single Positioning lookup 258 subtable" dx=125 dy=0 dh=125 dv=0
Position2: "Single Positioning lookup 257 subtable" dx=125 dy=0 dh=125 dv=0
Position2: "Single Positioning lookup 255 subtable" dx=125 dy=0 dh=125 dv=0
Position2: "Single Positioning lookup 254 subtable" dx=125 dy=0 dh=125 dv=0
Position2: "Single Positioning lookup 253 subtable" dx=125 dy=0 dh=125 dv=0
Position2: "Single Positioning lookup 252 subtable" dx=125 dy=0 dh=125 dv=0
Position2: "Single Positioning lookup 251 subtable" dx=125 dy=0 dh=125 dv=0
Position2: "Single Positioning lookup 249 subtable" dx=125 dy=0 dh=125 dv=0
Position2: "Single Positioning lookup 248 subtable" dx=125 dy=0 dh=125 dv=0
Position2: "Single Positioning lookup 247 subtable" dx=125 dy=0 dh=125 dv=0
Position2: "Single Positioning lookup 246 subtable" dx=125 dy=0 dh=125 dv=0
Position2: "Single Positioning lookup 244 subtable" dx=125 dy=0 dh=125 dv=0
Position2: "Single Positioning lookup 243 subtable" dx=125 dy=0 dh=125 dv=0
Position2: "Single Positioning lookup 242 subtable" dx=125 dy=0 dh=125 dv=0
Position2: "Single Positioning lookup 240 subtable" dx=125 dy=0 dh=125 dv=0
Position2: "Single Positioning lookup 239 subtable" dx=125 dy=0 dh=125 dv=0
Position2: "Single Positioning lookup 238 subtable" dx=125 dy=0 dh=125 dv=0
Position2: "Single Positioning lookup 237 subtable" dx=125 dy=0 dh=125 dv=0
Position2: "Single Positioning lookup 236 subtable" dx=125 dy=0 dh=125 dv=0
Position2: "Single Positioning lookup 235 subtable" dx=125 dy=0 dh=125 dv=0
Position2: "Single Positioning lookup 234 subtable" dx=125 dy=0 dh=125 dv=0
Position2: "Single Positioning lookup 233 subtable" dx=125 dy=0 dh=125 dv=0
Position2: "Single Positioning lookup 232 subtable" dx=125 dy=0 dh=125 dv=0
Position2: "Single Positioning lookup 231 subtable" dx=125 dy=0 dh=125 dv=0
Position2: "Single Positioning lookup 230 subtable" dx=125 dy=0 dh=125 dv=0
Position2: "Single Positioning lookup 229 subtable" dx=125 dy=0 dh=125 dv=0
Position2: "Single Positioning lookup 228 subtable" dx=125 dy=0 dh=125 dv=0
Position2: "Single Positioning lookup 227 subtable" dx=125 dy=0 dh=125 dv=0
Position2: "Single Positioning lookup 226 subtable" dx=125 dy=0 dh=125 dv=0
Position2: "Single Positioning lookup 225 subtable" dx=125 dy=0 dh=125 dv=0
Position2: "Single Positioning lookup 224 subtable" dx=125 dy=0 dh=125 dv=0
Position2: "Single Positioning lookup 223 subtable" dx=125 dy=0 dh=125 dv=0
Position2: "Single Positioning lookup 222 subtable" dx=125 dy=0 dh=125 dv=0
Position2: "Single Positioning lookup 221 subtable" dx=125 dy=0 dh=125 dv=0
Position2: "Single Positioning lookup 220 subtable" dx=145 dy=0 dh=145 dv=0
Position2: "Single Positioning lookup 219 subtable" dx=145 dy=0 dh=145 dv=0
Position2: "Single Positioning lookup 218 subtable" dx=145 dy=0 dh=145 dv=0
Position2: "Single Positioning lookup 217 subtable" dx=145 dy=0 dh=145 dv=0
Position2: "Single Positioning lookup 215 subtable" dx=145 dy=0 dh=145 dv=0
Position2: "Single Positioning lookup 214 subtable" dx=145 dy=0 dh=145 dv=0
Position2: "Single Positioning lookup 213 subtable" dx=145 dy=0 dh=145 dv=0
Position2: "Single Positioning lookup 212 subtable" dx=145 dy=0 dh=145 dv=0
Position2: "Single Positioning lookup 211 subtable" dx=145 dy=0 dh=145 dv=0
Position2: "Single Positioning lookup 210 subtable" dx=145 dy=0 dh=145 dv=0
Position2: "Single Positioning lookup 209 subtable" dx=145 dy=0 dh=145 dv=0
Position2: "Single Positioning lookup 208 subtable" dx=145 dy=0 dh=145 dv=0
Position2: "Single Positioning lookup 207 subtable" dx=145 dy=0 dh=145 dv=0
Position2: "Single Positioning lookup 206 subtable" dx=145 dy=0 dh=145 dv=0
Position2: "Single Positioning lookup 205 subtable" dx=145 dy=0 dh=145 dv=0
Position2: "Single Positioning lookup 204 subtable" dx=145 dy=0 dh=145 dv=0
Position2: "Single Positioning lookup 203 subtable" dx=145 dy=0 dh=145 dv=0
Position2: "Single Positioning lookup 202 subtable" dx=145 dy=0 dh=145 dv=0
Position2: "Single Positioning lookup 200 subtable" dx=145 dy=0 dh=145 dv=0
Position2: "Single Positioning lookup 199 subtable" dx=145 dy=0 dh=145 dv=0
Position2: "Single Positioning lookup 198 subtable" dx=145 dy=0 dh=145 dv=0
Position2: "Single Positioning lookup 197 subtable" dx=145 dy=0 dh=145 dv=0
Position2: "Single Positioning lookup 196 subtable" dx=145 dy=0 dh=145 dv=0
Position2: "Single Positioning lookup 195 subtable" dx=145 dy=0 dh=145 dv=0
Position2: "Single Positioning lookup 194 subtable" dx=145 dy=0 dh=145 dv=0
Position2: "Single Positioning lookup 193 subtable" dx=145 dy=0 dh=145 dv=0
Position2: "Single Positioning lookup 192 subtable" dx=145 dy=0 dh=145 dv=0
Position2: "Single Positioning lookup 191 subtable" dx=145 dy=0 dh=145 dv=0
Position2: "Single Positioning lookup 190 subtable" dx=145 dy=0 dh=145 dv=0
Position2: "Single Positioning lookup 189 subtable" dx=145 dy=0 dh=145 dv=0
Position2: "Single Positioning lookup 188 subtable" dx=145 dy=0 dh=145 dv=0
Position2: "Single Positioning lookup 187 subtable" dx=145 dy=0 dh=145 dv=0
Position2: "Single Positioning lookup 186 subtable" dx=145 dy=0 dh=145 dv=0
Position2: "Single Positioning lookup 185 subtable" dx=145 dy=0 dh=145 dv=0
Position2: "Single Positioning lookup 184 subtable" dx=145 dy=0 dh=145 dv=0
Position2: "Single Positioning lookup 183 subtable" dx=145 dy=0 dh=145 dv=0
Position2: "Single Positioning lookup 182 subtable" dx=145 dy=0 dh=145 dv=0
Position2: "Single Positioning lookup 181 subtable" dx=145 dy=0 dh=145 dv=0
Position2: "Single Positioning lookup 180 subtable" dx=247 dy=0 dh=247 dv=0
Position2: "Single Positioning lookup 179 subtable" dx=247 dy=0 dh=247 dv=0
Position2: "Single Positioning lookup 178 subtable" dx=247 dy=0 dh=247 dv=0
Position2: "Single Positioning lookup 177 subtable" dx=247 dy=0 dh=247 dv=0
Position2: "Single Positioning lookup 176 subtable" dx=247 dy=0 dh=247 dv=0
Position2: "Single Positioning lookup 175 subtable" dx=247 dy=0 dh=247 dv=0
Position2: "Single Positioning lookup 174 subtable" dx=247 dy=0 dh=247 dv=0
Position2: "Single Positioning lookup 173 subtable" dx=247 dy=0 dh=247 dv=0
Position2: "Single Positioning lookup 172 subtable" dx=247 dy=0 dh=247 dv=0
Position2: "Single Positioning lookup 171 subtable" dx=247 dy=0 dh=247 dv=0
Position2: "Single Positioning lookup 170 subtable" dx=247 dy=0 dh=247 dv=0
Position2: "Single Positioning lookup 169 subtable" dx=247 dy=0 dh=247 dv=0
Position2: "Single Positioning lookup 168 subtable" dx=247 dy=0 dh=247 dv=0
Position2: "Single Positioning lookup 167 subtable" dx=247 dy=0 dh=247 dv=0
Position2: "Single Positioning lookup 166 subtable" dx=247 dy=0 dh=247 dv=0
Position2: "Single Positioning lookup 165 subtable" dx=247 dy=0 dh=247 dv=0
Position2: "Single Positioning lookup 164 subtable" dx=247 dy=0 dh=247 dv=0
Position2: "Single Positioning lookup 163 subtable" dx=247 dy=0 dh=247 dv=0
Position2: "Single Positioning lookup 162 subtable" dx=247 dy=0 dh=247 dv=0
Position2: "Single Positioning lookup 161 subtable" dx=247 dy=0 dh=247 dv=0
Position2: "Single Positioning lookup 160 subtable" dx=247 dy=0 dh=247 dv=0
Position2: "Single Positioning lookup 159 subtable" dx=247 dy=0 dh=247 dv=0
Position2: "Single Positioning lookup 158 subtable" dx=247 dy=0 dh=247 dv=0
Position2: "Single Positioning lookup 157 subtable" dx=247 dy=0 dh=247 dv=0
Position2: "Single Positioning lookup 156 subtable" dx=247 dy=0 dh=247 dv=0
Position2: "Single Positioning lookup 155 subtable" dx=247 dy=0 dh=247 dv=0
Position2: "Single Positioning lookup 154 subtable" dx=247 dy=0 dh=247 dv=0
Position2: "Single Positioning lookup 153 subtable" dx=247 dy=0 dh=247 dv=0
Position2: "Single Positioning lookup 152 subtable" dx=247 dy=0 dh=247 dv=0
Position2: "Single Positioning lookup 151 subtable" dx=247 dy=0 dh=247 dv=0
Position2: "Single Positioning lookup 150 subtable" dx=247 dy=0 dh=247 dv=0
Position2: "Single Positioning lookup 149 subtable" dx=247 dy=0 dh=247 dv=0
Position2: "Single Positioning lookup 148 subtable" dx=247 dy=0 dh=247 dv=0
Position2: "Single Positioning lookup 147 subtable" dx=247 dy=0 dh=247 dv=0
Position2: "Single Positioning lookup 146 subtable" dx=247 dy=0 dh=247 dv=0
Position2: "Single Positioning lookup 145 subtable" dx=247 dy=0 dh=247 dv=0
Position2: "Single Positioning lookup 144 subtable" dx=247 dy=0 dh=247 dv=0
Position2: "Single Positioning lookup 143 subtable" dx=247 dy=0 dh=247 dv=0
Position2: "Single Positioning lookup 142 subtable" dx=247 dy=0 dh=247 dv=0
Position2: "Single Positioning lookup 141 subtable" dx=247 dy=0 dh=247 dv=0
Position2: "Single Positioning lookup 140 subtable" dx=247 dy=0 dh=247 dv=0
Position2: "Single Positioning lookup 139 subtable" dx=208 dy=0 dh=208 dv=0
Position2: "Single Positioning lookup 138 subtable" dx=208 dy=0 dh=208 dv=0
Position2: "Single Positioning lookup 137 subtable" dx=208 dy=0 dh=208 dv=0
Position2: "Single Positioning lookup 136 subtable" dx=208 dy=0 dh=208 dv=0
Position2: "Single Positioning lookup 135 subtable" dx=208 dy=0 dh=208 dv=0
Position2: "Single Positioning lookup 133 subtable" dx=208 dy=0 dh=208 dv=0
Position2: "Single Positioning lookup 132 subtable" dx=208 dy=0 dh=208 dv=0
Position2: "Single Positioning lookup 131 subtable" dx=208 dy=0 dh=208 dv=0
Position2: "Single Positioning lookup 130 subtable" dx=208 dy=0 dh=208 dv=0
Position2: "Single Positioning lookup 129 subtable" dx=208 dy=0 dh=208 dv=0
Position2: "Single Positioning lookup 128 subtable" dx=208 dy=0 dh=208 dv=0
Position2: "Single Positioning lookup 127 subtable" dx=208 dy=0 dh=208 dv=0
Position2: "Single Positioning lookup 126 subtable" dx=208 dy=0 dh=208 dv=0
Position2: "Single Positioning lookup 125 subtable" dx=208 dy=0 dh=208 dv=0
Position2: "Single Positioning lookup 124 subtable" dx=208 dy=0 dh=208 dv=0
Position2: "Single Positioning lookup 123 subtable" dx=208 dy=0 dh=208 dv=0
Position2: "Single Positioning lookup 122 subtable" dx=208 dy=0 dh=208 dv=0
Position2: "Single Positioning lookup 121 subtable" dx=208 dy=0 dh=208 dv=0
Position2: "Single Positioning lookup 120 subtable" dx=208 dy=0 dh=208 dv=0
Position2: "Single Positioning lookup 119 subtable" dx=208 dy=0 dh=208 dv=0
Position2: "Single Positioning lookup 118 subtable" dx=208 dy=0 dh=208 dv=0
Position2: "Single Positioning lookup 117 subtable" dx=208 dy=0 dh=208 dv=0
Position2: "Single Positioning lookup 116 subtable" dx=208 dy=0 dh=208 dv=0
Position2: "Single Positioning lookup 115 subtable" dx=208 dy=0 dh=208 dv=0
Position2: "Single Positioning lookup 114 subtable" dx=208 dy=0 dh=208 dv=0
Position2: "Single Positioning lookup 113 subtable" dx=208 dy=0 dh=208 dv=0
Position2: "Single Positioning lookup 112 subtable" dx=208 dy=0 dh=208 dv=0
Position2: "Single Positioning lookup 111 subtable" dx=208 dy=0 dh=208 dv=0
Position2: "Single Positioning lookup 110 subtable" dx=208 dy=0 dh=208 dv=0
Position2: "Single Positioning lookup 109 subtable" dx=208 dy=0 dh=208 dv=0
Position2: "Single Positioning lookup 108 subtable" dx=208 dy=0 dh=208 dv=0
Position2: "Single Positioning lookup 107 subtable" dx=208 dy=0 dh=208 dv=0
Position2: "Single Positioning lookup 106 subtable" dx=208 dy=0 dh=208 dv=0
Position2: "Single Positioning lookup 105 subtable" dx=208 dy=0 dh=208 dv=0
Position2: "Single Positioning lookup 104 subtable" dx=208 dy=0 dh=208 dv=0
Position2: "Single Positioning lookup 103 subtable" dx=208 dy=0 dh=208 dv=0
Position2: "Single Positioning lookup 102 subtable" dx=208 dy=0 dh=208 dv=0
Position2: "Single Positioning lookup 101 subtable" dx=208 dy=0 dh=208 dv=0
Position2: "Single Positioning lookup 100 subtable" dx=208 dy=0 dh=208 dv=0
Position2: "Single Positioning lookup 99 subtable" dx=208 dy=0 dh=208 dv=0
Position2: "Single Positioning lookup 51 subtable" dx=83 dy=0 dh=83 dv=0
Position2: "Single Positioning lookup 50 subtable" dx=125 dy=0 dh=125 dv=0
Position2: "Single Positioning lookup 49 subtable" dx=236 dy=0 dh=236 dv=0
Position2: "Single Positioning lookup 48 subtable" dx=361 dy=0 dh=361 dv=0
Position2: "Single Positioning lookup 47 subtable" dx=225 dy=0 dh=225 dv=0
Position2: "Single Positioning lookup 44 subtable" dx=0 dy=0 dh=404 dv=0
Position2: "Single Positioning lookup 43 subtable" dx=247 dy=0 dh=247 dv=0
Position2: "Single Positioning lookup 42 subtable" dx=0 dy=0 dh=454 dv=0
Position2: "Single Positioning lookup 41 subtable" dx=298 dy=0 dh=298 dv=0
Position2: "Single Positioning lookup 40 subtable" dx=83 dy=0 dh=83 dv=0
Position2: "Single Positioning lookup 36 subtable" dx=190 dy=0 dh=190 dv=0
Position2: "Single Positioning lookup 35 subtable" dx=113 dy=0 dh=113 dv=0
Position2: "Single Positioning lookup 34 subtable" dx=155 dy=0 dh=155 dv=0
Position2: "Single Positioning lookup 33 subtable" dx=280 dy=0 dh=280 dv=0
Position2: "Single Positioning lookup 30 subtable" dx=108 dy=0 dh=108 dv=0
Position2: "Single Positioning lookup 29 subtable" dx=319 dy=0 dh=319 dv=0
Position2: "Single Positioning lookup 28 subtable" dx=200 dy=0 dh=200 dv=0
Position2: "Single Positioning lookup 25 subtable" dx=39 dy=0 dh=39 dv=0
Position2: "Single Positioning lookup 22 subtable" dx=85 dy=0 dh=85 dv=0
Position2: "Single Positioning lookup 19 subtable" dx=214 dy=0 dh=214 dv=0
Position2: "Single Positioning lookup 18 subtable" dx=96 dy=0 dh=96 dv=0
Position2: "Single Positioning lookup 15 subtable" dx=82 dy=0 dh=82 dv=0
Position2: "Single Positioning lookup 14 subtable" dx=0 dy=0 dh=333 dv=0
Position2: "Single Positioning lookup 13 subtable" dx=176 dy=0 dh=176 dv=0
Position2: "Single Positioning lookup 11 subtable" dx=19 dy=0 dh=19 dv=0
Position2: "Single Positioning lookup 10 subtable" dx=234 dy=0 dh=234 dv=0
Position2: "Single Positioning lookup 9 subtable" dx=116 dy=0 dh=116 dv=0
Position2: "Single Positioning lookup 8 subtable" dx=128 dy=0 dh=128 dv=0
Position2: "Single Positioning lookup 7 subtable" dx=237 dy=0 dh=237 dv=0
Position2: "Single Positioning lookup 6 subtable" dx=140 dy=0 dh=140 dv=0
Position2: "Single Positioning lookup 4 subtable" dx=398 dy=0 dh=398 dv=0
Position2: "Single Positioning lookup 3 subtable" dx=64 dy=0 dh=64 dv=0
Position2: "Single Positioning lookup 2 subtable" dx=121 dy=0 dh=121 dv=0
EndChar

StartChar: uni1B1B
Encoding: 6939 6939 33
Width: 1152
GlyphClass: 2
Flags: W
AnchorPoint: "Anchor-3" 608 0 basechar 0
AnchorPoint: "Anchor-2" 1035 -420 basechar 0
AnchorPoint: "Anchor-0" 477 525 basechar 0
LayerCount: 2
Fore
SplineSet
1094 117 m 1,0,1
 1127 211 1127 211 1001.5 253 c 128,-1,2
 876 295 876 295 832 332.5 c 128,-1,3
 788 370 788 370 785 419 c 2,4,-1
 785 431 l 2,5,6
 785 512 785 512 864 512 c 0,7,8
 941 512 941 512 988 431 c 128,-1,9
 1035 350 1035 350 1035 240 c 2,10,-1
 1035 -437 l 2,11,12
 1035 -803 1035 -803 732 -805 c 1,13,14
 716 -746 716 -746 661 -663 c 128,-1,15
 606 -580 606 -580 538 -580 c 0,16,17
 463 -580 463 -580 405.5 -691.5 c 128,-1,18
 348 -803 348 -803 230 -805 c 0,19,20
 15 -803 15 -803 15 -518 c 0,21,22
 15 -372 15 -372 73 -277 c 0,23,24
 151 -146 151 -146 437.5 -105.5 c 128,-1,25
 724 -65 724 -65 742 159 c 1,26,27
 742 333 742 333 633 342 c 1,28,-1
 608 342 l 1,29,30
 528 333 528 333 480 270 c 1,31,-1
 478 270 l 1,32,33
 430 333 430 333 350 342 c 1,34,-1
 326 342 l 1,35,36
 241 335 241 335 222 246 c 1,37,-1
 220 202 l 1,38,39
 220 77 220 77 305 9 c 1,40,-1
 295 -5 l 1,41,42
 219 11 219 11 152 41 c 0,43,44
 70 76 70 76 70 163 c 0,45,46
 70 212 70 212 100 268 c 0,47,48
 125 308 125 308 125 328 c 0,49,50
 125 346 125 346 103 346 c 0,51,52
 68 346 68 346 68 297 c 0,53,54
 68 280 68 280 73 256 c 1,55,-1
 59 254 l 1,56,57
 45 291 45 291 45 328 c 0,58,59
 45 440 45 440 119 440 c 1,60,61
 180 436 180 436 180 378 c 0,62,63
 180 342 180 342 144 287 c 128,-1,64
 108 232 108 232 108 195 c 0,65,66
 108 135 108 135 204 100 c 1,67,68
 189 135 189 135 185 194 c 1,69,70
 188 434 188 434 323 439 c 0,71,72
 378 439 378 439 415 410 c 128,-1,73
 452 381 452 381 479 323 c 1,74,75
 505 379 505 379 539.5 409 c 128,-1,76
 574 439 574 439 636 439 c 0,77,78
 772 433 772 433 772 168 c 2,79,-1
 772 151 l 2,80,81
 772 -155 772 -155 494 -191 c 0,82,83
 246 -224 246 -224 151 -296.5 c 128,-1,84
 56 -369 56 -369 56 -516 c 0,85,86
 56 -707 56 -707 230 -707 c 0,87,88
 368 -707 368 -707 412.5 -601 c 128,-1,89
 457 -495 457 -495 558 -492 c 0,90,91
 655 -493 655 -493 717.5 -565 c 128,-1,92
 780 -637 780 -637 802 -707 c 1,93,94
 1002 -707 1002 -707 1004 -404 c 2,95,-1
 1004 237 l 2,96,97
 1004 344 1004 344 962.5 412.5 c 128,-1,98
 921 481 921 481 864 481 c 0,99,100
 824 479 824 479 824 445 c 0,101,102
 824 419 824 419 851 401 c 128,-1,103
 878 383 878 383 1027.5 325.5 c 128,-1,104
 1177 268 1177 268 1112 114 c 1,105,-1
 1094 117 l 1,0,1
EndSplineSet
MultipleSubs2: "Multiple Substitution lookup 319 subtable" uni1B1B _reorder
MultipleSubs2: "Multiple Substitution lookup 263 subtable" uni1B1B _reorder
MultipleSubs2: "Multiple Substitution lookup 207 subtable" uni1B1B _reorder
MultipleSubs2: "Multiple Substitution lookup 145 subtable" uni1B1B _reorder
MultipleSubs2: "Multiple Substitution lookup 89 subtable" uni1B1B _reorder
MultipleSubs2: "Multiple Substitution lookup 33 subtable" uni1B1B _reorder
Substitution2: "Single Substitution lookup 10 subtable" uni1B1B.2
Position2: "Single Positioning lookup 299 subtable" dx=115 dy=0 dh=115 dv=0
Position2: "Single Positioning lookup 298 subtable" dx=115 dy=0 dh=115 dv=0
Position2: "Single Positioning lookup 272 subtable" dx=115 dy=0 dh=115 dv=0
Position2: "Single Positioning lookup 263 subtable" dx=115 dy=0 dh=115 dv=0
Position2: "Single Positioning lookup 260 subtable" dx=125 dy=0 dh=125 dv=0
Position2: "Single Positioning lookup 259 subtable" dx=125 dy=0 dh=125 dv=0
Position2: "Single Positioning lookup 232 subtable" dx=125 dy=0 dh=125 dv=0
Position2: "Single Positioning lookup 223 subtable" dx=125 dy=0 dh=125 dv=0
Position2: "Single Positioning lookup 220 subtable" dx=145 dy=0 dh=145 dv=0
Position2: "Single Positioning lookup 219 subtable" dx=145 dy=0 dh=145 dv=0
Position2: "Single Positioning lookup 192 subtable" dx=145 dy=0 dh=145 dv=0
Position2: "Single Positioning lookup 183 subtable" dx=145 dy=0 dh=145 dv=0
Position2: "Single Positioning lookup 180 subtable" dx=247 dy=0 dh=247 dv=0
Position2: "Single Positioning lookup 179 subtable" dx=247 dy=0 dh=247 dv=0
Position2: "Single Positioning lookup 170 subtable" dx=247 dy=0 dh=247 dv=0
Position2: "Single Positioning lookup 166 subtable" dx=247 dy=0 dh=247 dv=0
Position2: "Single Positioning lookup 151 subtable" dx=247 dy=0 dh=247 dv=0
Position2: "Single Positioning lookup 142 subtable" dx=247 dy=0 dh=247 dv=0
Position2: "Single Positioning lookup 139 subtable" dx=208 dy=0 dh=208 dv=0
Position2: "Single Positioning lookup 138 subtable" dx=208 dy=0 dh=208 dv=0
Position2: "Single Positioning lookup 125 subtable" dx=208 dy=0 dh=208 dv=0
Position2: "Single Positioning lookup 110 subtable" dx=208 dy=0 dh=208 dv=0
Position2: "Single Positioning lookup 101 subtable" dx=208 dy=0 dh=208 dv=0
Position2: "Single Positioning lookup 44 subtable" dx=0 dy=0 dh=110 dv=0
Position2: "Single Positioning lookup 43 subtable" dx=46 dy=0 dh=46 dv=0
Position2: "Single Positioning lookup 42 subtable" dx=0 dy=0 dh=160 dv=0
Position2: "Single Positioning lookup 41 subtable" dx=97 dy=0 dh=97 dv=0
Position2: "Single Positioning lookup 14 subtable" dx=0 dy=0 dh=39 dv=0
EndChar

StartChar: uni1B1C
Encoding: 6940 6940 34
Width: 1261
GlyphClass: 2
Flags: W
AnchorPoint: "Anchor-3" 628 0 basechar 0
AnchorPoint: "Anchor-0" 618 525 basechar 0
LayerCount: 2
Fore
SplineSet
674 -11 m 1,0,-1
 671 2 l 1,1,2
 735 50 735 50 743 184 c 1,3,4
 742 333 742 333 633 342 c 1,5,-1
 608 342 l 1,6,7
 528 333 528 333 480 270 c 1,8,-1
 478 270 l 1,9,10
 430 333 430 333 350 342 c 1,11,-1
 326 342 l 1,12,13
 241 335 241 335 222 246 c 1,14,-1
 220 202 l 1,15,16
 220 77 220 77 305 9 c 1,17,-1
 295 -5 l 1,18,19
 219 11 219 11 152 41 c 0,20,21
 70 76 70 76 70 163 c 0,22,23
 70 212 70 212 100 268 c 0,24,25
 125 308 125 308 125 328 c 0,26,27
 125 346 125 346 103 346 c 0,28,29
 68 346 68 346 68 297 c 0,30,31
 68 280 68 280 73 256 c 1,32,-1
 59 254 l 1,33,34
 45 291 45 291 45 328 c 0,35,36
 45 440 45 440 119 440 c 1,37,38
 180 436 180 436 180 378 c 0,39,40
 180 342 180 342 144 287 c 128,-1,41
 108 232 108 232 108 195 c 0,42,43
 108 135 108 135 204 100 c 1,44,45
 189 135 189 135 185 194 c 1,46,47
 188 434 188 434 323 439 c 0,48,49
 378 439 378 439 415 410 c 128,-1,50
 452 381 452 381 479 323 c 1,51,52
 505 379 505 379 539.5 409 c 128,-1,53
 574 439 574 439 636 439 c 0,54,55
 772 433 772 433 772 189 c 1,56,57
 766 102 766 102 744 51 c 1,58,59
 794 74 794 74 827 204 c 1,60,61
 850 323 850 323 894.5 379.5 c 128,-1,62
 939 436 939 436 1015 442 c 2,63,-1
 1031 443 l 1,64,65
 1107 443 1107 443 1155.5 389 c 128,-1,66
 1204 335 1204 335 1211 225 c 1,67,-1
 1211 211 l 2,68,69
 1211 107 1211 107 1155 50 c 128,-1,70
 1099 -7 1099 -7 1020 -7 c 0,71,72
 970 -7 970 -7 912 18 c 1,73,-1
 916 33 l 1,74,75
 955 24 955 24 989 24 c 0,76,77
 1070 24 1070 24 1119 63.5 c 128,-1,78
 1168 103 1168 103 1174 183 c 1,79,80
 1163 350 1163 350 1018 350 c 0,81,82
 901 350 901 350 862 207 c 0,83,84
 834 99 834 99 790 49 c 128,-1,85
 746 -1 746 -1 674 -11 c 1,0,-1
EndSplineSet
MultipleSubs2: "Multiple Substitution lookup 320 subtable" uni1B1C _reorder
MultipleSubs2: "Multiple Substitution lookup 264 subtable" uni1B1C _reorder
MultipleSubs2: "Multiple Substitution lookup 208 subtable" uni1B1C _reorder
MultipleSubs2: "Multiple Substitution lookup 146 subtable" uni1B1C _reorder
MultipleSubs2: "Multiple Substitution lookup 90 subtable" uni1B1C _reorder
MultipleSubs2: "Multiple Substitution lookup 34 subtable" uni1B1C _reorder
Position2: "Single Positioning lookup 299 subtable" dx=115 dy=0 dh=115 dv=0
Position2: "Single Positioning lookup 298 subtable" dx=115 dy=0 dh=115 dv=0
Position2: "Single Positioning lookup 272 subtable" dx=115 dy=0 dh=115 dv=0
Position2: "Single Positioning lookup 260 subtable" dx=125 dy=0 dh=125 dv=0
Position2: "Single Positioning lookup 259 subtable" dx=125 dy=0 dh=125 dv=0
Position2: "Single Positioning lookup 232 subtable" dx=125 dy=0 dh=125 dv=0
Position2: "Single Positioning lookup 220 subtable" dx=145 dy=0 dh=145 dv=0
Position2: "Single Positioning lookup 219 subtable" dx=145 dy=0 dh=145 dv=0
Position2: "Single Positioning lookup 192 subtable" dx=145 dy=0 dh=145 dv=0
Position2: "Single Positioning lookup 180 subtable" dx=247 dy=0 dh=247 dv=0
Position2: "Single Positioning lookup 179 subtable" dx=247 dy=0 dh=247 dv=0
Position2: "Single Positioning lookup 151 subtable" dx=247 dy=0 dh=247 dv=0
Position2: "Single Positioning lookup 142 subtable" dx=247 dy=0 dh=247 dv=0
Position2: "Single Positioning lookup 139 subtable" dx=208 dy=0 dh=208 dv=0
Position2: "Single Positioning lookup 138 subtable" dx=208 dy=0 dh=208 dv=0
Position2: "Single Positioning lookup 110 subtable" dx=208 dy=0 dh=208 dv=0
Position2: "Single Positioning lookup 101 subtable" dx=208 dy=0 dh=208 dv=0
Position2: "Single Positioning lookup 44 subtable" dx=0 dy=0 dh=21 dv=0
Position2: "Single Positioning lookup 43 subtable" dx=26 dy=0 dh=26 dv=0
Position2: "Single Positioning lookup 42 subtable" dx=0 dy=0 dh=71 dv=0
Position2: "Single Positioning lookup 41 subtable" dx=77 dy=0 dh=77 dv=0
EndChar

StartChar: uni1B1D
Encoding: 6941 6941 35
Width: 869
GlyphClass: 2
Flags: W
AnchorPoint: "Anchor-3" 462 0 basechar 0
AnchorPoint: "Anchor-0" 466 525 basechar 0
LayerCount: 2
Fore
SplineSet
819 0 m 1,0,-1
 789 0 l 1,1,-1
 789 184 l 2,2,3
 788 334 788 334 679 342 c 1,4,-1
 654 342 l 1,5,6
 574 333 574 333 526 270 c 1,7,8
 476 333 476 333 397 342 c 1,9,-1
 372 342 l 1,10,11
 262 334 262 334 242 258 c 1,12,-1
 225 261 l 1,13,14
 229 433 229 433 369 439 c 0,15,16
 422 439 422 439 459.5 411 c 128,-1,17
 497 383 497 383 526 323 c 1,18,19
 551 379 551 379 585.5 409 c 128,-1,20
 620 439 620 439 682 439 c 0,21,22
 817 435 817 435 819 185 c 2,23,-1
 819 0 l 1,0,-1
227 93 m 1,24,25
 347 93 347 93 347 143 c 0,26,27
 347 145 347 145 345.5 162 c 128,-1,28
 344 179 344 179 309 185 c 1,29,30
 227 185 227 185 208 94 c 1,31,-1
 227 93 l 1,24,25
320 -248 m 0,32,33
 174 -246 174 -246 170 -4 c 1,34,35
 78 14 78 14 62 127 c 1,36,-1
 60 148 l 1,37,38
 60 202 60 202 101 268 c 0,39,40
 126 308 126 308 126 327 c 256,41,42
 126 346 126 346 103 346 c 0,43,44
 68 346 68 346 68 296 c 0,45,46
 68 279 68 279 72 256 c 1,47,-1
 59 254 l 1,48,49
 45 291 45 291 45 328 c 0,50,51
 45 440 45 440 119 440 c 1,52,53
 180 436 180 436 180 378 c 0,54,55
 180 342 180 342 143 286 c 0,56,57
 102 224 102 224 102 179 c 2,58,-1
 103 164 l 1,59,60
 111 113 111 113 178 94 c 1,61,62
 197 216 197 216 301 218 c 0,63,64
 385 216 385 216 385 142 c 0,65,66
 385 78 385 78 337 37.5 c 128,-1,67
 289 -3 289 -3 206 -3 c 1,68,69
 206 -63 206 -63 239.5 -106.5 c 128,-1,70
 273 -150 273 -150 320 -150 c 0,71,72
 413 -150 413 -150 456 -55 c 1,73,-1
 470 -60 l 1,74,75
 441 -246 441 -246 320 -248 c 0,32,33
EndSplineSet
MultipleSubs2: "Multiple Substitution lookup 321 subtable" uni1B1D _reorder
MultipleSubs2: "Multiple Substitution lookup 265 subtable" uni1B1D _reorder
MultipleSubs2: "Multiple Substitution lookup 209 subtable" uni1B1D _reorder
MultipleSubs2: "Multiple Substitution lookup 147 subtable" uni1B1D _reorder
MultipleSubs2: "Multiple Substitution lookup 91 subtable" uni1B1D _reorder
MultipleSubs2: "Multiple Substitution lookup 35 subtable" uni1B1D _reorder
Position2: "Single Positioning lookup 299 subtable" dx=115 dy=0 dh=115 dv=0
Position2: "Single Positioning lookup 298 subtable" dx=115 dy=0 dh=115 dv=0
Position2: "Single Positioning lookup 296 subtable" dx=115 dy=0 dh=115 dv=0
Position2: "Single Positioning lookup 294 subtable" dx=115 dy=0 dh=115 dv=0
Position2: "Single Positioning lookup 293 subtable" dx=115 dy=0 dh=115 dv=0
Position2: "Single Positioning lookup 292 subtable" dx=115 dy=0 dh=115 dv=0
Position2: "Single Positioning lookup 291 subtable" dx=115 dy=0 dh=115 dv=0
Position2: "Single Positioning lookup 288 subtable" dx=115 dy=0 dh=115 dv=0
Position2: "Single Positioning lookup 287 subtable" dx=115 dy=0 dh=115 dv=0
Position2: "Single Positioning lookup 286 subtable" dx=115 dy=0 dh=115 dv=0
Position2: "Single Positioning lookup 277 subtable" dx=115 dy=0 dh=115 dv=0
Position2: "Single Positioning lookup 272 subtable" dx=115 dy=0 dh=115 dv=0
Position2: "Single Positioning lookup 269 subtable" dx=115 dy=0 dh=115 dv=0
Position2: "Single Positioning lookup 268 subtable" dx=115 dy=0 dh=115 dv=0
Position2: "Single Positioning lookup 267 subtable" dx=115 dy=0 dh=115 dv=0
Position2: "Single Positioning lookup 266 subtable" dx=115 dy=0 dh=115 dv=0
Position2: "Single Positioning lookup 265 subtable" dx=115 dy=0 dh=115 dv=0
Position2: "Single Positioning lookup 263 subtable" dx=115 dy=0 dh=115 dv=0
Position2: "Single Positioning lookup 261 subtable" dx=115 dy=0 dh=115 dv=0
Position2: "Single Positioning lookup 260 subtable" dx=125 dy=0 dh=125 dv=0
Position2: "Single Positioning lookup 259 subtable" dx=125 dy=0 dh=125 dv=0
Position2: "Single Positioning lookup 257 subtable" dx=125 dy=0 dh=125 dv=0
Position2: "Single Positioning lookup 254 subtable" dx=125 dy=0 dh=125 dv=0
Position2: "Single Positioning lookup 253 subtable" dx=125 dy=0 dh=125 dv=0
Position2: "Single Positioning lookup 252 subtable" dx=125 dy=0 dh=125 dv=0
Position2: "Single Positioning lookup 251 subtable" dx=125 dy=0 dh=125 dv=0
Position2: "Single Positioning lookup 248 subtable" dx=125 dy=0 dh=125 dv=0
Position2: "Single Positioning lookup 247 subtable" dx=125 dy=0 dh=125 dv=0
Position2: "Single Positioning lookup 246 subtable" dx=125 dy=0 dh=125 dv=0
Position2: "Single Positioning lookup 237 subtable" dx=125 dy=0 dh=125 dv=0
Position2: "Single Positioning lookup 236 subtable" dx=125 dy=0 dh=125 dv=0
Position2: "Single Positioning lookup 232 subtable" dx=125 dy=0 dh=125 dv=0
Position2: "Single Positioning lookup 229 subtable" dx=125 dy=0 dh=125 dv=0
Position2: "Single Positioning lookup 228 subtable" dx=125 dy=0 dh=125 dv=0
Position2: "Single Positioning lookup 227 subtable" dx=125 dy=0 dh=125 dv=0
Position2: "Single Positioning lookup 226 subtable" dx=125 dy=0 dh=125 dv=0
Position2: "Single Positioning lookup 225 subtable" dx=125 dy=0 dh=125 dv=0
Position2: "Single Positioning lookup 223 subtable" dx=125 dy=0 dh=125 dv=0
Position2: "Single Positioning lookup 221 subtable" dx=125 dy=0 dh=125 dv=0
Position2: "Single Positioning lookup 220 subtable" dx=145 dy=0 dh=145 dv=0
Position2: "Single Positioning lookup 219 subtable" dx=145 dy=0 dh=145 dv=0
Position2: "Single Positioning lookup 218 subtable" dx=145 dy=0 dh=145 dv=0
Position2: "Single Positioning lookup 217 subtable" dx=145 dy=0 dh=145 dv=0
Position2: "Single Positioning lookup 214 subtable" dx=145 dy=0 dh=145 dv=0
Position2: "Single Positioning lookup 213 subtable" dx=145 dy=0 dh=145 dv=0
Position2: "Single Positioning lookup 212 subtable" dx=145 dy=0 dh=145 dv=0
Position2: "Single Positioning lookup 211 subtable" dx=145 dy=0 dh=145 dv=0
Position2: "Single Positioning lookup 208 subtable" dx=145 dy=0 dh=145 dv=0
Position2: "Single Positioning lookup 207 subtable" dx=145 dy=0 dh=145 dv=0
Position2: "Single Positioning lookup 206 subtable" dx=145 dy=0 dh=145 dv=0
Position2: "Single Positioning lookup 200 subtable" dx=145 dy=0 dh=145 dv=0
Position2: "Single Positioning lookup 197 subtable" dx=145 dy=0 dh=145 dv=0
Position2: "Single Positioning lookup 196 subtable" dx=145 dy=0 dh=145 dv=0
Position2: "Single Positioning lookup 193 subtable" dx=145 dy=0 dh=145 dv=0
Position2: "Single Positioning lookup 192 subtable" dx=145 dy=0 dh=145 dv=0
Position2: "Single Positioning lookup 189 subtable" dx=145 dy=0 dh=145 dv=0
Position2: "Single Positioning lookup 188 subtable" dx=145 dy=0 dh=145 dv=0
Position2: "Single Positioning lookup 187 subtable" dx=145 dy=0 dh=145 dv=0
Position2: "Single Positioning lookup 186 subtable" dx=145 dy=0 dh=145 dv=0
Position2: "Single Positioning lookup 185 subtable" dx=145 dy=0 dh=145 dv=0
Position2: "Single Positioning lookup 183 subtable" dx=145 dy=0 dh=145 dv=0
Position2: "Single Positioning lookup 181 subtable" dx=145 dy=0 dh=145 dv=0
Position2: "Single Positioning lookup 180 subtable" dx=247 dy=0 dh=247 dv=0
Position2: "Single Positioning lookup 179 subtable" dx=247 dy=0 dh=247 dv=0
Position2: "Single Positioning lookup 178 subtable" dx=247 dy=0 dh=247 dv=0
Position2: "Single Positioning lookup 177 subtable" dx=247 dy=0 dh=247 dv=0
Position2: "Single Positioning lookup 173 subtable" dx=247 dy=0 dh=247 dv=0
Position2: "Single Positioning lookup 172 subtable" dx=247 dy=0 dh=247 dv=0
Position2: "Single Positioning lookup 171 subtable" dx=247 dy=0 dh=247 dv=0
Position2: "Single Positioning lookup 170 subtable" dx=247 dy=0 dh=247 dv=0
Position2: "Single Positioning lookup 167 subtable" dx=247 dy=0 dh=247 dv=0
Position2: "Single Positioning lookup 166 subtable" dx=247 dy=0 dh=247 dv=0
Position2: "Single Positioning lookup 165 subtable" dx=247 dy=0 dh=247 dv=0
Position2: "Single Positioning lookup 163 subtable" dx=247 dy=0 dh=247 dv=0
Position2: "Single Positioning lookup 162 subtable" dx=247 dy=0 dh=247 dv=0
Position2: "Single Positioning lookup 159 subtable" dx=247 dy=0 dh=247 dv=0
Position2: "Single Positioning lookup 158 subtable" dx=247 dy=0 dh=247 dv=0
Position2: "Single Positioning lookup 156 subtable" dx=247 dy=0 dh=247 dv=0
Position2: "Single Positioning lookup 155 subtable" dx=247 dy=0 dh=247 dv=0
Position2: "Single Positioning lookup 152 subtable" dx=247 dy=0 dh=247 dv=0
Position2: "Single Positioning lookup 151 subtable" dx=247 dy=0 dh=247 dv=0
Position2: "Single Positioning lookup 150 subtable" dx=247 dy=0 dh=247 dv=0
Position2: "Single Positioning lookup 149 subtable" dx=247 dy=0 dh=247 dv=0
Position2: "Single Positioning lookup 148 subtable" dx=247 dy=0 dh=247 dv=0
Position2: "Single Positioning lookup 147 subtable" dx=247 dy=0 dh=247 dv=0
Position2: "Single Positioning lookup 146 subtable" dx=247 dy=0 dh=247 dv=0
Position2: "Single Positioning lookup 145 subtable" dx=247 dy=0 dh=247 dv=0
Position2: "Single Positioning lookup 144 subtable" dx=247 dy=0 dh=247 dv=0
Position2: "Single Positioning lookup 143 subtable" dx=247 dy=0 dh=247 dv=0
Position2: "Single Positioning lookup 142 subtable" dx=247 dy=0 dh=247 dv=0
Position2: "Single Positioning lookup 141 subtable" dx=247 dy=0 dh=247 dv=0
Position2: "Single Positioning lookup 140 subtable" dx=247 dy=0 dh=247 dv=0
Position2: "Single Positioning lookup 139 subtable" dx=208 dy=0 dh=208 dv=0
Position2: "Single Positioning lookup 138 subtable" dx=208 dy=0 dh=208 dv=0
Position2: "Single Positioning lookup 137 subtable" dx=208 dy=0 dh=208 dv=0
Position2: "Single Positioning lookup 136 subtable" dx=208 dy=0 dh=208 dv=0
Position2: "Single Positioning lookup 132 subtable" dx=208 dy=0 dh=208 dv=0
Position2: "Single Positioning lookup 131 subtable" dx=208 dy=0 dh=208 dv=0
Position2: "Single Positioning lookup 130 subtable" dx=208 dy=0 dh=208 dv=0
Position2: "Single Positioning lookup 129 subtable" dx=208 dy=0 dh=208 dv=0
Position2: "Single Positioning lookup 126 subtable" dx=208 dy=0 dh=208 dv=0
Position2: "Single Positioning lookup 125 subtable" dx=208 dy=0 dh=208 dv=0
Position2: "Single Positioning lookup 124 subtable" dx=208 dy=0 dh=208 dv=0
Position2: "Single Positioning lookup 121 subtable" dx=208 dy=0 dh=208 dv=0
Position2: "Single Positioning lookup 118 subtable" dx=208 dy=0 dh=208 dv=0
Position2: "Single Positioning lookup 115 subtable" dx=208 dy=0 dh=208 dv=0
Position2: "Single Positioning lookup 114 subtable" dx=208 dy=0 dh=208 dv=0
Position2: "Single Positioning lookup 111 subtable" dx=208 dy=0 dh=208 dv=0
Position2: "Single Positioning lookup 110 subtable" dx=208 dy=0 dh=208 dv=0
Position2: "Single Positioning lookup 108 subtable" dx=208 dy=0 dh=208 dv=0
Position2: "Single Positioning lookup 107 subtable" dx=208 dy=0 dh=208 dv=0
Position2: "Single Positioning lookup 106 subtable" dx=208 dy=0 dh=208 dv=0
Position2: "Single Positioning lookup 105 subtable" dx=208 dy=0 dh=208 dv=0
Position2: "Single Positioning lookup 104 subtable" dx=208 dy=0 dh=208 dv=0
Position2: "Single Positioning lookup 103 subtable" dx=208 dy=0 dh=208 dv=0
Position2: "Single Positioning lookup 101 subtable" dx=208 dy=0 dh=208 dv=0
Position2: "Single Positioning lookup 100 subtable" dx=208 dy=0 dh=208 dv=0
Position2: "Single Positioning lookup 99 subtable" dx=208 dy=0 dh=208 dv=0
Position2: "Single Positioning lookup 49 subtable" dx=24 dy=0 dh=24 dv=0
Position2: "Single Positioning lookup 48 subtable" dx=149 dy=0 dh=149 dv=0
Position2: "Single Positioning lookup 47 subtable" dx=13 dy=0 dh=13 dv=0
Position2: "Single Positioning lookup 44 subtable" dx=0 dy=0 dh=247 dv=0
Position2: "Single Positioning lookup 43 subtable" dx=192 dy=0 dh=192 dv=0
Position2: "Single Positioning lookup 42 subtable" dx=0 dy=0 dh=297 dv=0
Position2: "Single Positioning lookup 41 subtable" dx=243 dy=0 dh=243 dv=0
Position2: "Single Positioning lookup 33 subtable" dx=68 dy=0 dh=68 dv=0
Position2: "Single Positioning lookup 29 subtable" dx=107 dy=0 dh=107 dv=0
Position2: "Single Positioning lookup 19 subtable" dx=2 dy=0 dh=2 dv=0
Position2: "Single Positioning lookup 14 subtable" dx=0 dy=0 dh=176 dv=0
Position2: "Single Positioning lookup 13 subtable" dx=121 dy=0 dh=121 dv=0
Position2: "Single Positioning lookup 10 subtable" dx=22 dy=0 dh=22 dv=0
Position2: "Single Positioning lookup 7 subtable" dx=25 dy=0 dh=25 dv=0
Position2: "Single Positioning lookup 4 subtable" dx=186 dy=0 dh=186 dv=0
EndChar

StartChar: uni1B1E
Encoding: 6942 6942 36
Width: 869
GlyphClass: 2
Flags: W
AnchorPoint: "Anchor-3" 462 0 basechar 0
AnchorPoint: "Anchor-0" 466 525 basechar 0
LayerCount: 2
Fore
SplineSet
217 -4 m 0,0,1
 81 -2 81 -2 62 127 c 1,2,-1
 60 148 l 1,3,4
 60 202 60 202 101 268 c 0,5,6
 126 308 126 308 126 327 c 256,7,8
 126 346 126 346 103 346 c 0,9,10
 68 346 68 346 68 296 c 0,11,12
 68 279 68 279 72 256 c 1,13,-1
 59 254 l 1,14,15
 45 291 45 291 45 328 c 0,16,17
 45 440 45 440 119 440 c 1,18,19
 180 436 180 436 180 378 c 0,20,21
 180 342 180 342 143 286 c 0,22,23
 102 224 102 224 102 185 c 2,24,-1
 103 173 l 1,25,26
 118 94 118 94 231 94 c 0,27,28
 337 94 337 94 365 197 c 1,29,-1
 381 193 l 1,30,31
 375 -2 375 -2 217 -4 c 0,0,1
819 0 m 1,32,-1
 789 0 l 1,33,-1
 789 184 l 2,34,35
 788 334 788 334 679 342 c 1,36,-1
 654 342 l 1,37,38
 574 333 574 333 526 270 c 1,39,40
 476 333 476 333 397 342 c 1,41,-1
 372 342 l 1,42,43
 262 334 262 334 242 258 c 1,44,-1
 225 261 l 1,45,46
 229 433 229 433 369 439 c 0,47,48
 422 439 422 439 459.5 411 c 128,-1,49
 497 383 497 383 526 323 c 1,50,51
 551 379 551 379 585.5 409 c 128,-1,52
 620 439 620 439 682 439 c 0,53,54
 817 435 817 435 819 185 c 2,55,-1
 819 0 l 1,32,-1
EndSplineSet
MultipleSubs2: "Multiple Substitution lookup 322 subtable" uni1B1E _reorder
MultipleSubs2: "Multiple Substitution lookup 266 subtable" uni1B1E _reorder
MultipleSubs2: "Multiple Substitution lookup 210 subtable" uni1B1E _reorder
MultipleSubs2: "Multiple Substitution lookup 148 subtable" uni1B1E _reorder
MultipleSubs2: "Multiple Substitution lookup 92 subtable" uni1B1E _reorder
MultipleSubs2: "Multiple Substitution lookup 36 subtable" uni1B1E _reorder
Position2: "Single Positioning lookup 299 subtable" dx=115 dy=0 dh=115 dv=0
Position2: "Single Positioning lookup 298 subtable" dx=115 dy=0 dh=115 dv=0
Position2: "Single Positioning lookup 296 subtable" dx=115 dy=0 dh=115 dv=0
Position2: "Single Positioning lookup 294 subtable" dx=115 dy=0 dh=115 dv=0
Position2: "Single Positioning lookup 293 subtable" dx=115 dy=0 dh=115 dv=0
Position2: "Single Positioning lookup 292 subtable" dx=115 dy=0 dh=115 dv=0
Position2: "Single Positioning lookup 291 subtable" dx=115 dy=0 dh=115 dv=0
Position2: "Single Positioning lookup 288 subtable" dx=115 dy=0 dh=115 dv=0
Position2: "Single Positioning lookup 287 subtable" dx=115 dy=0 dh=115 dv=0
Position2: "Single Positioning lookup 286 subtable" dx=115 dy=0 dh=115 dv=0
Position2: "Single Positioning lookup 277 subtable" dx=115 dy=0 dh=115 dv=0
Position2: "Single Positioning lookup 272 subtable" dx=115 dy=0 dh=115 dv=0
Position2: "Single Positioning lookup 269 subtable" dx=115 dy=0 dh=115 dv=0
Position2: "Single Positioning lookup 268 subtable" dx=115 dy=0 dh=115 dv=0
Position2: "Single Positioning lookup 267 subtable" dx=115 dy=0 dh=115 dv=0
Position2: "Single Positioning lookup 266 subtable" dx=115 dy=0 dh=115 dv=0
Position2: "Single Positioning lookup 265 subtable" dx=115 dy=0 dh=115 dv=0
Position2: "Single Positioning lookup 263 subtable" dx=115 dy=0 dh=115 dv=0
Position2: "Single Positioning lookup 261 subtable" dx=115 dy=0 dh=115 dv=0
Position2: "Single Positioning lookup 260 subtable" dx=125 dy=0 dh=125 dv=0
Position2: "Single Positioning lookup 259 subtable" dx=125 dy=0 dh=125 dv=0
Position2: "Single Positioning lookup 257 subtable" dx=125 dy=0 dh=125 dv=0
Position2: "Single Positioning lookup 254 subtable" dx=125 dy=0 dh=125 dv=0
Position2: "Single Positioning lookup 253 subtable" dx=125 dy=0 dh=125 dv=0
Position2: "Single Positioning lookup 252 subtable" dx=125 dy=0 dh=125 dv=0
Position2: "Single Positioning lookup 251 subtable" dx=125 dy=0 dh=125 dv=0
Position2: "Single Positioning lookup 248 subtable" dx=125 dy=0 dh=125 dv=0
Position2: "Single Positioning lookup 247 subtable" dx=125 dy=0 dh=125 dv=0
Position2: "Single Positioning lookup 246 subtable" dx=125 dy=0 dh=125 dv=0
Position2: "Single Positioning lookup 237 subtable" dx=125 dy=0 dh=125 dv=0
Position2: "Single Positioning lookup 236 subtable" dx=125 dy=0 dh=125 dv=0
Position2: "Single Positioning lookup 232 subtable" dx=125 dy=0 dh=125 dv=0
Position2: "Single Positioning lookup 229 subtable" dx=125 dy=0 dh=125 dv=0
Position2: "Single Positioning lookup 228 subtable" dx=125 dy=0 dh=125 dv=0
Position2: "Single Positioning lookup 227 subtable" dx=125 dy=0 dh=125 dv=0
Position2: "Single Positioning lookup 226 subtable" dx=125 dy=0 dh=125 dv=0
Position2: "Single Positioning lookup 225 subtable" dx=125 dy=0 dh=125 dv=0
Position2: "Single Positioning lookup 223 subtable" dx=125 dy=0 dh=125 dv=0
Position2: "Single Positioning lookup 221 subtable" dx=125 dy=0 dh=125 dv=0
Position2: "Single Positioning lookup 220 subtable" dx=145 dy=0 dh=145 dv=0
Position2: "Single Positioning lookup 219 subtable" dx=145 dy=0 dh=145 dv=0
Position2: "Single Positioning lookup 218 subtable" dx=145 dy=0 dh=145 dv=0
Position2: "Single Positioning lookup 217 subtable" dx=145 dy=0 dh=145 dv=0
Position2: "Single Positioning lookup 214 subtable" dx=145 dy=0 dh=145 dv=0
Position2: "Single Positioning lookup 213 subtable" dx=145 dy=0 dh=145 dv=0
Position2: "Single Positioning lookup 212 subtable" dx=145 dy=0 dh=145 dv=0
Position2: "Single Positioning lookup 211 subtable" dx=145 dy=0 dh=145 dv=0
Position2: "Single Positioning lookup 208 subtable" dx=145 dy=0 dh=145 dv=0
Position2: "Single Positioning lookup 207 subtable" dx=145 dy=0 dh=145 dv=0
Position2: "Single Positioning lookup 206 subtable" dx=145 dy=0 dh=145 dv=0
Position2: "Single Positioning lookup 200 subtable" dx=145 dy=0 dh=145 dv=0
Position2: "Single Positioning lookup 197 subtable" dx=145 dy=0 dh=145 dv=0
Position2: "Single Positioning lookup 196 subtable" dx=145 dy=0 dh=145 dv=0
Position2: "Single Positioning lookup 193 subtable" dx=145 dy=0 dh=145 dv=0
Position2: "Single Positioning lookup 192 subtable" dx=145 dy=0 dh=145 dv=0
Position2: "Single Positioning lookup 189 subtable" dx=145 dy=0 dh=145 dv=0
Position2: "Single Positioning lookup 188 subtable" dx=145 dy=0 dh=145 dv=0
Position2: "Single Positioning lookup 187 subtable" dx=145 dy=0 dh=145 dv=0
Position2: "Single Positioning lookup 186 subtable" dx=145 dy=0 dh=145 dv=0
Position2: "Single Positioning lookup 185 subtable" dx=145 dy=0 dh=145 dv=0
Position2: "Single Positioning lookup 183 subtable" dx=145 dy=0 dh=145 dv=0
Position2: "Single Positioning lookup 181 subtable" dx=145 dy=0 dh=145 dv=0
Position2: "Single Positioning lookup 180 subtable" dx=247 dy=0 dh=247 dv=0
Position2: "Single Positioning lookup 179 subtable" dx=247 dy=0 dh=247 dv=0
Position2: "Single Positioning lookup 178 subtable" dx=247 dy=0 dh=247 dv=0
Position2: "Single Positioning lookup 177 subtable" dx=247 dy=0 dh=247 dv=0
Position2: "Single Positioning lookup 173 subtable" dx=247 dy=0 dh=247 dv=0
Position2: "Single Positioning lookup 172 subtable" dx=247 dy=0 dh=247 dv=0
Position2: "Single Positioning lookup 171 subtable" dx=247 dy=0 dh=247 dv=0
Position2: "Single Positioning lookup 170 subtable" dx=247 dy=0 dh=247 dv=0
Position2: "Single Positioning lookup 167 subtable" dx=247 dy=0 dh=247 dv=0
Position2: "Single Positioning lookup 166 subtable" dx=247 dy=0 dh=247 dv=0
Position2: "Single Positioning lookup 165 subtable" dx=247 dy=0 dh=247 dv=0
Position2: "Single Positioning lookup 163 subtable" dx=247 dy=0 dh=247 dv=0
Position2: "Single Positioning lookup 162 subtable" dx=247 dy=0 dh=247 dv=0
Position2: "Single Positioning lookup 159 subtable" dx=247 dy=0 dh=247 dv=0
Position2: "Single Positioning lookup 158 subtable" dx=247 dy=0 dh=247 dv=0
Position2: "Single Positioning lookup 156 subtable" dx=247 dy=0 dh=247 dv=0
Position2: "Single Positioning lookup 155 subtable" dx=247 dy=0 dh=247 dv=0
Position2: "Single Positioning lookup 152 subtable" dx=247 dy=0 dh=247 dv=0
Position2: "Single Positioning lookup 151 subtable" dx=247 dy=0 dh=247 dv=0
Position2: "Single Positioning lookup 150 subtable" dx=247 dy=0 dh=247 dv=0
Position2: "Single Positioning lookup 149 subtable" dx=247 dy=0 dh=247 dv=0
Position2: "Single Positioning lookup 148 subtable" dx=247 dy=0 dh=247 dv=0
Position2: "Single Positioning lookup 147 subtable" dx=247 dy=0 dh=247 dv=0
Position2: "Single Positioning lookup 146 subtable" dx=247 dy=0 dh=247 dv=0
Position2: "Single Positioning lookup 145 subtable" dx=247 dy=0 dh=247 dv=0
Position2: "Single Positioning lookup 144 subtable" dx=247 dy=0 dh=247 dv=0
Position2: "Single Positioning lookup 143 subtable" dx=247 dy=0 dh=247 dv=0
Position2: "Single Positioning lookup 142 subtable" dx=247 dy=0 dh=247 dv=0
Position2: "Single Positioning lookup 141 subtable" dx=247 dy=0 dh=247 dv=0
Position2: "Single Positioning lookup 140 subtable" dx=247 dy=0 dh=247 dv=0
Position2: "Single Positioning lookup 139 subtable" dx=208 dy=0 dh=208 dv=0
Position2: "Single Positioning lookup 138 subtable" dx=208 dy=0 dh=208 dv=0
Position2: "Single Positioning lookup 137 subtable" dx=208 dy=0 dh=208 dv=0
Position2: "Single Positioning lookup 136 subtable" dx=208 dy=0 dh=208 dv=0
Position2: "Single Positioning lookup 132 subtable" dx=208 dy=0 dh=208 dv=0
Position2: "Single Positioning lookup 131 subtable" dx=208 dy=0 dh=208 dv=0
Position2: "Single Positioning lookup 130 subtable" dx=208 dy=0 dh=208 dv=0
Position2: "Single Positioning lookup 129 subtable" dx=208 dy=0 dh=208 dv=0
Position2: "Single Positioning lookup 126 subtable" dx=208 dy=0 dh=208 dv=0
Position2: "Single Positioning lookup 125 subtable" dx=208 dy=0 dh=208 dv=0
Position2: "Single Positioning lookup 124 subtable" dx=208 dy=0 dh=208 dv=0
Position2: "Single Positioning lookup 121 subtable" dx=208 dy=0 dh=208 dv=0
Position2: "Single Positioning lookup 118 subtable" dx=208 dy=0 dh=208 dv=0
Position2: "Single Positioning lookup 115 subtable" dx=208 dy=0 dh=208 dv=0
Position2: "Single Positioning lookup 114 subtable" dx=208 dy=0 dh=208 dv=0
Position2: "Single Positioning lookup 111 subtable" dx=208 dy=0 dh=208 dv=0
Position2: "Single Positioning lookup 110 subtable" dx=208 dy=0 dh=208 dv=0
Position2: "Single Positioning lookup 108 subtable" dx=208 dy=0 dh=208 dv=0
Position2: "Single Positioning lookup 107 subtable" dx=208 dy=0 dh=208 dv=0
Position2: "Single Positioning lookup 106 subtable" dx=208 dy=0 dh=208 dv=0
Position2: "Single Positioning lookup 105 subtable" dx=208 dy=0 dh=208 dv=0
Position2: "Single Positioning lookup 104 subtable" dx=208 dy=0 dh=208 dv=0
Position2: "Single Positioning lookup 103 subtable" dx=208 dy=0 dh=208 dv=0
Position2: "Single Positioning lookup 101 subtable" dx=208 dy=0 dh=208 dv=0
Position2: "Single Positioning lookup 100 subtable" dx=208 dy=0 dh=208 dv=0
Position2: "Single Positioning lookup 99 subtable" dx=208 dy=0 dh=208 dv=0
Position2: "Single Positioning lookup 49 subtable" dx=24 dy=0 dh=24 dv=0
Position2: "Single Positioning lookup 48 subtable" dx=149 dy=0 dh=149 dv=0
Position2: "Single Positioning lookup 47 subtable" dx=13 dy=0 dh=13 dv=0
Position2: "Single Positioning lookup 44 subtable" dx=0 dy=0 dh=247 dv=0
Position2: "Single Positioning lookup 43 subtable" dx=192 dy=0 dh=192 dv=0
Position2: "Single Positioning lookup 42 subtable" dx=0 dy=0 dh=297 dv=0
Position2: "Single Positioning lookup 41 subtable" dx=243 dy=0 dh=243 dv=0
Position2: "Single Positioning lookup 33 subtable" dx=68 dy=0 dh=68 dv=0
Position2: "Single Positioning lookup 29 subtable" dx=107 dy=0 dh=107 dv=0
Position2: "Single Positioning lookup 19 subtable" dx=2 dy=0 dh=2 dv=0
Position2: "Single Positioning lookup 14 subtable" dx=0 dy=0 dh=176 dv=0
Position2: "Single Positioning lookup 13 subtable" dx=121 dy=0 dh=121 dv=0
Position2: "Single Positioning lookup 10 subtable" dx=22 dy=0 dh=22 dv=0
Position2: "Single Positioning lookup 7 subtable" dx=25 dy=0 dh=25 dv=0
Position2: "Single Positioning lookup 4 subtable" dx=186 dy=0 dh=186 dv=0
EndChar

StartChar: uni1B1F
Encoding: 6943 6943 37
Width: 711
GlyphClass: 2
Flags: W
AnchorPoint: "Anchor-3" 383 0 basechar 0
AnchorPoint: "Anchor-0" 364 515 basechar 0
LayerCount: 2
Fore
SplineSet
444 -4 m 2,0,-1
 437 -4 l 1,1,2
 375 151 375 151 311 151 c 0,3,4
 267 151 267 151 245.5 75 c 128,-1,5
 224 -1 224 -1 156 -4 c 2,6,-1
 150 -4 l 2,7,8
 49 -2 49 -2 49 112 c 2,9,-1
 49 125 l 2,10,11
 51 189 51 189 100 268 c 0,12,13
 125 308 125 308 125 328 c 0,14,15
 125 346 125 346 103 346 c 0,16,17
 68 346 68 346 68 296 c 0,18,19
 68 279 68 279 72 256 c 1,20,-1
 59 254 l 1,21,22
 45 291 45 291 45 328 c 0,23,24
 45 440 45 440 119 440 c 1,25,26
 180 436 180 436 180 378 c 0,27,28
 180 342 180 342 143 286 c 0,29,30
 96 215 96 215 96 172 c 0,31,32
 96 97 96 97 177 94 c 0,33,34
 229 95 229 95 250.5 154 c 128,-1,35
 272 213 272 213 321 213 c 0,36,37
 421 213 421 213 463 84 c 1,38,39
 513 84 513 84 513 234 c 2,40,-1
 513 442 l 1,41,42
 656 431 656 431 661 273 c 1,43,-1
 661 0 l 1,44,-1
 631 0 l 1,45,-1
 631 198 l 2,46,47
 628 333 628 333 543 342 c 1,48,-1
 543 187 l 2,49,50
 543 -2 543 -2 444 -4 c 2,0,-1
EndSplineSet
MultipleSubs2: "Multiple Substitution lookup 323 subtable" uni1B1F _reorder
MultipleSubs2: "Multiple Substitution lookup 267 subtable" uni1B1F _reorder
MultipleSubs2: "Multiple Substitution lookup 211 subtable" uni1B1F _reorder
MultipleSubs2: "Multiple Substitution lookup 149 subtable" uni1B1F _reorder
MultipleSubs2: "Multiple Substitution lookup 93 subtable" uni1B1F _reorder
MultipleSubs2: "Multiple Substitution lookup 37 subtable" uni1B1F _reorder
Position2: "Single Positioning lookup 299 subtable" dx=115 dy=0 dh=115 dv=0
Position2: "Single Positioning lookup 298 subtable" dx=115 dy=0 dh=115 dv=0
Position2: "Single Positioning lookup 297 subtable" dx=115 dy=0 dh=115 dv=0
Position2: "Single Positioning lookup 296 subtable" dx=115 dy=0 dh=115 dv=0
Position2: "Single Positioning lookup 295 subtable" dx=115 dy=0 dh=115 dv=0
Position2: "Single Positioning lookup 294 subtable" dx=115 dy=0 dh=115 dv=0
Position2: "Single Positioning lookup 293 subtable" dx=115 dy=0 dh=115 dv=0
Position2: "Single Positioning lookup 292 subtable" dx=115 dy=0 dh=115 dv=0
Position2: "Single Positioning lookup 291 subtable" dx=115 dy=0 dh=115 dv=0
Position2: "Single Positioning lookup 289 subtable" dx=115 dy=0 dh=115 dv=0
Position2: "Single Positioning lookup 288 subtable" dx=115 dy=0 dh=115 dv=0
Position2: "Single Positioning lookup 287 subtable" dx=115 dy=0 dh=115 dv=0
Position2: "Single Positioning lookup 286 subtable" dx=115 dy=0 dh=115 dv=0
Position2: "Single Positioning lookup 284 subtable" dx=115 dy=0 dh=115 dv=0
Position2: "Single Positioning lookup 283 subtable" dx=115 dy=0 dh=115 dv=0
Position2: "Single Positioning lookup 280 subtable" dx=115 dy=0 dh=115 dv=0
Position2: "Single Positioning lookup 279 subtable" dx=115 dy=0 dh=115 dv=0
Position2: "Single Positioning lookup 277 subtable" dx=115 dy=0 dh=115 dv=0
Position2: "Single Positioning lookup 276 subtable" dx=115 dy=0 dh=115 dv=0
Position2: "Single Positioning lookup 273 subtable" dx=115 dy=0 dh=115 dv=0
Position2: "Single Positioning lookup 272 subtable" dx=115 dy=0 dh=115 dv=0
Position2: "Single Positioning lookup 271 subtable" dx=115 dy=0 dh=115 dv=0
Position2: "Single Positioning lookup 270 subtable" dx=115 dy=0 dh=115 dv=0
Position2: "Single Positioning lookup 269 subtable" dx=115 dy=0 dh=115 dv=0
Position2: "Single Positioning lookup 268 subtable" dx=115 dy=0 dh=115 dv=0
Position2: "Single Positioning lookup 267 subtable" dx=115 dy=0 dh=115 dv=0
Position2: "Single Positioning lookup 266 subtable" dx=115 dy=0 dh=115 dv=0
Position2: "Single Positioning lookup 265 subtable" dx=115 dy=0 dh=115 dv=0
Position2: "Single Positioning lookup 264 subtable" dx=115 dy=0 dh=115 dv=0
Position2: "Single Positioning lookup 263 subtable" dx=115 dy=0 dh=115 dv=0
Position2: "Single Positioning lookup 262 subtable" dx=115 dy=0 dh=115 dv=0
Position2: "Single Positioning lookup 261 subtable" dx=115 dy=0 dh=115 dv=0
Position2: "Single Positioning lookup 260 subtable" dx=125 dy=0 dh=125 dv=0
Position2: "Single Positioning lookup 259 subtable" dx=125 dy=0 dh=125 dv=0
Position2: "Single Positioning lookup 258 subtable" dx=125 dy=0 dh=125 dv=0
Position2: "Single Positioning lookup 257 subtable" dx=125 dy=0 dh=125 dv=0
Position2: "Single Positioning lookup 255 subtable" dx=125 dy=0 dh=125 dv=0
Position2: "Single Positioning lookup 254 subtable" dx=125 dy=0 dh=125 dv=0
Position2: "Single Positioning lookup 253 subtable" dx=125 dy=0 dh=125 dv=0
Position2: "Single Positioning lookup 252 subtable" dx=125 dy=0 dh=125 dv=0
Position2: "Single Positioning lookup 251 subtable" dx=125 dy=0 dh=125 dv=0
Position2: "Single Positioning lookup 249 subtable" dx=125 dy=0 dh=125 dv=0
Position2: "Single Positioning lookup 248 subtable" dx=125 dy=0 dh=125 dv=0
Position2: "Single Positioning lookup 247 subtable" dx=125 dy=0 dh=125 dv=0
Position2: "Single Positioning lookup 246 subtable" dx=125 dy=0 dh=125 dv=0
Position2: "Single Positioning lookup 244 subtable" dx=125 dy=0 dh=125 dv=0
Position2: "Single Positioning lookup 243 subtable" dx=125 dy=0 dh=125 dv=0
Position2: "Single Positioning lookup 240 subtable" dx=125 dy=0 dh=125 dv=0
Position2: "Single Positioning lookup 239 subtable" dx=125 dy=0 dh=125 dv=0
Position2: "Single Positioning lookup 237 subtable" dx=125 dy=0 dh=125 dv=0
Position2: "Single Positioning lookup 236 subtable" dx=125 dy=0 dh=125 dv=0
Position2: "Single Positioning lookup 235 subtable" dx=125 dy=0 dh=125 dv=0
Position2: "Single Positioning lookup 234 subtable" dx=125 dy=0 dh=125 dv=0
Position2: "Single Positioning lookup 233 subtable" dx=125 dy=0 dh=125 dv=0
Position2: "Single Positioning lookup 232 subtable" dx=125 dy=0 dh=125 dv=0
Position2: "Single Positioning lookup 231 subtable" dx=125 dy=0 dh=125 dv=0
Position2: "Single Positioning lookup 230 subtable" dx=125 dy=0 dh=125 dv=0
Position2: "Single Positioning lookup 229 subtable" dx=125 dy=0 dh=125 dv=0
Position2: "Single Positioning lookup 228 subtable" dx=125 dy=0 dh=125 dv=0
Position2: "Single Positioning lookup 227 subtable" dx=125 dy=0 dh=125 dv=0
Position2: "Single Positioning lookup 226 subtable" dx=125 dy=0 dh=125 dv=0
Position2: "Single Positioning lookup 225 subtable" dx=125 dy=0 dh=125 dv=0
Position2: "Single Positioning lookup 224 subtable" dx=125 dy=0 dh=125 dv=0
Position2: "Single Positioning lookup 223 subtable" dx=125 dy=0 dh=125 dv=0
Position2: "Single Positioning lookup 222 subtable" dx=125 dy=0 dh=125 dv=0
Position2: "Single Positioning lookup 221 subtable" dx=125 dy=0 dh=125 dv=0
Position2: "Single Positioning lookup 220 subtable" dx=145 dy=0 dh=145 dv=0
Position2: "Single Positioning lookup 219 subtable" dx=145 dy=0 dh=145 dv=0
Position2: "Single Positioning lookup 218 subtable" dx=145 dy=0 dh=145 dv=0
Position2: "Single Positioning lookup 217 subtable" dx=145 dy=0 dh=145 dv=0
Position2: "Single Positioning lookup 215 subtable" dx=145 dy=0 dh=145 dv=0
Position2: "Single Positioning lookup 214 subtable" dx=145 dy=0 dh=145 dv=0
Position2: "Single Positioning lookup 213 subtable" dx=145 dy=0 dh=145 dv=0
Position2: "Single Positioning lookup 212 subtable" dx=145 dy=0 dh=145 dv=0
Position2: "Single Positioning lookup 211 subtable" dx=145 dy=0 dh=145 dv=0
Position2: "Single Positioning lookup 209 subtable" dx=145 dy=0 dh=145 dv=0
Position2: "Single Positioning lookup 208 subtable" dx=145 dy=0 dh=145 dv=0
Position2: "Single Positioning lookup 207 subtable" dx=145 dy=0 dh=145 dv=0
Position2: "Single Positioning lookup 206 subtable" dx=145 dy=0 dh=145 dv=0
Position2: "Single Positioning lookup 204 subtable" dx=145 dy=0 dh=145 dv=0
Position2: "Single Positioning lookup 203 subtable" dx=145 dy=0 dh=145 dv=0
Position2: "Single Positioning lookup 200 subtable" dx=145 dy=0 dh=145 dv=0
Position2: "Single Positioning lookup 199 subtable" dx=145 dy=0 dh=145 dv=0
Position2: "Single Positioning lookup 197 subtable" dx=145 dy=0 dh=145 dv=0
Position2: "Single Positioning lookup 196 subtable" dx=145 dy=0 dh=145 dv=0
Position2: "Single Positioning lookup 195 subtable" dx=145 dy=0 dh=145 dv=0
Position2: "Single Positioning lookup 194 subtable" dx=145 dy=0 dh=145 dv=0
Position2: "Single Positioning lookup 193 subtable" dx=145 dy=0 dh=145 dv=0
Position2: "Single Positioning lookup 192 subtable" dx=145 dy=0 dh=145 dv=0
Position2: "Single Positioning lookup 191 subtable" dx=145 dy=0 dh=145 dv=0
Position2: "Single Positioning lookup 190 subtable" dx=145 dy=0 dh=145 dv=0
Position2: "Single Positioning lookup 189 subtable" dx=145 dy=0 dh=145 dv=0
Position2: "Single Positioning lookup 188 subtable" dx=145 dy=0 dh=145 dv=0
Position2: "Single Positioning lookup 187 subtable" dx=145 dy=0 dh=145 dv=0
Position2: "Single Positioning lookup 186 subtable" dx=145 dy=0 dh=145 dv=0
Position2: "Single Positioning lookup 185 subtable" dx=145 dy=0 dh=145 dv=0
Position2: "Single Positioning lookup 184 subtable" dx=145 dy=0 dh=145 dv=0
Position2: "Single Positioning lookup 183 subtable" dx=145 dy=0 dh=145 dv=0
Position2: "Single Positioning lookup 182 subtable" dx=145 dy=0 dh=145 dv=0
Position2: "Single Positioning lookup 181 subtable" dx=145 dy=0 dh=145 dv=0
Position2: "Single Positioning lookup 180 subtable" dx=247 dy=0 dh=247 dv=0
Position2: "Single Positioning lookup 179 subtable" dx=247 dy=0 dh=247 dv=0
Position2: "Single Positioning lookup 178 subtable" dx=247 dy=0 dh=247 dv=0
Position2: "Single Positioning lookup 177 subtable" dx=247 dy=0 dh=247 dv=0
Position2: "Single Positioning lookup 176 subtable" dx=247 dy=0 dh=247 dv=0
Position2: "Single Positioning lookup 174 subtable" dx=247 dy=0 dh=247 dv=0
Position2: "Single Positioning lookup 173 subtable" dx=247 dy=0 dh=247 dv=0
Position2: "Single Positioning lookup 172 subtable" dx=247 dy=0 dh=247 dv=0
Position2: "Single Positioning lookup 171 subtable" dx=247 dy=0 dh=247 dv=0
Position2: "Single Positioning lookup 170 subtable" dx=247 dy=0 dh=247 dv=0
Position2: "Single Positioning lookup 169 subtable" dx=247 dy=0 dh=247 dv=0
Position2: "Single Positioning lookup 168 subtable" dx=247 dy=0 dh=247 dv=0
Position2: "Single Positioning lookup 167 subtable" dx=247 dy=0 dh=247 dv=0
Position2: "Single Positioning lookup 166 subtable" dx=247 dy=0 dh=247 dv=0
Position2: "Single Positioning lookup 165 subtable" dx=247 dy=0 dh=247 dv=0
Position2: "Single Positioning lookup 164 subtable" dx=247 dy=0 dh=247 dv=0
Position2: "Single Positioning lookup 163 subtable" dx=247 dy=0 dh=247 dv=0
Position2: "Single Positioning lookup 162 subtable" dx=247 dy=0 dh=247 dv=0
Position2: "Single Positioning lookup 161 subtable" dx=247 dy=0 dh=247 dv=0
Position2: "Single Positioning lookup 160 subtable" dx=247 dy=0 dh=247 dv=0
Position2: "Single Positioning lookup 159 subtable" dx=247 dy=0 dh=247 dv=0
Position2: "Single Positioning lookup 158 subtable" dx=247 dy=0 dh=247 dv=0
Position2: "Single Positioning lookup 157 subtable" dx=247 dy=0 dh=247 dv=0
Position2: "Single Positioning lookup 156 subtable" dx=247 dy=0 dh=247 dv=0
Position2: "Single Positioning lookup 155 subtable" dx=247 dy=0 dh=247 dv=0
Position2: "Single Positioning lookup 154 subtable" dx=247 dy=0 dh=247 dv=0
Position2: "Single Positioning lookup 153 subtable" dx=247 dy=0 dh=247 dv=0
Position2: "Single Positioning lookup 152 subtable" dx=247 dy=0 dh=247 dv=0
Position2: "Single Positioning lookup 151 subtable" dx=247 dy=0 dh=247 dv=0
Position2: "Single Positioning lookup 150 subtable" dx=247 dy=0 dh=247 dv=0
Position2: "Single Positioning lookup 149 subtable" dx=247 dy=0 dh=247 dv=0
Position2: "Single Positioning lookup 148 subtable" dx=247 dy=0 dh=247 dv=0
Position2: "Single Positioning lookup 147 subtable" dx=247 dy=0 dh=247 dv=0
Position2: "Single Positioning lookup 146 subtable" dx=247 dy=0 dh=247 dv=0
Position2: "Single Positioning lookup 145 subtable" dx=247 dy=0 dh=247 dv=0
Position2: "Single Positioning lookup 144 subtable" dx=247 dy=0 dh=247 dv=0
Position2: "Single Positioning lookup 143 subtable" dx=247 dy=0 dh=247 dv=0
Position2: "Single Positioning lookup 142 subtable" dx=247 dy=0 dh=247 dv=0
Position2: "Single Positioning lookup 141 subtable" dx=247 dy=0 dh=247 dv=0
Position2: "Single Positioning lookup 140 subtable" dx=247 dy=0 dh=247 dv=0
Position2: "Single Positioning lookup 139 subtable" dx=208 dy=0 dh=208 dv=0
Position2: "Single Positioning lookup 138 subtable" dx=208 dy=0 dh=208 dv=0
Position2: "Single Positioning lookup 137 subtable" dx=208 dy=0 dh=208 dv=0
Position2: "Single Positioning lookup 136 subtable" dx=208 dy=0 dh=208 dv=0
Position2: "Single Positioning lookup 133 subtable" dx=208 dy=0 dh=208 dv=0
Position2: "Single Positioning lookup 132 subtable" dx=208 dy=0 dh=208 dv=0
Position2: "Single Positioning lookup 131 subtable" dx=208 dy=0 dh=208 dv=0
Position2: "Single Positioning lookup 130 subtable" dx=208 dy=0 dh=208 dv=0
Position2: "Single Positioning lookup 129 subtable" dx=208 dy=0 dh=208 dv=0
Position2: "Single Positioning lookup 128 subtable" dx=208 dy=0 dh=208 dv=0
Position2: "Single Positioning lookup 127 subtable" dx=208 dy=0 dh=208 dv=0
Position2: "Single Positioning lookup 126 subtable" dx=208 dy=0 dh=208 dv=0
Position2: "Single Positioning lookup 125 subtable" dx=208 dy=0 dh=208 dv=0
Position2: "Single Positioning lookup 124 subtable" dx=208 dy=0 dh=208 dv=0
Position2: "Single Positioning lookup 123 subtable" dx=208 dy=0 dh=208 dv=0
Position2: "Single Positioning lookup 122 subtable" dx=208 dy=0 dh=208 dv=0
Position2: "Single Positioning lookup 121 subtable" dx=208 dy=0 dh=208 dv=0
Position2: "Single Positioning lookup 120 subtable" dx=208 dy=0 dh=208 dv=0
Position2: "Single Positioning lookup 118 subtable" dx=208 dy=0 dh=208 dv=0
Position2: "Single Positioning lookup 117 subtable" dx=208 dy=0 dh=208 dv=0
Position2: "Single Positioning lookup 116 subtable" dx=208 dy=0 dh=208 dv=0
Position2: "Single Positioning lookup 115 subtable" dx=208 dy=0 dh=208 dv=0
Position2: "Single Positioning lookup 114 subtable" dx=208 dy=0 dh=208 dv=0
Position2: "Single Positioning lookup 113 subtable" dx=208 dy=0 dh=208 dv=0
Position2: "Single Positioning lookup 112 subtable" dx=208 dy=0 dh=208 dv=0
Position2: "Single Positioning lookup 111 subtable" dx=208 dy=0 dh=208 dv=0
Position2: "Single Positioning lookup 110 subtable" dx=208 dy=0 dh=208 dv=0
Position2: "Single Positioning lookup 109 subtable" dx=208 dy=0 dh=208 dv=0
Position2: "Single Positioning lookup 108 subtable" dx=208 dy=0 dh=208 dv=0
Position2: "Single Positioning lookup 107 subtable" dx=208 dy=0 dh=208 dv=0
Position2: "Single Positioning lookup 106 subtable" dx=208 dy=0 dh=208 dv=0
Position2: "Single Positioning lookup 105 subtable" dx=208 dy=0 dh=208 dv=0
Position2: "Single Positioning lookup 104 subtable" dx=208 dy=0 dh=208 dv=0
Position2: "Single Positioning lookup 103 subtable" dx=208 dy=0 dh=208 dv=0
Position2: "Single Positioning lookup 102 subtable" dx=208 dy=0 dh=208 dv=0
Position2: "Single Positioning lookup 101 subtable" dx=208 dy=0 dh=208 dv=0
Position2: "Single Positioning lookup 100 subtable" dx=208 dy=0 dh=208 dv=0
Position2: "Single Positioning lookup 99 subtable" dx=208 dy=0 dh=208 dv=0
Position2: "Single Positioning lookup 51 subtable" dx=29 dy=0 dh=29 dv=0
Position2: "Single Positioning lookup 50 subtable" dx=71 dy=0 dh=71 dv=0
Position2: "Single Positioning lookup 49 subtable" dx=182 dy=0 dh=182 dv=0
Position2: "Single Positioning lookup 48 subtable" dx=307 dy=0 dh=307 dv=0
Position2: "Single Positioning lookup 47 subtable" dx=171 dy=0 dh=171 dv=0
Position2: "Single Positioning lookup 44 subtable" dx=0 dy=0 dh=326 dv=0
Position2: "Single Positioning lookup 43 subtable" dx=271 dy=0 dh=271 dv=0
Position2: "Single Positioning lookup 42 subtable" dx=0 dy=0 dh=376 dv=0
Position2: "Single Positioning lookup 41 subtable" dx=322 dy=0 dh=322 dv=0
Position2: "Single Positioning lookup 40 subtable" dx=29 dy=0 dh=29 dv=0
Position2: "Single Positioning lookup 36 subtable" dx=136 dy=0 dh=136 dv=0
Position2: "Single Positioning lookup 35 subtable" dx=59 dy=0 dh=59 dv=0
Position2: "Single Positioning lookup 34 subtable" dx=101 dy=0 dh=101 dv=0
Position2: "Single Positioning lookup 33 subtable" dx=226 dy=0 dh=226 dv=0
Position2: "Single Positioning lookup 30 subtable" dx=54 dy=0 dh=54 dv=0
Position2: "Single Positioning lookup 29 subtable" dx=265 dy=0 dh=265 dv=0
Position2: "Single Positioning lookup 28 subtable" dx=146 dy=0 dh=146 dv=0
Position2: "Single Positioning lookup 22 subtable" dx=31 dy=0 dh=31 dv=0
Position2: "Single Positioning lookup 19 subtable" dx=160 dy=0 dh=160 dv=0
Position2: "Single Positioning lookup 18 subtable" dx=42 dy=0 dh=42 dv=0
Position2: "Single Positioning lookup 15 subtable" dx=28 dy=0 dh=28 dv=0
Position2: "Single Positioning lookup 14 subtable" dx=0 dy=0 dh=255 dv=0
Position2: "Single Positioning lookup 13 subtable" dx=200 dy=0 dh=200 dv=0
Position2: "Single Positioning lookup 10 subtable" dx=180 dy=0 dh=180 dv=0
Position2: "Single Positioning lookup 9 subtable" dx=62 dy=0 dh=62 dv=0
Position2: "Single Positioning lookup 8 subtable" dx=74 dy=0 dh=74 dv=0
Position2: "Single Positioning lookup 7 subtable" dx=183 dy=0 dh=183 dv=0
Position2: "Single Positioning lookup 6 subtable" dx=86 dy=0 dh=86 dv=0
Position2: "Single Positioning lookup 4 subtable" dx=344 dy=0 dh=344 dv=0
Position2: "Single Positioning lookup 3 subtable" dx=10 dy=0 dh=10 dv=0
Position2: "Single Positioning lookup 2 subtable" dx=67 dy=0 dh=67 dv=0
EndChar

StartChar: uni1B20
Encoding: 6944 6944 38
Width: 638
GlyphClass: 2
Flags: W
AnchorPoint: "Anchor-3" 336 0 basechar 0
AnchorPoint: "Anchor-0" 333 517 basechar 0
LayerCount: 2
Fore
SplineSet
460 94 m 1,0,-1
 464 94 l 2,1,2
 504 94 504 94 531 130.5 c 128,-1,3
 558 167 558 167 558 234 c 0,4,5
 557 333 557 333 487 434 c 1,6,-1
 498 443 l 1,7,8
 588 338 588 338 588 230 c 2,9,-1
 588 221 l 2,10,11
 588 -2 588 -2 444 -4 c 2,12,-1
 437 -4 l 1,13,14
 375 151 375 151 311 151 c 0,15,16
 267 151 267 151 245.5 75 c 128,-1,17
 224 -1 224 -1 156 -4 c 2,18,-1
 150 -4 l 2,19,20
 49 -2 49 -2 49 112 c 2,21,-1
 49 125 l 2,22,23
 51 189 51 189 100 268 c 0,24,25
 125 308 125 308 125 328 c 0,26,27
 125 346 125 346 103 346 c 0,28,29
 68 346 68 346 68 296 c 0,30,31
 68 279 68 279 72 256 c 1,32,-1
 59 254 l 1,33,34
 45 291 45 291 45 328 c 0,35,36
 45 440 45 440 119 440 c 1,37,38
 180 436 180 436 180 378 c 0,39,40
 180 342 180 342 143 286 c 0,41,42
 96 215 96 215 96 172 c 0,43,44
 96 97 96 97 177 94 c 0,45,46
 229 95 229 95 250.5 154 c 128,-1,47
 272 213 272 213 321 213 c 0,48,49
 417 213 417 213 460 94 c 1,0,-1
EndSplineSet
MultipleSubs2: "Multiple Substitution lookup 324 subtable" uni1B20 _reorder
MultipleSubs2: "Multiple Substitution lookup 268 subtable" uni1B20 _reorder
MultipleSubs2: "Multiple Substitution lookup 212 subtable" uni1B20 _reorder
MultipleSubs2: "Multiple Substitution lookup 150 subtable" uni1B20 _reorder
MultipleSubs2: "Multiple Substitution lookup 94 subtable" uni1B20 _reorder
MultipleSubs2: "Multiple Substitution lookup 38 subtable" uni1B20 _reorder
Position2: "Single Positioning lookup 299 subtable" dx=115 dy=0 dh=115 dv=0
Position2: "Single Positioning lookup 298 subtable" dx=115 dy=0 dh=115 dv=0
Position2: "Single Positioning lookup 297 subtable" dx=115 dy=0 dh=115 dv=0
Position2: "Single Positioning lookup 296 subtable" dx=115 dy=0 dh=115 dv=0
Position2: "Single Positioning lookup 295 subtable" dx=115 dy=0 dh=115 dv=0
Position2: "Single Positioning lookup 294 subtable" dx=115 dy=0 dh=115 dv=0
Position2: "Single Positioning lookup 293 subtable" dx=115 dy=0 dh=115 dv=0
Position2: "Single Positioning lookup 292 subtable" dx=115 dy=0 dh=115 dv=0
Position2: "Single Positioning lookup 291 subtable" dx=115 dy=0 dh=115 dv=0
Position2: "Single Positioning lookup 290 subtable" dx=115 dy=0 dh=115 dv=0
Position2: "Single Positioning lookup 289 subtable" dx=115 dy=0 dh=115 dv=0
Position2: "Single Positioning lookup 288 subtable" dx=115 dy=0 dh=115 dv=0
Position2: "Single Positioning lookup 287 subtable" dx=115 dy=0 dh=115 dv=0
Position2: "Single Positioning lookup 286 subtable" dx=115 dy=0 dh=115 dv=0
Position2: "Single Positioning lookup 284 subtable" dx=115 dy=0 dh=115 dv=0
Position2: "Single Positioning lookup 283 subtable" dx=115 dy=0 dh=115 dv=0
Position2: "Single Positioning lookup 282 subtable" dx=115 dy=0 dh=115 dv=0
Position2: "Single Positioning lookup 280 subtable" dx=115 dy=0 dh=115 dv=0
Position2: "Single Positioning lookup 279 subtable" dx=115 dy=0 dh=115 dv=0
Position2: "Single Positioning lookup 278 subtable" dx=115 dy=0 dh=115 dv=0
Position2: "Single Positioning lookup 277 subtable" dx=115 dy=0 dh=115 dv=0
Position2: "Single Positioning lookup 276 subtable" dx=115 dy=0 dh=115 dv=0
Position2: "Single Positioning lookup 275 subtable" dx=115 dy=0 dh=115 dv=0
Position2: "Single Positioning lookup 274 subtable" dx=115 dy=0 dh=115 dv=0
Position2: "Single Positioning lookup 273 subtable" dx=115 dy=0 dh=115 dv=0
Position2: "Single Positioning lookup 272 subtable" dx=115 dy=0 dh=115 dv=0
Position2: "Single Positioning lookup 271 subtable" dx=115 dy=0 dh=115 dv=0
Position2: "Single Positioning lookup 270 subtable" dx=115 dy=0 dh=115 dv=0
Position2: "Single Positioning lookup 269 subtable" dx=115 dy=0 dh=115 dv=0
Position2: "Single Positioning lookup 268 subtable" dx=115 dy=0 dh=115 dv=0
Position2: "Single Positioning lookup 267 subtable" dx=115 dy=0 dh=115 dv=0
Position2: "Single Positioning lookup 266 subtable" dx=115 dy=0 dh=115 dv=0
Position2: "Single Positioning lookup 265 subtable" dx=115 dy=0 dh=115 dv=0
Position2: "Single Positioning lookup 264 subtable" dx=115 dy=0 dh=115 dv=0
Position2: "Single Positioning lookup 263 subtable" dx=115 dy=0 dh=115 dv=0
Position2: "Single Positioning lookup 262 subtable" dx=115 dy=0 dh=115 dv=0
Position2: "Single Positioning lookup 261 subtable" dx=115 dy=0 dh=115 dv=0
Position2: "Single Positioning lookup 260 subtable" dx=125 dy=0 dh=125 dv=0
Position2: "Single Positioning lookup 259 subtable" dx=125 dy=0 dh=125 dv=0
Position2: "Single Positioning lookup 258 subtable" dx=125 dy=0 dh=125 dv=0
Position2: "Single Positioning lookup 257 subtable" dx=125 dy=0 dh=125 dv=0
Position2: "Single Positioning lookup 255 subtable" dx=125 dy=0 dh=125 dv=0
Position2: "Single Positioning lookup 254 subtable" dx=125 dy=0 dh=125 dv=0
Position2: "Single Positioning lookup 253 subtable" dx=125 dy=0 dh=125 dv=0
Position2: "Single Positioning lookup 252 subtable" dx=125 dy=0 dh=125 dv=0
Position2: "Single Positioning lookup 251 subtable" dx=125 dy=0 dh=125 dv=0
Position2: "Single Positioning lookup 250 subtable" dx=125 dy=0 dh=125 dv=0
Position2: "Single Positioning lookup 249 subtable" dx=125 dy=0 dh=125 dv=0
Position2: "Single Positioning lookup 248 subtable" dx=125 dy=0 dh=125 dv=0
Position2: "Single Positioning lookup 247 subtable" dx=125 dy=0 dh=125 dv=0
Position2: "Single Positioning lookup 246 subtable" dx=125 dy=0 dh=125 dv=0
Position2: "Single Positioning lookup 245 subtable" dx=125 dy=0 dh=125 dv=0
Position2: "Single Positioning lookup 244 subtable" dx=125 dy=0 dh=125 dv=0
Position2: "Single Positioning lookup 243 subtable" dx=125 dy=0 dh=125 dv=0
Position2: "Single Positioning lookup 242 subtable" dx=125 dy=0 dh=125 dv=0
Position2: "Single Positioning lookup 240 subtable" dx=125 dy=0 dh=125 dv=0
Position2: "Single Positioning lookup 239 subtable" dx=125 dy=0 dh=125 dv=0
Position2: "Single Positioning lookup 238 subtable" dx=125 dy=0 dh=125 dv=0
Position2: "Single Positioning lookup 237 subtable" dx=125 dy=0 dh=125 dv=0
Position2: "Single Positioning lookup 236 subtable" dx=125 dy=0 dh=125 dv=0
Position2: "Single Positioning lookup 235 subtable" dx=125 dy=0 dh=125 dv=0
Position2: "Single Positioning lookup 234 subtable" dx=125 dy=0 dh=125 dv=0
Position2: "Single Positioning lookup 233 subtable" dx=125 dy=0 dh=125 dv=0
Position2: "Single Positioning lookup 232 subtable" dx=125 dy=0 dh=125 dv=0
Position2: "Single Positioning lookup 231 subtable" dx=125 dy=0 dh=125 dv=0
Position2: "Single Positioning lookup 230 subtable" dx=125 dy=0 dh=125 dv=0
Position2: "Single Positioning lookup 229 subtable" dx=125 dy=0 dh=125 dv=0
Position2: "Single Positioning lookup 228 subtable" dx=125 dy=0 dh=125 dv=0
Position2: "Single Positioning lookup 227 subtable" dx=125 dy=0 dh=125 dv=0
Position2: "Single Positioning lookup 226 subtable" dx=125 dy=0 dh=125 dv=0
Position2: "Single Positioning lookup 225 subtable" dx=125 dy=0 dh=125 dv=0
Position2: "Single Positioning lookup 224 subtable" dx=125 dy=0 dh=125 dv=0
Position2: "Single Positioning lookup 223 subtable" dx=125 dy=0 dh=125 dv=0
Position2: "Single Positioning lookup 222 subtable" dx=125 dy=0 dh=125 dv=0
Position2: "Single Positioning lookup 221 subtable" dx=125 dy=0 dh=125 dv=0
Position2: "Single Positioning lookup 220 subtable" dx=145 dy=0 dh=145 dv=0
Position2: "Single Positioning lookup 219 subtable" dx=145 dy=0 dh=145 dv=0
Position2: "Single Positioning lookup 218 subtable" dx=145 dy=0 dh=145 dv=0
Position2: "Single Positioning lookup 217 subtable" dx=145 dy=0 dh=145 dv=0
Position2: "Single Positioning lookup 215 subtable" dx=145 dy=0 dh=145 dv=0
Position2: "Single Positioning lookup 214 subtable" dx=145 dy=0 dh=145 dv=0
Position2: "Single Positioning lookup 213 subtable" dx=145 dy=0 dh=145 dv=0
Position2: "Single Positioning lookup 212 subtable" dx=145 dy=0 dh=145 dv=0
Position2: "Single Positioning lookup 211 subtable" dx=145 dy=0 dh=145 dv=0
Position2: "Single Positioning lookup 210 subtable" dx=145 dy=0 dh=145 dv=0
Position2: "Single Positioning lookup 209 subtable" dx=145 dy=0 dh=145 dv=0
Position2: "Single Positioning lookup 208 subtable" dx=145 dy=0 dh=145 dv=0
Position2: "Single Positioning lookup 207 subtable" dx=145 dy=0 dh=145 dv=0
Position2: "Single Positioning lookup 206 subtable" dx=145 dy=0 dh=145 dv=0
Position2: "Single Positioning lookup 205 subtable" dx=145 dy=0 dh=145 dv=0
Position2: "Single Positioning lookup 204 subtable" dx=145 dy=0 dh=145 dv=0
Position2: "Single Positioning lookup 203 subtable" dx=145 dy=0 dh=145 dv=0
Position2: "Single Positioning lookup 202 subtable" dx=145 dy=0 dh=145 dv=0
Position2: "Single Positioning lookup 200 subtable" dx=145 dy=0 dh=145 dv=0
Position2: "Single Positioning lookup 199 subtable" dx=145 dy=0 dh=145 dv=0
Position2: "Single Positioning lookup 198 subtable" dx=145 dy=0 dh=145 dv=0
Position2: "Single Positioning lookup 197 subtable" dx=145 dy=0 dh=145 dv=0
Position2: "Single Positioning lookup 196 subtable" dx=145 dy=0 dh=145 dv=0
Position2: "Single Positioning lookup 195 subtable" dx=145 dy=0 dh=145 dv=0
Position2: "Single Positioning lookup 194 subtable" dx=145 dy=0 dh=145 dv=0
Position2: "Single Positioning lookup 193 subtable" dx=145 dy=0 dh=145 dv=0
Position2: "Single Positioning lookup 192 subtable" dx=145 dy=0 dh=145 dv=0
Position2: "Single Positioning lookup 191 subtable" dx=145 dy=0 dh=145 dv=0
Position2: "Single Positioning lookup 190 subtable" dx=145 dy=0 dh=145 dv=0
Position2: "Single Positioning lookup 189 subtable" dx=145 dy=0 dh=145 dv=0
Position2: "Single Positioning lookup 188 subtable" dx=145 dy=0 dh=145 dv=0
Position2: "Single Positioning lookup 187 subtable" dx=145 dy=0 dh=145 dv=0
Position2: "Single Positioning lookup 186 subtable" dx=145 dy=0 dh=145 dv=0
Position2: "Single Positioning lookup 185 subtable" dx=145 dy=0 dh=145 dv=0
Position2: "Single Positioning lookup 184 subtable" dx=145 dy=0 dh=145 dv=0
Position2: "Single Positioning lookup 183 subtable" dx=145 dy=0 dh=145 dv=0
Position2: "Single Positioning lookup 182 subtable" dx=145 dy=0 dh=145 dv=0
Position2: "Single Positioning lookup 181 subtable" dx=145 dy=0 dh=145 dv=0
Position2: "Single Positioning lookup 180 subtable" dx=247 dy=0 dh=247 dv=0
Position2: "Single Positioning lookup 179 subtable" dx=247 dy=0 dh=247 dv=0
Position2: "Single Positioning lookup 178 subtable" dx=247 dy=0 dh=247 dv=0
Position2: "Single Positioning lookup 177 subtable" dx=247 dy=0 dh=247 dv=0
Position2: "Single Positioning lookup 176 subtable" dx=247 dy=0 dh=247 dv=0
Position2: "Single Positioning lookup 175 subtable" dx=247 dy=0 dh=247 dv=0
Position2: "Single Positioning lookup 174 subtable" dx=247 dy=0 dh=247 dv=0
Position2: "Single Positioning lookup 173 subtable" dx=247 dy=0 dh=247 dv=0
Position2: "Single Positioning lookup 172 subtable" dx=247 dy=0 dh=247 dv=0
Position2: "Single Positioning lookup 171 subtable" dx=247 dy=0 dh=247 dv=0
Position2: "Single Positioning lookup 170 subtable" dx=247 dy=0 dh=247 dv=0
Position2: "Single Positioning lookup 169 subtable" dx=247 dy=0 dh=247 dv=0
Position2: "Single Positioning lookup 168 subtable" dx=247 dy=0 dh=247 dv=0
Position2: "Single Positioning lookup 167 subtable" dx=247 dy=0 dh=247 dv=0
Position2: "Single Positioning lookup 166 subtable" dx=247 dy=0 dh=247 dv=0
Position2: "Single Positioning lookup 165 subtable" dx=247 dy=0 dh=247 dv=0
Position2: "Single Positioning lookup 164 subtable" dx=247 dy=0 dh=247 dv=0
Position2: "Single Positioning lookup 163 subtable" dx=247 dy=0 dh=247 dv=0
Position2: "Single Positioning lookup 162 subtable" dx=247 dy=0 dh=247 dv=0
Position2: "Single Positioning lookup 161 subtable" dx=247 dy=0 dh=247 dv=0
Position2: "Single Positioning lookup 160 subtable" dx=247 dy=0 dh=247 dv=0
Position2: "Single Positioning lookup 159 subtable" dx=247 dy=0 dh=247 dv=0
Position2: "Single Positioning lookup 158 subtable" dx=247 dy=0 dh=247 dv=0
Position2: "Single Positioning lookup 157 subtable" dx=247 dy=0 dh=247 dv=0
Position2: "Single Positioning lookup 156 subtable" dx=247 dy=0 dh=247 dv=0
Position2: "Single Positioning lookup 155 subtable" dx=247 dy=0 dh=247 dv=0
Position2: "Single Positioning lookup 154 subtable" dx=247 dy=0 dh=247 dv=0
Position2: "Single Positioning lookup 153 subtable" dx=247 dy=0 dh=247 dv=0
Position2: "Single Positioning lookup 152 subtable" dx=247 dy=0 dh=247 dv=0
Position2: "Single Positioning lookup 151 subtable" dx=247 dy=0 dh=247 dv=0
Position2: "Single Positioning lookup 150 subtable" dx=247 dy=0 dh=247 dv=0
Position2: "Single Positioning lookup 149 subtable" dx=247 dy=0 dh=247 dv=0
Position2: "Single Positioning lookup 148 subtable" dx=247 dy=0 dh=247 dv=0
Position2: "Single Positioning lookup 147 subtable" dx=247 dy=0 dh=247 dv=0
Position2: "Single Positioning lookup 146 subtable" dx=247 dy=0 dh=247 dv=0
Position2: "Single Positioning lookup 145 subtable" dx=247 dy=0 dh=247 dv=0
Position2: "Single Positioning lookup 144 subtable" dx=247 dy=0 dh=247 dv=0
Position2: "Single Positioning lookup 143 subtable" dx=247 dy=0 dh=247 dv=0
Position2: "Single Positioning lookup 142 subtable" dx=247 dy=0 dh=247 dv=0
Position2: "Single Positioning lookup 141 subtable" dx=247 dy=0 dh=247 dv=0
Position2: "Single Positioning lookup 140 subtable" dx=247 dy=0 dh=247 dv=0
Position2: "Single Positioning lookup 139 subtable" dx=208 dy=0 dh=208 dv=0
Position2: "Single Positioning lookup 138 subtable" dx=208 dy=0 dh=208 dv=0
Position2: "Single Positioning lookup 137 subtable" dx=208 dy=0 dh=208 dv=0
Position2: "Single Positioning lookup 136 subtable" dx=208 dy=0 dh=208 dv=0
Position2: "Single Positioning lookup 135 subtable" dx=208 dy=0 dh=208 dv=0
Position2: "Single Positioning lookup 133 subtable" dx=208 dy=0 dh=208 dv=0
Position2: "Single Positioning lookup 132 subtable" dx=208 dy=0 dh=208 dv=0
Position2: "Single Positioning lookup 131 subtable" dx=208 dy=0 dh=208 dv=0
Position2: "Single Positioning lookup 130 subtable" dx=208 dy=0 dh=208 dv=0
Position2: "Single Positioning lookup 129 subtable" dx=208 dy=0 dh=208 dv=0
Position2: "Single Positioning lookup 128 subtable" dx=208 dy=0 dh=208 dv=0
Position2: "Single Positioning lookup 127 subtable" dx=208 dy=0 dh=208 dv=0
Position2: "Single Positioning lookup 126 subtable" dx=208 dy=0 dh=208 dv=0
Position2: "Single Positioning lookup 125 subtable" dx=208 dy=0 dh=208 dv=0
Position2: "Single Positioning lookup 124 subtable" dx=208 dy=0 dh=208 dv=0
Position2: "Single Positioning lookup 123 subtable" dx=208 dy=0 dh=208 dv=0
Position2: "Single Positioning lookup 122 subtable" dx=208 dy=0 dh=208 dv=0
Position2: "Single Positioning lookup 121 subtable" dx=208 dy=0 dh=208 dv=0
Position2: "Single Positioning lookup 120 subtable" dx=208 dy=0 dh=208 dv=0
Position2: "Single Positioning lookup 119 subtable" dx=208 dy=0 dh=208 dv=0
Position2: "Single Positioning lookup 118 subtable" dx=208 dy=0 dh=208 dv=0
Position2: "Single Positioning lookup 117 subtable" dx=208 dy=0 dh=208 dv=0
Position2: "Single Positioning lookup 116 subtable" dx=208 dy=0 dh=208 dv=0
Position2: "Single Positioning lookup 115 subtable" dx=208 dy=0 dh=208 dv=0
Position2: "Single Positioning lookup 114 subtable" dx=208 dy=0 dh=208 dv=0
Position2: "Single Positioning lookup 113 subtable" dx=208 dy=0 dh=208 dv=0
Position2: "Single Positioning lookup 112 subtable" dx=208 dy=0 dh=208 dv=0
Position2: "Single Positioning lookup 111 subtable" dx=208 dy=0 dh=208 dv=0
Position2: "Single Positioning lookup 110 subtable" dx=208 dy=0 dh=208 dv=0
Position2: "Single Positioning lookup 109 subtable" dx=208 dy=0 dh=208 dv=0
Position2: "Single Positioning lookup 108 subtable" dx=208 dy=0 dh=208 dv=0
Position2: "Single Positioning lookup 107 subtable" dx=208 dy=0 dh=208 dv=0
Position2: "Single Positioning lookup 106 subtable" dx=208 dy=0 dh=208 dv=0
Position2: "Single Positioning lookup 105 subtable" dx=208 dy=0 dh=208 dv=0
Position2: "Single Positioning lookup 104 subtable" dx=208 dy=0 dh=208 dv=0
Position2: "Single Positioning lookup 103 subtable" dx=208 dy=0 dh=208 dv=0
Position2: "Single Positioning lookup 102 subtable" dx=208 dy=0 dh=208 dv=0
Position2: "Single Positioning lookup 101 subtable" dx=208 dy=0 dh=208 dv=0
Position2: "Single Positioning lookup 100 subtable" dx=208 dy=0 dh=208 dv=0
Position2: "Single Positioning lookup 99 subtable" dx=208 dy=0 dh=208 dv=0
Position2: "Single Positioning lookup 51 subtable" dx=102 dy=0 dh=102 dv=0
Position2: "Single Positioning lookup 50 subtable" dx=144 dy=0 dh=144 dv=0
Position2: "Single Positioning lookup 49 subtable" dx=255 dy=0 dh=255 dv=0
Position2: "Single Positioning lookup 48 subtable" dx=380 dy=0 dh=380 dv=0
Position2: "Single Positioning lookup 47 subtable" dx=244 dy=0 dh=244 dv=0
Position2: "Single Positioning lookup 44 subtable" dx=0 dy=0 dh=352 dv=0
Position2: "Single Positioning lookup 43 subtable" dx=318 dy=0 dh=318 dv=0
Position2: "Single Positioning lookup 42 subtable" dx=0 dy=0 dh=402 dv=0
Position2: "Single Positioning lookup 41 subtable" dx=369 dy=0 dh=369 dv=0
Position2: "Single Positioning lookup 40 subtable" dx=102 dy=0 dh=102 dv=0
Position2: "Single Positioning lookup 36 subtable" dx=209 dy=0 dh=209 dv=0
Position2: "Single Positioning lookup 35 subtable" dx=132 dy=0 dh=132 dv=0
Position2: "Single Positioning lookup 34 subtable" dx=174 dy=0 dh=174 dv=0
Position2: "Single Positioning lookup 33 subtable" dx=299 dy=0 dh=299 dv=0
Position2: "Single Positioning lookup 30 subtable" dx=127 dy=0 dh=127 dv=0
Position2: "Single Positioning lookup 29 subtable" dx=338 dy=0 dh=338 dv=0
Position2: "Single Positioning lookup 28 subtable" dx=219 dy=0 dh=219 dv=0
Position2: "Single Positioning lookup 25 subtable" dx=58 dy=0 dh=58 dv=0
Position2: "Single Positioning lookup 22 subtable" dx=104 dy=0 dh=104 dv=0
Position2: "Single Positioning lookup 21 subtable" dx=17 dy=0 dh=17 dv=0
Position2: "Single Positioning lookup 19 subtable" dx=233 dy=0 dh=233 dv=0
Position2: "Single Positioning lookup 18 subtable" dx=115 dy=0 dh=115 dv=0
Position2: "Single Positioning lookup 15 subtable" dx=101 dy=0 dh=101 dv=0
Position2: "Single Positioning lookup 14 subtable" dx=0 dy=0 dh=281 dv=0
Position2: "Single Positioning lookup 13 subtable" dx=247 dy=0 dh=247 dv=0
Position2: "Single Positioning lookup 12 subtable" dx=10 dy=0 dh=10 dv=0
Position2: "Single Positioning lookup 11 subtable" dx=38 dy=0 dh=38 dv=0
Position2: "Single Positioning lookup 10 subtable" dx=253 dy=0 dh=253 dv=0
Position2: "Single Positioning lookup 9 subtable" dx=135 dy=0 dh=135 dv=0
Position2: "Single Positioning lookup 8 subtable" dx=147 dy=0 dh=147 dv=0
Position2: "Single Positioning lookup 7 subtable" dx=256 dy=0 dh=256 dv=0
Position2: "Single Positioning lookup 6 subtable" dx=159 dy=0 dh=159 dv=0
Position2: "Single Positioning lookup 4 subtable" dx=417 dy=0 dh=417 dv=0
Position2: "Single Positioning lookup 3 subtable" dx=83 dy=0 dh=83 dv=0
Position2: "Single Positioning lookup 2 subtable" dx=140 dy=0 dh=140 dv=0
EndChar

StartChar: uni1B21
Encoding: 6945 6945 39
Width: 908
GlyphClass: 2
Flags: W
AnchorPoint: "Anchor-3" 501 0 basechar 0
AnchorPoint: "Anchor-0" 517 525 basechar 0
LayerCount: 2
Fore
SplineSet
858 0 m 1,0,-1
 828 0 l 1,1,-1
 828 198 l 2,2,3
 825 333 825 333 741 342 c 1,4,-1
 741 158 l 2,5,6
 740 1 740 1 687 0 c 0,7,8
 632 1 632 1 632 158 c 2,9,-1
 632 246 l 1,10,11
 625 342 625 342 532 342 c 0,12,13
 442 342 442 342 400 200 c 1,14,15
 358 341 358 341 255 341 c 0,16,17
 156 341 156 341 156 200 c 1,18,19
 51 210 51 210 39 296 c 2,20,-1
 37 312 l 1,21,22
 37 388 37 388 85 453 c 1,23,-1
 98 447 l 1,24,25
 76 409 76 409 76 365 c 2,26,-1
 76 355 l 1,27,28
 82 299 82 299 144 287 c 1,29,30
 164 440 164 440 258 440 c 0,31,32
 362 440 362 440 400 275 c 1,33,34
 437 440 437 440 545 440 c 0,35,36
 663 440 663 440 663 251 c 2,37,-1
 663 131 l 2,38,39
 663 63 663 63 686 60 c 1,40,41
 709 63 709 63 710 131 c 2,42,-1
 710 442 l 1,43,44
 853 431 853 431 858 273 c 1,45,-1
 858 0 l 1,0,-1
EndSplineSet
MultipleSubs2: "Multiple Substitution lookup 325 subtable" uni1B21 _reorder
MultipleSubs2: "Multiple Substitution lookup 269 subtable" uni1B21 _reorder
MultipleSubs2: "Multiple Substitution lookup 213 subtable" uni1B21 _reorder
MultipleSubs2: "Multiple Substitution lookup 151 subtable" uni1B21 _reorder
MultipleSubs2: "Multiple Substitution lookup 95 subtable" uni1B21 _reorder
MultipleSubs2: "Multiple Substitution lookup 39 subtable" uni1B21 _reorder
Position2: "Single Positioning lookup 299 subtable" dx=115 dy=0 dh=115 dv=0
Position2: "Single Positioning lookup 298 subtable" dx=115 dy=0 dh=115 dv=0
Position2: "Single Positioning lookup 296 subtable" dx=115 dy=0 dh=115 dv=0
Position2: "Single Positioning lookup 294 subtable" dx=115 dy=0 dh=115 dv=0
Position2: "Single Positioning lookup 292 subtable" dx=115 dy=0 dh=115 dv=0
Position2: "Single Positioning lookup 291 subtable" dx=115 dy=0 dh=115 dv=0
Position2: "Single Positioning lookup 287 subtable" dx=115 dy=0 dh=115 dv=0
Position2: "Single Positioning lookup 286 subtable" dx=115 dy=0 dh=115 dv=0
Position2: "Single Positioning lookup 277 subtable" dx=115 dy=0 dh=115 dv=0
Position2: "Single Positioning lookup 272 subtable" dx=115 dy=0 dh=115 dv=0
Position2: "Single Positioning lookup 269 subtable" dx=115 dy=0 dh=115 dv=0
Position2: "Single Positioning lookup 266 subtable" dx=115 dy=0 dh=115 dv=0
Position2: "Single Positioning lookup 265 subtable" dx=115 dy=0 dh=115 dv=0
Position2: "Single Positioning lookup 263 subtable" dx=115 dy=0 dh=115 dv=0
Position2: "Single Positioning lookup 260 subtable" dx=125 dy=0 dh=125 dv=0
Position2: "Single Positioning lookup 259 subtable" dx=125 dy=0 dh=125 dv=0
Position2: "Single Positioning lookup 257 subtable" dx=125 dy=0 dh=125 dv=0
Position2: "Single Positioning lookup 254 subtable" dx=125 dy=0 dh=125 dv=0
Position2: "Single Positioning lookup 252 subtable" dx=125 dy=0 dh=125 dv=0
Position2: "Single Positioning lookup 251 subtable" dx=125 dy=0 dh=125 dv=0
Position2: "Single Positioning lookup 247 subtable" dx=125 dy=0 dh=125 dv=0
Position2: "Single Positioning lookup 246 subtable" dx=125 dy=0 dh=125 dv=0
Position2: "Single Positioning lookup 237 subtable" dx=125 dy=0 dh=125 dv=0
Position2: "Single Positioning lookup 232 subtable" dx=125 dy=0 dh=125 dv=0
Position2: "Single Positioning lookup 229 subtable" dx=125 dy=0 dh=125 dv=0
Position2: "Single Positioning lookup 227 subtable" dx=125 dy=0 dh=125 dv=0
Position2: "Single Positioning lookup 226 subtable" dx=125 dy=0 dh=125 dv=0
Position2: "Single Positioning lookup 225 subtable" dx=125 dy=0 dh=125 dv=0
Position2: "Single Positioning lookup 223 subtable" dx=125 dy=0 dh=125 dv=0
Position2: "Single Positioning lookup 220 subtable" dx=145 dy=0 dh=145 dv=0
Position2: "Single Positioning lookup 219 subtable" dx=145 dy=0 dh=145 dv=0
Position2: "Single Positioning lookup 217 subtable" dx=145 dy=0 dh=145 dv=0
Position2: "Single Positioning lookup 214 subtable" dx=145 dy=0 dh=145 dv=0
Position2: "Single Positioning lookup 213 subtable" dx=145 dy=0 dh=145 dv=0
Position2: "Single Positioning lookup 212 subtable" dx=145 dy=0 dh=145 dv=0
Position2: "Single Positioning lookup 211 subtable" dx=145 dy=0 dh=145 dv=0
Position2: "Single Positioning lookup 208 subtable" dx=145 dy=0 dh=145 dv=0
Position2: "Single Positioning lookup 207 subtable" dx=145 dy=0 dh=145 dv=0
Position2: "Single Positioning lookup 206 subtable" dx=145 dy=0 dh=145 dv=0
Position2: "Single Positioning lookup 197 subtable" dx=145 dy=0 dh=145 dv=0
Position2: "Single Positioning lookup 192 subtable" dx=145 dy=0 dh=145 dv=0
Position2: "Single Positioning lookup 189 subtable" dx=145 dy=0 dh=145 dv=0
Position2: "Single Positioning lookup 188 subtable" dx=145 dy=0 dh=145 dv=0
Position2: "Single Positioning lookup 187 subtable" dx=145 dy=0 dh=145 dv=0
Position2: "Single Positioning lookup 186 subtable" dx=145 dy=0 dh=145 dv=0
Position2: "Single Positioning lookup 185 subtable" dx=145 dy=0 dh=145 dv=0
Position2: "Single Positioning lookup 183 subtable" dx=145 dy=0 dh=145 dv=0
Position2: "Single Positioning lookup 181 subtable" dx=145 dy=0 dh=145 dv=0
Position2: "Single Positioning lookup 180 subtable" dx=247 dy=0 dh=247 dv=0
Position2: "Single Positioning lookup 179 subtable" dx=247 dy=0 dh=247 dv=0
Position2: "Single Positioning lookup 178 subtable" dx=247 dy=0 dh=247 dv=0
Position2: "Single Positioning lookup 177 subtable" dx=247 dy=0 dh=247 dv=0
Position2: "Single Positioning lookup 173 subtable" dx=247 dy=0 dh=247 dv=0
Position2: "Single Positioning lookup 172 subtable" dx=247 dy=0 dh=247 dv=0
Position2: "Single Positioning lookup 171 subtable" dx=247 dy=0 dh=247 dv=0
Position2: "Single Positioning lookup 170 subtable" dx=247 dy=0 dh=247 dv=0
Position2: "Single Positioning lookup 167 subtable" dx=247 dy=0 dh=247 dv=0
Position2: "Single Positioning lookup 166 subtable" dx=247 dy=0 dh=247 dv=0
Position2: "Single Positioning lookup 165 subtable" dx=247 dy=0 dh=247 dv=0
Position2: "Single Positioning lookup 162 subtable" dx=247 dy=0 dh=247 dv=0
Position2: "Single Positioning lookup 159 subtable" dx=247 dy=0 dh=247 dv=0
Position2: "Single Positioning lookup 156 subtable" dx=247 dy=0 dh=247 dv=0
Position2: "Single Positioning lookup 155 subtable" dx=247 dy=0 dh=247 dv=0
Position2: "Single Positioning lookup 152 subtable" dx=247 dy=0 dh=247 dv=0
Position2: "Single Positioning lookup 151 subtable" dx=247 dy=0 dh=247 dv=0
Position2: "Single Positioning lookup 149 subtable" dx=247 dy=0 dh=247 dv=0
Position2: "Single Positioning lookup 148 subtable" dx=247 dy=0 dh=247 dv=0
Position2: "Single Positioning lookup 147 subtable" dx=247 dy=0 dh=247 dv=0
Position2: "Single Positioning lookup 146 subtable" dx=247 dy=0 dh=247 dv=0
Position2: "Single Positioning lookup 145 subtable" dx=247 dy=0 dh=247 dv=0
Position2: "Single Positioning lookup 144 subtable" dx=247 dy=0 dh=247 dv=0
Position2: "Single Positioning lookup 142 subtable" dx=247 dy=0 dh=247 dv=0
Position2: "Single Positioning lookup 141 subtable" dx=247 dy=0 dh=247 dv=0
Position2: "Single Positioning lookup 140 subtable" dx=247 dy=0 dh=247 dv=0
Position2: "Single Positioning lookup 139 subtable" dx=208 dy=0 dh=208 dv=0
Position2: "Single Positioning lookup 138 subtable" dx=208 dy=0 dh=208 dv=0
Position2: "Single Positioning lookup 137 subtable" dx=208 dy=0 dh=208 dv=0
Position2: "Single Positioning lookup 136 subtable" dx=208 dy=0 dh=208 dv=0
Position2: "Single Positioning lookup 132 subtable" dx=208 dy=0 dh=208 dv=0
Position2: "Single Positioning lookup 131 subtable" dx=208 dy=0 dh=208 dv=0
Position2: "Single Positioning lookup 130 subtable" dx=208 dy=0 dh=208 dv=0
Position2: "Single Positioning lookup 129 subtable" dx=208 dy=0 dh=208 dv=0
Position2: "Single Positioning lookup 126 subtable" dx=208 dy=0 dh=208 dv=0
Position2: "Single Positioning lookup 125 subtable" dx=208 dy=0 dh=208 dv=0
Position2: "Single Positioning lookup 124 subtable" dx=208 dy=0 dh=208 dv=0
Position2: "Single Positioning lookup 118 subtable" dx=208 dy=0 dh=208 dv=0
Position2: "Single Positioning lookup 115 subtable" dx=208 dy=0 dh=208 dv=0
Position2: "Single Positioning lookup 114 subtable" dx=208 dy=0 dh=208 dv=0
Position2: "Single Positioning lookup 111 subtable" dx=208 dy=0 dh=208 dv=0
Position2: "Single Positioning lookup 110 subtable" dx=208 dy=0 dh=208 dv=0
Position2: "Single Positioning lookup 107 subtable" dx=208 dy=0 dh=208 dv=0
Position2: "Single Positioning lookup 106 subtable" dx=208 dy=0 dh=208 dv=0
Position2: "Single Positioning lookup 105 subtable" dx=208 dy=0 dh=208 dv=0
Position2: "Single Positioning lookup 104 subtable" dx=208 dy=0 dh=208 dv=0
Position2: "Single Positioning lookup 103 subtable" dx=208 dy=0 dh=208 dv=0
Position2: "Single Positioning lookup 101 subtable" dx=208 dy=0 dh=208 dv=0
Position2: "Single Positioning lookup 100 subtable" dx=208 dy=0 dh=208 dv=0
Position2: "Single Positioning lookup 99 subtable" dx=208 dy=0 dh=208 dv=0
Position2: "Single Positioning lookup 48 subtable" dx=110 dy=0 dh=110 dv=0
Position2: "Single Positioning lookup 44 subtable" dx=0 dy=0 dh=247 dv=0
Position2: "Single Positioning lookup 43 subtable" dx=153 dy=0 dh=153 dv=0
Position2: "Single Positioning lookup 42 subtable" dx=0 dy=0 dh=297 dv=0
Position2: "Single Positioning lookup 41 subtable" dx=204 dy=0 dh=204 dv=0
Position2: "Single Positioning lookup 33 subtable" dx=29 dy=0 dh=29 dv=0
Position2: "Single Positioning lookup 29 subtable" dx=68 dy=0 dh=68 dv=0
Position2: "Single Positioning lookup 14 subtable" dx=0 dy=0 dh=176 dv=0
Position2: "Single Positioning lookup 13 subtable" dx=82 dy=0 dh=82 dv=0
Position2: "Single Positioning lookup 4 subtable" dx=147 dy=0 dh=147 dv=0
EndChar

